<svg width="160" height="61" viewBox="0 0 160 61" fill="none" xmlns="http://www.w3.org/2000/svg">
<g clip-path="url(#clip0_186_42112)">
<path d="M0.38089 0H12.3809C12.3809 2.20914 10.59 4 8.38089 4H0.38089V0Z" fill="#FAF5F3"/>
<path d="M18.4809 4C18.4809 1.79086 20.2718 0 22.4809 0H38.4809C40.69 0 42.4809 1.79086 42.4809 4H18.4809Z" fill="#F63A80"/>
<path d="M48.5809 0H61.5809V4H52.5809C50.3717 4 48.5809 2.20914 48.5809 0Z" fill="#FAF5F3"/>
</g>
<g clip-path="url(#clip1_186_42112)">
<path d="M61.3809 61H48.3809C48.3809 58.7909 50.1718 57 52.3809 57H61.3809V61Z" fill="#FAF5F3"/>
<path d="M42.2809 57C42.2809 59.2091 40.49 61 38.2809 61H22.2809C20.0717 61 18.2809 59.2091 18.2809 57H42.2809Z" fill="#F63A80"/>
<path d="M12.1809 61H0.180878V57H8.18088C10.39 57 12.1809 58.7909 12.1809 61Z" fill="#FAF5F3"/>
</g>
<g clip-path="url(#clip2_186_42112)">
<path d="M61.3809 0V12C59.1718 12 57.3809 10.2091 57.3809 8V0L61.3809 0Z" fill="#FAF5F3"/>
<path d="M57.3809 18.1001C59.59 18.1001 61.3809 19.891 61.3809 22.1001V39.1001C61.3809 41.3092 59.59 43.1001 57.3809 43.1001V18.1001Z" fill="#F63A80"/>
<path d="M61.3809 49.2V61.2H57.3809V53.2C57.3809 50.9908 59.1718 49.2 61.3809 49.2Z" fill="#FAF5F3"/>
</g>
<g clip-path="url(#clip3_186_42112)">
<path d="M0.38089 61L0.38089 49C2.59003 49 4.38089 50.7909 4.38089 53V61H0.38089Z" fill="#FAF5F3"/>
<path d="M4.38089 42.8999C2.17175 42.8999 0.38089 41.109 0.38089 38.8999L0.38089 21.8999C0.38089 19.6908 2.17175 17.8999 4.38089 17.8999L4.38089 42.8999Z" fill="#F63A80"/>
<path d="M0.38089 11.8L0.38089 -0.199951H4.38089L4.38089 7.80005C4.38089 10.0092 2.59003 11.8 0.38089 11.8Z" fill="#FAF5F3"/>
</g>
<g clip-path="url(#clip4_186_42112)">
<path d="M21 33.7812C21 37.042 23.6455 39.6875 26.9062 39.6875H42C44.8998 39.6875 47.25 37.3373 47.25 34.4375C47.25 31.8986 45.4453 29.7781 43.05 29.2941C43.2182 28.8553 43.3125 28.3754 43.3125 27.875C43.3125 25.7012 41.5488 23.9375 39.375 23.9375C38.567 23.9375 37.8123 24.1836 37.1889 24.602C36.0527 22.6332 33.9322 21.3125 31.5 21.3125C27.8742 21.3125 24.9375 24.2492 24.9375 27.875C24.9375 27.9857 24.9416 28.0965 24.9457 28.2072C22.6488 29.0152 21 31.2055 21 33.7812Z" fill="#FAF5F3"/>
</g>
<g clip-path="url(#clip5_186_42112)">
<path d="M15 33.7812C15 37.042 17.6455 39.6875 20.9062 39.6875H36C38.8998 39.6875 41.25 37.3373 41.25 34.4375C41.25 31.8986 39.4453 29.7781 37.05 29.2941C37.2182 28.8553 37.3125 28.3754 37.3125 27.875C37.3125 25.7012 35.5488 23.9375 33.375 23.9375C32.567 23.9375 31.8123 24.1836 31.1889 24.602C30.0527 22.6332 27.9322 21.3125 25.5 21.3125C21.8742 21.3125 18.9375 24.2492 18.9375 27.875C18.9375 27.9857 18.9416 28.0965 18.9457 28.2072C16.6488 29.0152 15 31.2055 15 33.7812Z" fill="#FAF5F3"/>
</g>
<path d="M79.0903 36.772V26.308H80.8903V36.772H79.0903ZM74.5063 32.38V30.676H85.4743V32.38H74.5063Z" fill="white"/>
<g clip-path="url(#clip6_186_42112)">
<path d="M98.619 0H110.619C110.619 2.20914 108.828 4 106.619 4H98.619V0Z" fill="#FAF5F3"/>
<path d="M116.719 4C116.719 1.79086 118.51 0 120.719 0H136.719C138.928 0 140.719 1.79086 140.719 4H116.719Z" fill="#FE8500"/>
<path d="M146.819 0H159.819V4H150.819C148.61 4 146.819 2.20914 146.819 0Z" fill="#FAF5F3"/>
</g>
<g clip-path="url(#clip7_186_42112)">
<path d="M159.619 61H146.619C146.619 58.7909 148.41 57 150.619 57H159.619V61Z" fill="#FAF5F3"/>
<path d="M140.519 57C140.519 59.2091 138.728 61 136.519 61H120.519C118.31 61 116.519 59.2091 116.519 57H140.519Z" fill="#FE8500"/>
<path d="M110.419 61H98.419V57H106.419C108.628 57 110.419 58.7909 110.419 61Z" fill="#FAF5F3"/>
</g>
<g clip-path="url(#clip8_186_42112)">
<path d="M159.619 0V12C157.41 12 155.619 10.2091 155.619 8V0L159.619 0Z" fill="#FAF5F3"/>
<path d="M155.619 18.1001C157.828 18.1001 159.619 19.891 159.619 22.1001V39.1001C159.619 41.3092 157.828 43.1001 155.619 43.1001V18.1001Z" fill="#FE8500"/>
<path d="M159.619 49.2V61.2H155.619V53.2C155.619 50.9908 157.41 49.2 159.619 49.2Z" fill="#FAF5F3"/>
</g>
<g clip-path="url(#clip9_186_42112)">
<path d="M98.619 61V49C100.828 49 102.619 50.7909 102.619 53V61H98.619Z" fill="#FAF5F3"/>
<path d="M102.619 42.8999C100.41 42.8999 98.619 41.109 98.619 38.8999V21.8999C98.619 19.6908 100.41 17.8999 102.619 17.8999V42.8999Z" fill="#FE8500"/>
<path d="M98.619 11.8V-0.199951H102.619V7.80005C102.619 10.0092 100.828 11.8 98.619 11.8Z" fill="#FAF5F3"/>
</g>
<g clip-path="url(#clip10_186_42112)">
<path d="M119.337 18.6687C117.497 18.6687 116 20.1654 116 22.0062V25.3437C116 27.1845 117.497 28.6812 119.337 28.6812H139.362C141.203 28.6812 142.7 27.1845 142.7 25.3437V22.0062C142.7 20.1654 141.203 18.6687 139.362 18.6687H119.337ZM133.939 22.4234C134.271 22.4234 134.589 22.5552 134.824 22.79C135.059 23.0247 135.191 23.343 135.191 23.6749C135.191 24.0069 135.059 24.3252 134.824 24.5599C134.589 24.7946 134.271 24.9265 133.939 24.9265C133.607 24.9265 133.289 24.7946 133.054 24.5599C132.819 24.3252 132.687 24.0069 132.687 23.6749C132.687 23.343 132.819 23.0247 133.054 22.79C133.289 22.5552 133.607 22.4234 133.939 22.4234ZM136.442 23.6749C136.442 23.343 136.574 23.0247 136.809 22.79C137.043 22.5552 137.362 22.4234 137.694 22.4234C138.026 22.4234 138.344 22.5552 138.579 22.79C138.813 23.0247 138.945 23.343 138.945 23.6749C138.945 24.0069 138.813 24.3252 138.579 24.5599C138.344 24.7946 138.026 24.9265 137.694 24.9265C137.362 24.9265 137.043 24.7946 136.809 24.5599C136.574 24.3252 136.442 24.0069 136.442 23.6749ZM119.337 32.0187C117.497 32.0187 116 33.5153 116 35.3562V38.6937C116 40.5345 117.497 42.0312 119.337 42.0312H139.362C141.203 42.0312 142.7 40.5345 142.7 38.6937V35.3562C142.7 33.5153 141.203 32.0187 139.362 32.0187H119.337ZM133.939 35.7734C134.271 35.7734 134.589 35.9052 134.824 36.1399C135.059 36.3746 135.191 36.693 135.191 37.0249C135.191 37.3569 135.059 37.6752 134.824 37.9099C134.589 38.1446 134.271 38.2765 133.939 38.2765C133.607 38.2765 133.289 38.1446 133.054 37.9099C132.819 37.6752 132.687 37.3569 132.687 37.0249C132.687 36.693 132.819 36.3746 133.054 36.1399C133.289 35.9052 133.607 35.7734 133.939 35.7734ZM136.859 37.0249C136.859 36.693 136.991 36.3746 137.226 36.1399C137.461 35.9052 137.779 35.7734 138.111 35.7734C138.443 35.7734 138.761 35.9052 138.996 36.1399C139.231 36.3746 139.362 36.693 139.362 37.0249C139.362 37.3569 139.231 37.6752 138.996 37.9099C138.761 38.1446 138.443 38.2765 138.111 38.2765C137.779 38.2765 137.461 38.1446 137.226 37.9099C136.991 37.6752 136.859 37.3569 136.859 37.0249Z" fill="#FAF5F3"/>
</g>
<defs>
<clipPath id="clip0_186_42112">
<rect width="61" height="6.1" fill="white" transform="translate(0.38089)"/>
</clipPath>
<clipPath id="clip1_186_42112">
<rect width="61" height="6.1" fill="white" transform="matrix(-1 0 0 -1 61.3809 61)"/>
</clipPath>
<clipPath id="clip2_186_42112">
<rect width="61" height="6.1" fill="white" transform="matrix(0 1 -1 0 61.3809 0)"/>
</clipPath>
<clipPath id="clip3_186_42112">
<rect width="61" height="6.1" fill="white" transform="matrix(0 -1 1 0 0.38089 61)"/>
</clipPath>
<clipPath id="clip4_186_42112">
<rect width="26.25" height="21" fill="white" transform="translate(21 20)"/>
</clipPath>
<clipPath id="clip5_186_42112">
<rect width="26.25" height="21" fill="white" transform="translate(15 20)"/>
</clipPath>
<clipPath id="clip6_186_42112">
<rect width="61" height="6.1" fill="white" transform="translate(98.619)"/>
</clipPath>
<clipPath id="clip7_186_42112">
<rect width="61" height="6.1" fill="white" transform="matrix(-1 0 0 -1 159.619 61)"/>
</clipPath>
<clipPath id="clip8_186_42112">
<rect width="61" height="6.1" fill="white" transform="matrix(0 1 -1 0 159.619 0)"/>
</clipPath>
<clipPath id="clip9_186_42112">
<rect width="61" height="6.1" fill="white" transform="matrix(0 -1 1 0 98.619 61)"/>
</clipPath>
<clipPath id="clip10_186_42112">
<rect width="26.7" height="26.7" fill="white" transform="translate(116 17)"/>
</clipPath>
</defs>
</svg>
