<svg width="216" height="61" viewBox="0 0 216 61" fill="none" xmlns="http://www.w3.org/2000/svg">
<g clip-path="url(#clip0_186_42342)">
<path d="M0.166626 0H12.1666C12.1666 2.20914 10.3758 4 8.16663 4H0.166626V0Z" fill="#FAF5F3"/>
<path d="M18.2666 4C18.2666 1.79086 20.0575 0 22.2666 0H38.2666C40.4757 0 42.2666 1.79086 42.2666 4H18.2666Z" fill="#6D46DE"/>
<path d="M48.3666 0H61.3666V4H52.3666C50.1575 4 48.3666 2.20914 48.3666 0Z" fill="#FAF5F3"/>
</g>
<g clip-path="url(#clip1_186_42342)">
<path d="M61.1666 61H48.1666C48.1666 58.7909 49.9575 57 52.1666 57H61.1666V61Z" fill="#FAF5F3"/>
<path d="M42.0667 57C42.0667 59.2091 40.2758 61 38.0667 61H22.0667C19.8575 61 18.0667 59.2091 18.0667 57H42.0667Z" fill="#6D46DE"/>
<path d="M11.9666 61H-0.0333862V57H7.96661C10.1758 57 11.9666 58.7909 11.9666 61Z" fill="#FAF5F3"/>
</g>
<g clip-path="url(#clip2_186_42342)">
<path d="M61.1666 0V12C58.9575 12 57.1666 10.2091 57.1666 8V0L61.1666 0Z" fill="#FAF5F3"/>
<path d="M57.1666 18.1001C59.3758 18.1001 61.1666 19.891 61.1666 22.1001V39.1001C61.1666 41.3092 59.3758 43.1001 57.1666 43.1001V18.1001Z" fill="#6D46DE"/>
<path d="M61.1666 49.2V61.2H57.1666V53.2C57.1666 50.9908 58.9575 49.2 61.1666 49.2Z" fill="#FAF5F3"/>
</g>
<g clip-path="url(#clip3_186_42342)">
<path d="M0.166626 61L0.166626 49C2.37576 49 4.16663 50.7909 4.16663 53V61H0.166626Z" fill="#FAF5F3"/>
<path d="M4.16663 42.8999C1.95749 42.8999 0.166626 41.109 0.166626 38.8999L0.166626 21.8999C0.166626 19.6908 1.95749 17.8999 4.16663 17.8999L4.16663 42.8999Z" fill="#6D46DE"/>
<path d="M0.166626 11.8L0.166626 -0.199951H4.16663L4.16663 7.80005C4.16663 10.0092 2.37576 11.8 0.166626 11.8Z" fill="#FAF5F3"/>
</g>
<path d="M19.0128 49.0886V45.3486C19.0128 45.0553 18.9688 44.8719 18.8808 44.7986C18.7928 44.7106 18.6095 44.6666 18.3308 44.6666H16.8348C15.6761 44.6666 15.0968 44.0873 15.0968 42.9286V39.1226C15.0968 37.9639 15.6761 37.3846 16.8348 37.3846H18.7708C19.9295 37.3846 20.5088 37.9639 20.5088 39.1226V41.2346H18.9908V39.3646C18.9908 39.0713 18.9468 38.8879 18.8588 38.8146C18.7855 38.7266 18.6021 38.6826 18.3088 38.6826H17.2968C17.0035 38.6826 16.8128 38.7266 16.7248 38.8146C16.6515 38.8879 16.6148 39.0713 16.6148 39.3646V42.6866C16.6148 42.9653 16.6515 43.1486 16.7248 43.2366C16.8128 43.3246 17.0035 43.3686 17.2968 43.3686H18.7928C19.9515 43.3686 20.5308 43.9479 20.5308 45.1066V49.3306C20.5308 50.4893 19.9515 51.0686 18.7928 51.0686H16.8788C15.7201 51.0686 15.1408 50.4893 15.1408 49.3306V47.2186H16.6588V49.0886C16.6588 49.3819 16.6955 49.5726 16.7688 49.6606C16.8568 49.7339 17.0475 49.7706 17.3408 49.7706H18.3308C18.6095 49.7706 18.7928 49.7339 18.8808 49.6606C18.9688 49.5726 19.0128 49.3819 19.0128 49.0886ZM24.2521 37.3846H26.4961C27.6547 37.3846 28.2341 37.9639 28.2341 39.1226V49.3306C28.2341 50.4893 27.6547 51.0686 26.4961 51.0686H24.2521C23.0934 51.0686 22.5141 50.4893 22.5141 49.3306V39.1226C22.5141 37.9639 23.0934 37.3846 24.2521 37.3846ZM26.7381 49.0886V39.3646C26.7381 39.0713 26.6941 38.8879 26.6061 38.8146C26.5181 38.7266 26.3347 38.6826 26.0561 38.6826H24.6921C24.4134 38.6826 24.2301 38.7266 24.1421 38.8146C24.0541 38.8879 24.0101 39.0713 24.0101 39.3646V49.0886C24.0101 49.3819 24.0541 49.5726 24.1421 49.6606C24.2301 49.7339 24.4134 49.7706 24.6921 49.7706H26.0561C26.3347 49.7706 26.5181 49.7339 26.6061 49.6606C26.6941 49.5726 26.7381 49.3819 26.7381 49.0886ZM36.0518 41.4326H34.5338V39.3646C34.5338 39.0713 34.4898 38.8879 34.4018 38.8146C34.3138 38.7266 34.1305 38.6826 33.8518 38.6826H32.6418C32.3485 38.6826 32.1578 38.7266 32.0698 38.8146C31.9965 38.8879 31.9598 39.0713 31.9598 39.3646V49.1106C31.9598 49.3893 31.9965 49.5726 32.0698 49.6606C32.1578 49.7486 32.3485 49.7926 32.6418 49.7926H33.8518C34.1305 49.7926 34.3138 49.7486 34.4018 49.6606C34.4898 49.5726 34.5338 49.3893 34.5338 49.1106V47.0426H36.0518V49.3526C36.0518 50.5113 35.4725 51.0906 34.3138 51.0906H32.1798C31.0211 51.0906 30.4418 50.5113 30.4418 49.3526V39.1226C30.4418 37.9639 31.0211 37.3846 32.1798 37.3846H34.3138C35.4725 37.3846 36.0518 37.9639 36.0518 39.1226V41.4326ZM41.8292 39.3646V41.7846H40.3332V39.1226C40.3332 37.9639 40.9125 37.3846 42.0712 37.3846H43.7652C44.9239 37.3846 45.5032 37.9639 45.5032 39.1226V40.3326C45.5032 41.3446 45.3125 42.2979 44.9312 43.1926L41.9172 49.7706H45.6132V51.0686H40.3552V49.7926L43.4792 42.9506C43.8165 42.1586 43.9852 41.2566 43.9852 40.2446V39.3646C43.9852 39.0713 43.9412 38.8879 43.8532 38.8146C43.7799 38.7266 43.5965 38.6826 43.3032 38.6826H42.5112C42.2179 38.6826 42.0272 38.7266 41.9392 38.8146C41.8659 38.8879 41.8292 39.0713 41.8292 39.3646Z" fill="white"/>
<g clip-path="url(#clip4_186_42342)">
<path d="M77.1666 0H89.1666C89.1666 2.20914 87.3758 4 85.1666 4H77.1666V0Z" fill="#FAF5F3"/>
<path d="M95.2666 4C95.2666 1.79086 97.0575 0 99.2666 0H115.267C117.476 0 119.267 1.79086 119.267 4H95.2666Z" fill="#6D46DE"/>
<path d="M125.367 0H138.367V4H129.367C127.157 4 125.367 2.20914 125.367 0Z" fill="#FAF5F3"/>
</g>
<g clip-path="url(#clip5_186_42342)">
<path d="M138.167 61H125.167C125.167 58.7909 126.957 57 129.167 57H138.167V61Z" fill="#FAF5F3"/>
<path d="M119.067 57C119.067 59.2091 117.276 61 115.067 61H99.0667C96.8575 61 95.0667 59.2091 95.0667 57H119.067Z" fill="#6D46DE"/>
<path d="M88.9666 61H76.9666V57H84.9666C87.1758 57 88.9666 58.7909 88.9666 61Z" fill="#FAF5F3"/>
</g>
<g clip-path="url(#clip6_186_42342)">
<path d="M138.167 0V12C135.957 12 134.167 10.2091 134.167 8V0L138.167 0Z" fill="#FAF5F3"/>
<path d="M134.167 18.1001C136.376 18.1001 138.167 19.891 138.167 22.1001V39.1001C138.167 41.3092 136.376 43.1001 134.167 43.1001V18.1001Z" fill="#6D46DE"/>
<path d="M138.167 49.2V61.2H134.167V53.2C134.167 50.9908 135.957 49.2 138.167 49.2Z" fill="#FAF5F3"/>
</g>
<g clip-path="url(#clip7_186_42342)">
<path d="M77.1666 61V49C79.3758 49 81.1666 50.7909 81.1666 53V61H77.1666Z" fill="#FAF5F3"/>
<path d="M81.1666 42.8999C78.9575 42.8999 77.1666 41.109 77.1666 38.8999V21.8999C77.1666 19.6908 78.9575 17.8999 81.1666 17.8999V42.8999Z" fill="#6D46DE"/>
<path d="M77.1666 11.8V-0.199951H81.1666V7.80005C81.1666 10.0092 79.3758 11.8 77.1666 11.8Z" fill="#FAF5F3"/>
</g>
<path d="M98.0664 41.2126H96.5484V39.3646C96.5484 39.0713 96.5044 38.8879 96.4164 38.8146C96.3284 38.7266 96.1451 38.6826 95.8664 38.6826H94.6564C94.3631 38.6826 94.1724 38.7266 94.0844 38.8146C94.0111 38.8879 93.9744 39.0713 93.9744 39.3646V49.1106C93.9744 49.3893 94.0111 49.5726 94.0844 49.6606C94.1724 49.7486 94.3631 49.7926 94.6564 49.7926H95.8664C96.1451 49.7926 96.3284 49.7486 96.4164 49.6606C96.5044 49.5726 96.5484 49.3893 96.5484 49.1106V45.4806H95.4484V44.1826H98.0664V49.3526C98.0664 50.5113 97.4871 51.0906 96.3284 51.0906H94.1944C93.0358 51.0906 92.4564 50.5113 92.4564 49.3526V39.1226C92.4564 37.9639 93.0358 37.3846 94.1944 37.3846H96.3284C97.4871 37.3846 98.0664 37.9639 98.0664 39.1226V41.2126ZM100.258 37.3846H104.592C105.751 37.3846 106.33 37.9639 106.33 39.1226V49.3306C106.33 50.4893 105.751 51.0686 104.592 51.0686H100.258V37.3846ZM104.812 49.0886V39.3646C104.812 39.0713 104.768 38.8879 104.68 38.8146C104.592 38.7266 104.409 38.6826 104.13 38.6826H101.776V49.7706H104.13C104.409 49.7706 104.592 49.7339 104.68 49.6606C104.768 49.5726 104.812 49.3819 104.812 49.0886ZM108.637 37.3846H112.619C113.777 37.3846 114.357 37.9639 114.357 39.1226V43.8306C114.357 44.9893 113.777 45.5686 112.619 45.5686H110.133V51.0686H108.637V37.3846ZM112.861 43.5886V39.3646C112.861 39.0713 112.817 38.8879 112.729 38.8146C112.655 38.7266 112.472 38.6826 112.179 38.6826H110.133V44.2706H112.179C112.472 44.2706 112.655 44.2339 112.729 44.1606C112.817 44.0726 112.861 43.8819 112.861 43.5886ZM117.717 45.3486V51.0686H116.221V37.3846H120.203C121.361 37.3846 121.941 37.9639 121.941 39.1226V43.6106C121.941 44.6519 121.486 45.2239 120.577 45.3266L122.645 51.0686H121.017L119.015 45.3486H117.717ZM117.717 38.6826V44.0506H119.763C120.056 44.0506 120.239 44.0139 120.313 43.9406C120.401 43.8526 120.445 43.6619 120.445 43.3686V39.3646C120.445 39.0713 120.401 38.8879 120.313 38.8146C120.239 38.7266 120.056 38.6826 119.763 38.6826H117.717Z" fill="white"/>
<g clip-path="url(#clip8_186_42342)">
<path d="M154.167 0H166.167C166.167 2.20914 164.376 4 162.167 4H154.167V0Z" fill="#FAF5F3"/>
<path d="M172.267 4C172.267 1.79086 174.057 0 176.267 0H192.267C194.476 0 196.267 1.79086 196.267 4H172.267Z" fill="#6D46DE"/>
<path d="M202.367 0H215.367V4H206.367C204.157 4 202.367 2.20914 202.367 0Z" fill="#FAF5F3"/>
</g>
<g clip-path="url(#clip9_186_42342)">
<path d="M215.167 61H202.167C202.167 58.7909 203.957 57 206.167 57H215.167V61Z" fill="#FAF5F3"/>
<path d="M196.067 57C196.067 59.2091 194.276 61 192.067 61H176.067C173.857 61 172.067 59.2091 172.067 57H196.067Z" fill="#6D46DE"/>
<path d="M165.967 61H153.967V57H161.967C164.176 57 165.967 58.7909 165.967 61Z" fill="#FAF5F3"/>
</g>
<g clip-path="url(#clip10_186_42342)">
<path d="M215.167 0V12C212.957 12 211.167 10.2091 211.167 8V0L215.167 0Z" fill="#FAF5F3"/>
<path d="M211.167 18.1001C213.376 18.1001 215.167 19.891 215.167 22.1001V39.1001C215.167 41.3092 213.376 43.1001 211.167 43.1001V18.1001Z" fill="#6D46DE"/>
<path d="M215.167 49.2V61.2H211.167V53.2C211.167 50.9908 212.957 49.2 215.167 49.2Z" fill="#FAF5F3"/>
</g>
<g clip-path="url(#clip11_186_42342)">
<path d="M154.167 61V49C156.376 49 158.167 50.7909 158.167 53V61H154.167Z" fill="#FAF5F3"/>
<path d="M158.167 42.8999C155.957 42.8999 154.167 41.109 154.167 38.8999V21.8999C154.167 19.6908 155.957 17.8999 158.167 17.8999V42.8999Z" fill="#6D46DE"/>
<path d="M154.167 11.8V-0.199951H158.167V7.80005C158.167 10.0092 156.376 11.8 154.167 11.8Z" fill="#FAF5F3"/>
</g>
<path d="M175.754 41.4326H174.236V39.3646C174.236 39.0713 174.192 38.8879 174.104 38.8146C174.016 38.7266 173.833 38.6826 173.554 38.6826H172.344C172.051 38.6826 171.86 38.7266 171.772 38.8146C171.699 38.8879 171.662 39.0713 171.662 39.3646V49.1106C171.662 49.3893 171.699 49.5726 171.772 49.6606C171.86 49.7486 172.051 49.7926 172.344 49.7926H173.554C173.833 49.7926 174.016 49.7486 174.104 49.6606C174.192 49.5726 174.236 49.3893 174.236 49.1106V47.0426H175.754V49.3526C175.754 50.5113 175.175 51.0906 174.016 51.0906H171.882C170.723 51.0906 170.144 50.5113 170.144 49.3526V39.1226C170.144 37.9639 170.723 37.3846 171.882 37.3846H174.016C175.175 37.3846 175.754 37.9639 175.754 39.1226V41.4326ZM183.338 41.4326H181.82V39.3646C181.82 39.0713 181.776 38.8879 181.688 38.8146C181.6 38.7266 181.417 38.6826 181.138 38.6826H179.928C179.635 38.6826 179.444 38.7266 179.356 38.8146C179.283 38.8879 179.246 39.0713 179.246 39.3646V49.1106C179.246 49.3893 179.283 49.5726 179.356 49.6606C179.444 49.7486 179.635 49.7926 179.928 49.7926H181.138C181.417 49.7926 181.6 49.7486 181.688 49.6606C181.776 49.5726 181.82 49.3893 181.82 49.1106V47.0426H183.338V49.3526C183.338 50.5113 182.759 51.0906 181.6 51.0906H179.466C178.307 51.0906 177.728 50.5113 177.728 49.3526V39.1226C177.728 37.9639 178.307 37.3846 179.466 37.3846H181.6C182.759 37.3846 183.338 37.9639 183.338 39.1226V41.4326ZM185.422 37.3846H189.404C190.563 37.3846 191.142 37.9639 191.142 39.1226V43.8306C191.142 44.9893 190.563 45.5686 189.404 45.5686H186.918V51.0686H185.422V37.3846ZM189.646 43.5886V39.3646C189.646 39.0713 189.602 38.8879 189.514 38.8146C189.441 38.7266 189.257 38.6826 188.964 38.6826H186.918V44.2706H188.964C189.257 44.2706 189.441 44.2339 189.514 44.1606C189.602 44.0726 189.646 43.8819 189.646 43.5886ZM197.494 51.0686L196.922 47.5926H194.15L193.644 51.0686H192.126L194.26 37.3846H196.658L199.012 51.0686H197.494ZM194.326 46.2946H196.724L195.448 38.4406L194.326 46.2946Z" fill="white"/>
<defs>
<clipPath id="clip0_186_42342">
<rect width="61" height="6.1" fill="white" transform="translate(0.166626)"/>
</clipPath>
<clipPath id="clip1_186_42342">
<rect width="61" height="6.1" fill="white" transform="matrix(-1 0 0 -1 61.1666 61)"/>
</clipPath>
<clipPath id="clip2_186_42342">
<rect width="61" height="6.1" fill="white" transform="matrix(0 1 -1 0 61.1666 0)"/>
</clipPath>
<clipPath id="clip3_186_42342">
<rect width="61" height="6.1" fill="white" transform="matrix(0 -1 1 0 0.166626 61)"/>
</clipPath>
<clipPath id="clip4_186_42342">
<rect width="61" height="6.1" fill="white" transform="translate(77.1666)"/>
</clipPath>
<clipPath id="clip5_186_42342">
<rect width="61" height="6.1" fill="white" transform="matrix(-1 0 0 -1 138.167 61)"/>
</clipPath>
<clipPath id="clip6_186_42342">
<rect width="61" height="6.1" fill="white" transform="matrix(0 1 -1 0 138.167 0)"/>
</clipPath>
<clipPath id="clip7_186_42342">
<rect width="61" height="6.1" fill="white" transform="matrix(0 -1 1 0 77.1666 61)"/>
</clipPath>
<clipPath id="clip8_186_42342">
<rect width="61" height="6.1" fill="white" transform="translate(154.167)"/>
</clipPath>
<clipPath id="clip9_186_42342">
<rect width="61" height="6.1" fill="white" transform="matrix(-1 0 0 -1 215.167 61)"/>
</clipPath>
<clipPath id="clip10_186_42342">
<rect width="61" height="6.1" fill="white" transform="matrix(0 1 -1 0 215.167 0)"/>
</clipPath>
<clipPath id="clip11_186_42342">
<rect width="61" height="6.1" fill="white" transform="matrix(0 -1 1 0 154.167 61)"/>
</clipPath>
</defs>
</svg>
