<svg width="209" height="61" viewBox="0 0 209 61" fill="none" xmlns="http://www.w3.org/2000/svg">
<g clip-path="url(#clip0_274_10085)">
<path d="M0.214211 0H12.2142C12.2142 2.20914 10.4233 4 8.21421 4H0.214211V0Z" fill="#FAF5F3"/>
<path d="M18.3142 4C18.3142 1.79086 20.1051 0 22.3142 0H38.3142C40.5233 0 42.3142 1.79086 42.3142 4H18.3142Z" fill="#1CECFB"/>
<path d="M48.4142 0H61.4142V4H52.4142C50.2051 4 48.4142 2.20914 48.4142 0Z" fill="#FAF5F3"/>
</g>
<g clip-path="url(#clip1_274_10085)">
<path d="M61.2142 61H48.2142C48.2142 58.7909 50.0051 57 52.2142 57H61.2142V61Z" fill="#FAF5F3"/>
<path d="M42.1142 57C42.1142 59.2091 40.3233 61 38.1142 61H22.1142C19.9051 61 18.1142 59.2091 18.1142 57H42.1142Z" fill="#1CECFB"/>
<path d="M12.0142 61H0.0142059V57H8.01421C10.2233 57 12.0142 58.7909 12.0142 61Z" fill="#FAF5F3"/>
</g>
<g clip-path="url(#clip2_274_10085)">
<path d="M61.2142 0V12C59.0051 12 57.2142 10.2091 57.2142 8V0L61.2142 0Z" fill="#FAF5F3"/>
<path d="M57.2142 18.1001C59.4233 18.1001 61.2142 19.891 61.2142 22.1001V39.1001C61.2142 41.3092 59.4233 43.1001 57.2142 43.1001V18.1001Z" fill="#1CECFB"/>
<path d="M61.2142 49.2V61.2H57.2142V53.2C57.2142 50.9908 59.0051 49.2 61.2142 49.2Z" fill="#FAF5F3"/>
</g>
<g clip-path="url(#clip3_274_10085)">
<path d="M0.214211 61L0.214211 49C2.42335 49 4.21421 50.7909 4.21421 53V61H0.214211Z" fill="#FAF5F3"/>
<path d="M4.21421 42.8999C2.00507 42.8999 0.214211 41.109 0.214211 38.8999L0.214211 21.8999C0.214211 19.6908 2.00507 17.8999 4.21421 17.8999L4.21421 42.8999Z" fill="#1CECFB"/>
<path d="M0.214211 11.8L0.214211 -0.199951H4.21421L4.21421 7.80005C4.21421 10.0092 2.42335 11.8 0.214211 11.8Z" fill="#FAF5F3"/>
</g>
<path d="M32.5371 14.379H29.2134C29.0094 14.379 28.8441 14.2324 28.8441 14.0514V13.3962C28.8441 13.2153 29.0094 13.0686 29.2134 13.0686H32.5371C32.7411 13.0686 32.9064 13.2153 32.9064 13.3962V14.0514C32.9064 14.2324 32.7411 14.379 32.5371 14.379Z" fill="#FAF5F3"/>
<path d="M30.0643 19.9648L29.7638 17.5187C29.7384 17.3117 29.9176 17.1306 30.1478 17.1306H31.6027C31.833 17.1306 32.0122 17.3117 31.9867 17.5187L31.6862 19.9648C31.6645 20.1418 31.4991 20.2757 31.3021 20.2757H30.4483C30.2514 20.2757 30.086 20.1418 30.0643 19.9648Z" fill="#FAF5F3"/>
<path d="M30.6788 24.4132V22.8219C30.6788 22.6461 30.8157 22.5037 30.9846 22.5037H31.2903C31.4592 22.5037 31.5961 22.6461 31.5961 22.8219V24.4132C31.5961 24.5889 31.4592 24.7314 31.2903 24.7314H30.9846C30.8157 24.7314 30.6788 24.5889 30.6788 24.4132Z" fill="#FAF5F3"/>
<path d="M25.997 15.1381L22.9486 16.1902C22.7616 16.2548 22.5471 16.1808 22.4696 16.0249L22.189 15.4605C22.1115 15.3046 22.2004 15.1259 22.3874 15.0613L25.4358 14.0092C25.6229 13.9446 25.8373 14.0186 25.9148 14.1745L26.1954 14.739C26.2729 14.8948 26.184 15.0735 25.997 15.1381Z" fill="#FAF5F3"/>
<path d="M25.9675 20.4782L24.9501 18.207C24.864 18.0148 24.9329 17.7732 25.0979 17.6893L26.1396 17.1588C26.3045 17.0748 26.4921 17.1857 26.5418 17.3964L27.1287 19.8868C27.1712 20.067 27.0967 20.2576 26.9557 20.3294L26.3443 20.6407C26.2033 20.7125 26.041 20.6425 25.9675 20.4782Z" fill="#FAF5F3"/>
<path d="M27.8951 24.9277L27.1695 23.4582C27.0893 23.2959 27.1812 23.1097 27.3747 23.0425L27.7251 22.9207C27.9185 22.8536 28.1404 22.9307 28.2205 23.0929L28.9462 24.5625C29.0262 24.7248 28.9344 24.911 28.7408 24.9782L28.3905 25.1C28.197 25.1671 27.9752 25.0901 27.8951 24.9277Z" fill="#FAF5F3"/>
<path d="M20.7444 17.7359L18.4416 20.0386C18.3003 20.18 18.0712 20.18 17.9299 20.0386L17.4181 19.5269C17.2768 19.3856 17.2768 19.1565 17.4181 19.0151L19.7209 16.7124C19.8622 16.5711 20.0913 16.5711 20.2326 16.7124L20.7444 17.2241C20.8857 17.3655 20.8857 17.5946 20.7444 17.7359Z" fill="#FAF5F3"/>
<path d="M22.4962 22.8207L20.5876 21.2938C20.4261 21.1646 20.4127 20.9237 20.559 20.7774L21.483 19.8534C21.6293 19.7071 21.8702 19.7204 21.9994 19.8819L23.5263 21.7906C23.6368 21.9287 23.6258 22.1277 23.5008 22.2527L22.9584 22.7951C22.8334 22.9202 22.6343 22.9312 22.4962 22.8207Z" fill="#FAF5F3"/>
<path d="M26.279 26.33L25.0174 25.0683C24.878 24.929 24.878 24.7029 25.0174 24.5637L25.2698 24.3113C25.409 24.1719 25.635 24.1719 25.7743 24.3113L27.0361 25.573C27.1755 25.7123 27.1755 25.9383 27.0361 26.0776L26.7837 26.33C26.6444 26.4694 26.4184 26.4694 26.279 26.33Z" fill="#FAF5F3"/>
<path d="M16.3717 22.7668L15.3195 25.8152C15.255 26.0022 15.0763 26.091 14.9204 26.0136L14.3559 25.733C14.2001 25.6555 14.126 25.4411 14.1906 25.254L15.2427 22.2057C15.3073 22.0186 15.486 21.9298 15.6419 22.0073L16.2063 22.2878C16.3622 22.3653 16.4362 22.5797 16.3717 22.7668Z" fill="#FAF5F3"/>
<path d="M20.0684 26.9471L17.578 26.3601C17.3672 26.3104 17.2564 26.1228 17.3403 25.9579L17.8708 24.9162C17.9548 24.7513 18.1963 24.6823 18.3885 24.7684L20.6597 25.7858C20.824 25.8593 20.894 26.0217 20.8223 26.1626L20.5109 26.774C20.4391 26.915 20.2485 26.9895 20.0684 26.9471Z" fill="#FAF5F3"/>
<path d="M24.7443 28.7639L23.2747 28.0383C23.1124 27.9581 23.0353 27.7364 23.1025 27.5428L23.2243 27.1924C23.2915 26.9989 23.4776 26.9071 23.64 26.9872L25.1095 27.7128C25.2719 27.793 25.3489 28.0148 25.2817 28.2083L25.16 28.5587C25.0927 28.7521 24.9066 28.844 24.7443 28.7639Z" fill="#FAF5F3"/>
<path d="M14.5604 28.6388V31.9626C14.5604 32.1665 14.4137 32.3319 14.2328 32.3319H13.5776C13.3966 32.3319 13.25 32.1665 13.25 31.9626V28.6388C13.25 28.4349 13.3966 28.2695 13.5776 28.2695H14.2328C14.4137 28.2695 14.5604 28.4349 14.5604 28.6388Z" fill="#FAF5F3"/>
<path d="M20.1464 31.1116L17.7002 31.4121C17.4932 31.4376 17.3122 31.2584 17.3122 31.0281V29.5731C17.3122 29.3428 17.4932 29.1638 17.7002 29.1892L20.1464 29.4897C20.3233 29.5114 20.4572 29.6768 20.4572 29.8737V30.7275C20.4572 30.9245 20.3233 31.0898 20.1464 31.1116Z" fill="#FAF5F3"/>
<path d="M24.5945 31.0218H23.0033C22.8275 31.0218 22.685 30.8849 22.685 30.716V30.4103C22.685 30.2414 22.8275 30.1045 23.0033 30.1045H24.5945C24.7703 30.1045 24.9128 30.2414 24.9128 30.4103V30.716C24.9128 30.8849 24.7703 31.0218 24.5945 31.0218Z" fill="#FAF5F3"/>
<path d="M15.3195 35.1786L16.3717 38.227C16.4362 38.414 16.3622 38.6285 16.2063 38.706L15.6419 38.9865C15.486 39.064 15.3073 38.9752 15.2427 38.7881L14.1906 35.7397C14.126 35.5527 14.2001 35.3382 14.3559 35.2607L14.9204 34.9801C15.0763 34.9027 15.255 34.9915 15.3195 35.1786Z" fill="#FAF5F3"/>
<path d="M20.6597 35.2091L18.3885 36.2264C18.1963 36.3125 17.9548 36.2435 17.8708 36.0787L17.3403 35.0369C17.2564 34.8721 17.3672 34.6845 17.578 34.6347L20.0684 34.0478C20.2485 34.0053 20.4391 34.0798 20.5109 34.2208L20.8223 34.8322C20.894 34.9731 20.824 35.1355 20.6597 35.2091Z" fill="#FAF5F3"/>
<path d="M25.1095 33.2802L23.64 34.0058C23.4776 34.086 23.2915 33.9941 23.2243 33.8006L23.1025 33.4502C23.0353 33.2567 23.1124 33.0349 23.2747 32.9547L24.7443 32.2291C24.9066 32.149 25.0927 32.2409 25.16 32.4343L25.2817 32.7847C25.3489 32.9782 25.2719 33.2 25.1095 33.2802Z" fill="#FAF5F3"/>
<path d="M18.4416 40.9558L20.7444 43.2586C20.8857 43.3999 20.8857 43.629 20.7444 43.7704L20.2326 44.2821C20.0913 44.4233 19.8622 44.4233 19.7209 44.2821L17.4181 41.9793C17.2768 41.838 17.2768 41.6089 17.4181 41.4676L17.9299 40.9558C18.0712 40.8145 18.3003 40.8145 18.4416 40.9558Z" fill="#FAF5F3"/>
<path d="M23.5263 39.2041L21.9994 41.1127C21.8702 41.2742 21.6293 41.2876 21.483 41.1413L20.559 40.2172C20.4127 40.071 20.4261 39.8301 20.5876 39.7009L22.4962 38.1739C22.6343 38.0635 22.8334 38.0745 22.9584 38.1996L23.5007 38.7419C23.6258 38.8669 23.6368 39.0659 23.5263 39.2041Z" fill="#FAF5F3"/>
<path d="M27.0362 35.4206L25.7744 36.6823C25.635 36.8217 25.409 36.8217 25.2697 36.6823L25.0174 36.43C24.878 36.2907 24.878 36.0647 25.0174 35.9253L26.2791 34.6635C26.4185 34.5243 26.6444 34.5243 26.7838 34.6635L27.0362 34.9159C27.1754 35.0553 27.1754 35.2812 27.0362 35.4206Z" fill="#FAF5F3"/>
<path d="M22.9486 44.8046L25.997 45.8567C26.184 45.9213 26.2729 46.1 26.1954 46.2558L25.9147 46.8203C25.8372 46.9762 25.6228 47.0502 25.4357 46.9857L22.3874 45.9335C22.2004 45.8689 22.1115 45.6903 22.189 45.5344L22.4696 44.9699C22.5471 44.814 22.7616 44.74 22.9486 44.8046Z" fill="#FAF5F3"/>
<path d="M27.1287 41.1074L26.5417 43.5978C26.4921 43.8085 26.3044 43.9195 26.1395 43.8354L25.0978 43.305C24.9329 43.2211 24.864 42.9795 24.9501 42.7873L25.9674 40.5161C26.0411 40.3517 26.2034 40.2818 26.3444 40.3535L26.9557 40.6648C27.0967 40.7367 27.1712 40.9273 27.1287 41.1074Z" fill="#FAF5F3"/>
<path d="M28.9461 36.8251L28.2205 38.2947C28.1403 38.457 27.9185 38.5341 27.725 38.4669L27.3747 38.3451C27.1812 38.2779 27.0893 38.0918 27.1694 37.9295L27.895 36.4599C27.9752 36.2976 28.197 36.2205 28.3905 36.2877L28.7409 36.4094C28.9344 36.4767 29.0263 36.6628 28.9461 36.8251Z" fill="#FAF5F3"/>
<path d="M29.2134 46.615H32.5371C32.7411 46.615 32.9064 46.7617 32.9064 46.9426V47.5978C32.9064 47.7788 32.7411 47.9254 32.5371 47.9254H29.2134C29.0094 47.9254 28.8441 47.7788 28.8441 47.5978V46.9426C28.8441 46.7617 29.0094 46.615 29.2134 46.615Z" fill="#FAF5F3"/>
<path d="M31.2931 41.5541L31.5936 44.0002C31.619 44.2072 31.4398 44.3882 31.2095 44.3882H29.7546C29.5243 44.3882 29.3452 44.2072 29.3707 44.0002L29.6712 41.5541C29.6929 41.3771 29.8583 41.2432 30.0552 41.2432H30.909C31.106 41.2432 31.2713 41.3771 31.2931 41.5541Z" fill="#FAF5F3"/>
<path d="M31.5961 36.5817V38.1729C31.5961 38.3487 31.4592 38.4912 31.2903 38.4912H30.9846C30.8157 38.4912 30.6788 38.3487 30.6788 38.1729V36.5817C30.6788 36.4059 30.8157 36.2634 30.9846 36.2634H31.2903C31.4592 36.2634 31.5961 36.4059 31.5961 36.5817Z" fill="#FAF5F3"/>
<path d="M35.3607 45.8567L38.409 44.8045C38.5961 44.74 38.8105 44.8141 38.888 44.9699L39.1686 45.5344C39.246 45.6903 39.1572 45.869 38.9701 45.9335L35.9218 46.9856C35.7347 47.0502 35.5203 46.9762 35.4428 46.8203L35.1623 46.2559C35.0848 46.1 35.1736 45.9213 35.3607 45.8567Z" fill="#FAF5F3"/>
<path d="M35.9143 40.516L36.9316 42.7873C37.0177 42.9795 36.9488 43.221 36.7838 43.305L35.7421 43.8355C35.5772 43.9194 35.3896 43.8085 35.3399 43.5978L34.753 41.1074C34.7105 40.9273 34.785 40.7367 34.926 40.6648L35.5374 40.3535C35.6784 40.2818 35.8407 40.3517 35.9143 40.516Z" fill="#FAF5F3"/>
<path d="M33.4623 36.4599L34.1879 37.9294C34.2681 38.0918 34.1762 38.2779 33.9827 38.3451L33.6323 38.4669C33.4389 38.5341 33.217 38.457 33.1368 38.2947L32.4112 36.8252C32.3312 36.6628 32.423 36.4767 32.6166 36.4095L32.9668 36.2877C33.1604 36.2205 33.3821 36.2976 33.4623 36.4599Z" fill="#FAF5F3"/>
<path d="M41.1372 43.2586L43.44 40.9558C43.5814 40.8145 43.8105 40.8145 43.9518 40.9558L44.4634 41.4676C44.6048 41.6089 44.6048 41.838 44.4634 41.9794L42.1608 44.282C42.0194 44.4234 41.7903 44.4234 41.649 44.282L41.1372 43.7704C40.9959 43.6291 40.9959 43.4 41.1372 43.2586Z" fill="#FAF5F3"/>
<path d="M39.3853 38.174L41.294 39.7008C41.4555 39.83 41.4688 40.071 41.3225 40.2172L40.3985 41.1413C40.2522 41.2875 40.0114 41.2742 39.8821 41.1127L38.3552 39.2041C38.2447 39.066 38.2557 38.8669 38.3808 38.7419L38.9232 38.1995C39.0482 38.0745 39.2472 38.0635 39.3853 38.174Z" fill="#FAF5F3"/>
<path d="M35.6027 34.6636L36.8643 35.9253C37.0037 36.0646 37.0037 36.2907 36.8643 36.4299L36.6119 36.6823C36.4727 36.8217 36.2467 36.8217 36.1074 36.6823L34.8456 35.4207C34.7062 35.2813 34.7062 35.0553 34.8456 34.916L35.098 34.6636C35.2373 34.5242 35.4633 34.5242 35.6027 34.6636Z" fill="#FAF5F3"/>
<path d="M44.9859 38.2269L46.038 35.1786C46.1025 34.9915 46.2813 34.9027 46.4372 34.9802L47.0016 35.2607C47.1575 35.3382 47.2315 35.5526 47.1669 35.7397L46.1148 38.788C46.0503 38.9751 45.8715 39.0639 45.7157 38.9865L45.1512 38.7059C44.9954 38.6284 44.9213 38.414 44.9859 38.2269Z" fill="#FAF5F3"/>
<path d="M41.2889 34.0478L43.7793 34.6347C43.9901 34.6844 44.101 34.872 44.017 35.0369L43.4865 36.0786C43.4026 36.2436 43.1611 36.3125 42.9688 36.2264L40.6976 35.209C40.5333 35.1355 40.4633 34.9732 40.5351 34.8322L40.8464 34.2208C40.9182 34.0798 41.1089 34.0053 41.2889 34.0478Z" fill="#FAF5F3"/>
<path d="M37.0062 32.2291L38.4758 32.9547C38.6381 33.0349 38.7152 33.2568 38.6479 33.4502L38.5262 33.8006C38.459 33.9941 38.2729 34.086 38.1106 34.0058L36.641 33.2802C36.4787 33.2 36.4016 32.9782 36.4688 32.7847L36.5905 32.4344C36.6578 32.2409 36.844 32.149 37.0062 32.2291Z" fill="#FAF5F3"/>
<path d="M46.7971 32.3554V29.0317C46.7971 28.8277 46.9437 28.6624 47.1247 28.6624H47.7799C47.9608 28.6624 48.1075 28.8277 48.1075 29.0317V32.3554C48.1075 32.5594 47.9608 32.7247 47.7799 32.7247H47.1247C46.9437 32.7247 46.7971 32.5594 46.7971 32.3554Z" fill="#FAF5F3"/>
<path d="M41.7352 29.8823L44.1814 29.5818C44.3883 29.5563 44.5694 29.7354 44.5694 29.9657V31.4207C44.5694 31.651 44.3883 31.8301 44.1814 31.8047L41.7352 31.5042C41.5582 31.4824 41.4243 31.3171 41.4243 31.1201V30.2663C41.4243 30.0694 41.5582 29.904 41.7352 29.8823Z" fill="#FAF5F3"/>
<path d="M36.7628 30.1045H38.354C38.5298 30.1045 38.6723 30.2414 38.6723 30.4103V30.716C38.6723 30.8849 38.5298 31.0218 38.354 31.0218H36.7628C36.587 31.0218 36.4445 30.8849 36.4445 30.716V30.4103C36.4445 30.2414 36.587 30.1045 36.7628 30.1045Z" fill="#FAF5F3"/>
<path d="M46.038 25.8151L44.9859 22.7668C44.9213 22.5797 44.9954 22.3653 45.1512 22.2878L45.7157 22.0073C45.8715 21.9298 46.0503 22.0186 46.1149 22.2057L47.1669 25.254C47.2315 25.4411 47.1575 25.6555 47.0016 25.733L46.4372 26.0136C46.2813 26.091 46.1025 26.0022 46.038 25.8151Z" fill="#FAF5F3"/>
<path d="M40.6976 25.7858L42.9688 24.7684C43.1611 24.6823 43.4026 24.7513 43.4865 24.9162L44.017 25.9579C44.101 26.1228 43.9901 26.3104 43.7793 26.3601L41.2889 26.9471C41.1089 26.9895 40.9182 26.915 40.8464 26.774L40.5351 26.1626C40.4633 26.0217 40.5333 25.8593 40.6976 25.7858Z" fill="#FAF5F3"/>
<path d="M36.641 27.7128L38.1106 26.9872C38.2729 26.9071 38.459 26.9989 38.5262 27.1924L38.6479 27.5428C38.7152 27.7364 38.6381 27.9581 38.4758 28.0383L37.0062 28.7639C36.844 28.844 36.6578 28.7521 36.5905 28.5587L36.4688 28.2083C36.4016 28.0148 36.4787 27.793 36.641 27.7128Z" fill="#FAF5F3"/>
<path d="M43.44 20.0386L41.1372 17.7359C40.9959 17.5946 40.9959 17.3654 41.1372 17.2241L41.649 16.7124C41.7903 16.5711 42.0194 16.5711 42.1607 16.7124L44.4635 19.0151C44.6047 19.1565 44.6047 19.3856 44.4635 19.5269L43.9518 20.0386C43.8104 20.18 43.5813 20.18 43.44 20.0386Z" fill="#FAF5F3"/>
<path d="M38.3552 21.7906L39.8821 19.882C40.0114 19.7205 40.2522 19.7071 40.3985 19.8533L41.3225 20.7774C41.4688 20.9237 41.4555 21.1645 41.294 21.2937L39.3853 22.8207C39.2472 22.9312 39.0482 22.9202 38.9232 22.795L38.3808 22.2528C38.2557 22.1277 38.2447 21.9287 38.3552 21.7906Z" fill="#FAF5F3"/>
<path d="M34.8455 25.573L36.1073 24.3113C36.2467 24.1719 36.4727 24.1719 36.612 24.3113L36.8643 24.5636C37.0037 24.703 37.0037 24.9289 36.8643 25.0683L35.6026 26.3301C35.4632 26.4693 35.2373 26.4693 35.0979 26.3301L34.8455 26.0777C34.7063 25.9383 34.7063 25.7124 34.8455 25.573Z" fill="#FAF5F3"/>
<path d="M38.409 16.1902L35.3607 15.1381C35.1736 15.0735 35.0848 14.8948 35.1622 14.739L35.4428 14.1745C35.5203 14.0186 35.7347 13.9446 35.9218 14.0092L38.9701 15.0613C39.1572 15.1259 39.246 15.3046 39.1686 15.4605L38.888 16.0249C38.8105 16.1808 38.5961 16.2548 38.409 16.1902Z" fill="#FAF5F3"/>
<path d="M34.753 19.8868L35.3399 17.3964C35.3896 17.1857 35.5772 17.0748 35.7421 17.1588L36.7838 17.6893C36.9488 17.7732 37.0177 18.0148 36.9316 18.2069L35.9143 20.4781C35.8407 20.6425 35.6783 20.7125 35.5374 20.6407L34.926 20.3294C34.785 20.2576 34.7105 20.067 34.753 19.8868Z" fill="#FAF5F3"/>
<path d="M32.4112 24.5625L33.1368 23.093C33.217 22.9306 33.4388 22.8535 33.6323 22.9208L33.9827 23.0425C34.1762 23.1098 34.2681 23.2958 34.1879 23.4582L33.4623 24.9278C33.3821 25.0901 33.1604 25.1672 32.9668 25.0999L32.6166 24.9782C32.423 24.9109 32.3312 24.7249 32.4112 24.5625Z" fill="#FAF5F3"/>
<path d="M135.953 30.6198C136.295 30.2775 136.295 29.7225 135.953 29.3802L130.375 23.8019C130.033 23.4596 129.478 23.4596 129.135 23.8019C128.793 24.1443 128.793 24.6993 129.135 25.0416L134.094 30L129.135 34.9584C128.793 35.3007 128.793 35.8557 129.135 36.1981C129.478 36.5404 130.033 36.5404 130.375 36.1981L135.953 30.6198ZM72.4523 30.8765H74.199V29.1235H72.4523V30.8765ZM77.6924 30.8765H81.1858V29.1235H77.6924V30.8765ZM84.6792 30.8765H88.1725V29.1235H84.6792V30.8765ZM91.6659 30.8765H95.1593V29.1235H91.6659V30.8765ZM98.6527 30.8765H102.146V29.1235H98.6527V30.8765ZM105.639 30.8765H109.133V29.1235H105.639V30.8765ZM112.626 30.8765H116.12V29.1235H112.626V30.8765ZM119.613 30.8765H123.106V29.1235H119.613V30.8765ZM126.6 30.8765H130.093V29.1235H126.6V30.8765ZM133.587 30.8765H135.333V29.1235H133.587V30.8765Z" fill="#FAF5F3"/>
<g clip-path="url(#clip4_274_10085)">
<path d="M147.452 0H159.452C159.452 2.20914 157.661 4 155.452 4H147.452V0Z" fill="#FAF5F3"/>
<path d="M165.552 4C165.552 1.79086 167.343 0 169.552 0H185.552C187.761 0 189.552 1.79086 189.552 4H165.552Z" fill="#FAF5F3"/>
<path d="M195.652 0H208.652V4H199.652C197.443 4 195.652 2.20914 195.652 0Z" fill="#FAF5F3"/>
</g>
<g clip-path="url(#clip5_274_10085)">
<path d="M208.452 61H195.452C195.452 58.7909 197.243 57 199.452 57H208.452V61Z" fill="#FAF5F3"/>
<path d="M189.352 57C189.352 59.2091 187.561 61 185.352 61H169.352C167.143 61 165.352 59.2091 165.352 57H189.352Z" fill="#FAF5F3"/>
<path d="M159.252 61H147.252V57H155.252C157.461 57 159.252 58.7909 159.252 61Z" fill="#FAF5F3"/>
</g>
<g clip-path="url(#clip6_274_10085)">
<path d="M208.452 0V12C206.243 12 204.452 10.2091 204.452 8V0L208.452 0Z" fill="#FAF5F3"/>
<path d="M204.452 18.1001C206.661 18.1001 208.452 19.891 208.452 22.1001V39.1001C208.452 41.3092 206.661 43.1001 204.452 43.1001V18.1001Z" fill="#FAF5F3"/>
<path d="M208.452 49.2V61.2H204.452V53.2C204.452 50.9908 206.243 49.2 208.452 49.2Z" fill="#FAF5F3"/>
</g>
<g clip-path="url(#clip7_274_10085)">
<path d="M147.452 61V49C149.661 49 151.452 50.7909 151.452 53V61H147.452Z" fill="#FAF5F3"/>
<path d="M151.452 42.8999C149.243 42.8999 147.452 41.109 147.452 38.8999V21.8999C147.452 19.6908 149.243 17.8999 151.452 17.8999V42.8999Z" fill="#FAF5F3"/>
<path d="M147.452 11.8V-0.199951H151.452V7.80005C151.452 10.0092 149.661 11.8 147.452 11.8Z" fill="#FAF5F3"/>
</g>
<g clip-path="url(#clip8_274_10085)">
<path d="M170.277 17C167.482 17 165.214 19.2676 165.214 22.0625V38.9375C165.214 41.7324 167.482 44 170.277 44H185.464H187.152C188.085 44 188.839 43.2459 188.839 42.3125C188.839 41.3791 188.085 40.625 187.152 40.625V37.25C188.085 37.25 188.839 36.4959 188.839 35.5625V18.6875C188.839 17.7541 188.085 17 187.152 17H185.464H170.277ZM170.277 37.25H183.777V40.625H170.277C169.343 40.625 168.589 39.8709 168.589 38.9375C168.589 38.0041 169.343 37.25 170.277 37.25ZM171.964 24.5938C171.964 24.1297 172.344 23.75 172.808 23.75H182.933C183.397 23.75 183.777 24.1297 183.777 24.5938C183.777 25.0578 183.397 25.4375 182.933 25.4375H172.808C172.344 25.4375 171.964 25.0578 171.964 24.5938ZM172.808 27.125H182.933C183.397 27.125 183.777 27.5047 183.777 27.9688C183.777 28.4328 183.397 28.8125 182.933 28.8125H172.808C172.344 28.8125 171.964 28.4328 171.964 27.9688C171.964 27.5047 172.344 27.125 172.808 27.125Z" fill="white"/>
</g>
<defs>
<clipPath id="clip0_274_10085">
<rect width="61" height="6.1" fill="white" transform="translate(0.214211)"/>
</clipPath>
<clipPath id="clip1_274_10085">
<rect width="61" height="6.1" fill="white" transform="matrix(-1 0 0 -1 61.2142 61)"/>
</clipPath>
<clipPath id="clip2_274_10085">
<rect width="61" height="6.1" fill="white" transform="matrix(0 1 -1 0 61.2142 0)"/>
</clipPath>
<clipPath id="clip3_274_10085">
<rect width="61" height="6.1" fill="white" transform="matrix(0 -1 1 0 0.214211 61)"/>
</clipPath>
<clipPath id="clip4_274_10085">
<rect width="61" height="6.1" fill="white" transform="translate(147.452)"/>
</clipPath>
<clipPath id="clip5_274_10085">
<rect width="61" height="6.1" fill="white" transform="matrix(-1 0 0 -1 208.452 61)"/>
</clipPath>
<clipPath id="clip6_274_10085">
<rect width="61" height="6.1" fill="white" transform="matrix(0 1 -1 0 208.452 0)"/>
</clipPath>
<clipPath id="clip7_274_10085">
<rect width="61" height="6.1" fill="white" transform="matrix(0 -1 1 0 147.452 61)"/>
</clipPath>
<clipPath id="clip8_274_10085">
<rect width="23.625" height="27" fill="white" transform="translate(165.214 17)"/>
</clipPath>
</defs>
</svg>
