<svg width="124" height="42" viewBox="0 0 124 42" fill="none" xmlns="http://www.w3.org/2000/svg">
<path d="M0.700012 0H9.10001V0C9.10001 2.3196 7.21961 4.2 4.90001 4.2H0.700012V0Z" fill="#FAF5F3"/>
<path d="M13.3 4.2C13.3 1.8804 15.1804 0 17.5 0H25.9C28.2196 0 30.1 1.8804 30.1 4.2V4.2H13.3V4.2Z" fill="#1CECFB"/>
<path d="M34.3 0H42.7V4.2H38.5C36.1804 4.2 34.3 2.3196 34.3 0V0Z" fill="#FAF5F3"/>
<path d="M42.7 42H34.3V42C34.3 39.6804 36.1804 37.8 38.5 37.8H42.7V42Z" fill="#FAF5F3"/>
<path d="M30.1 37.8C30.1 40.1196 28.2196 42 25.9 42H17.5C15.1804 42 13.3 40.1196 13.3 37.8V37.8H30.1V37.8Z" fill="#1CECFB"/>
<path d="M9.10001 42H0.700006V37.8H4.9C7.2196 37.8 9.10001 39.6804 9.10001 42V42Z" fill="#FAF5F3"/>
<path d="M42.7 0V8.4V8.4C40.3804 8.4 38.5 6.5196 38.5 4.2V0L42.7 0Z" fill="#FAF5F3"/>
<path d="M38.5 12.6001C40.8196 12.6001 42.7 14.4805 42.7 16.8001V25.2001C42.7 27.5197 40.8196 29.4001 38.5 29.4001V29.4001V12.6001V12.6001Z" fill="#1CECFB"/>
<path d="M42.7 33.6001V42.0001H38.5V37.8001C38.5 35.4805 40.3804 33.6001 42.7 33.6001V33.6001Z" fill="#FAF5F3"/>
<path d="M0.700012 42L0.700012 33.6V33.6C3.01961 33.6 4.90001 35.4804 4.90001 37.8V42H0.700012Z" fill="#FAF5F3"/>
<path d="M4.90001 29.3999C2.58042 29.3999 0.700012 27.5195 0.700012 25.1999L0.700012 16.7999C0.700012 14.4803 2.58042 12.5999 4.90001 12.5999V12.5999L4.90001 29.3999V29.3999Z" fill="#1CECFB"/>
<path d="M0.700012 8.3999L0.700012 -9.72748e-05H4.90001L4.90001 4.1999C4.90001 6.5195 3.01961 8.3999 0.700012 8.3999V8.3999Z" fill="#FAF5F3"/>
<g clip-path="url(#clip0_153_199569)">
<path d="M24.325 24.1501C27.5144 24.1501 30.1 21.5645 30.1 18.3751C30.1 15.1857 27.5144 12.6001 24.325 12.6001C21.1356 12.6001 18.55 15.1857 18.55 18.3751C18.55 18.9887 18.6452 19.5826 18.8224 20.1371L13.5297 25.4298C13.382 25.5774 13.3 25.7776 13.3 25.9876V28.6126C13.3 29.049 13.6511 29.4001 14.0875 29.4001H16.7125C17.1489 29.4001 17.5 29.049 17.5 28.6126V27.3001H18.8125C19.2489 27.3001 19.6 26.949 19.6 26.5126V25.2001H20.9125C21.1225 25.2001 21.3227 25.1181 21.4703 24.9704L22.563 23.8778C23.1175 24.0549 23.7114 24.1501 24.325 24.1501ZM25.6375 15.7501C25.9856 15.7501 26.3195 15.8884 26.5656 16.1345C26.8117 16.3807 26.95 16.7145 26.95 17.0626C26.95 17.4107 26.8117 17.7445 26.5656 17.9907C26.3195 18.2368 25.9856 18.3751 25.6375 18.3751C25.2894 18.3751 24.9556 18.2368 24.7094 17.9907C24.4633 17.7445 24.325 17.4107 24.325 17.0626C24.325 16.7145 24.4633 16.3807 24.7094 16.1345C24.9556 15.8884 25.2894 15.7501 25.6375 15.7501Z" fill="#FAF5F3"/>
</g>
<path d="M61.7211 26.306C59.8131 26.306 58.1571 25.784 56.7531 24.74V22.868C58.3011 24.044 59.9451 24.632 61.6851 24.632C63.7731 24.632 64.8171 23.936 64.8171 22.544C64.8171 22.076 64.6551 21.692 64.3311 21.392C64.0191 21.092 63.4491 20.822 62.6211 20.582L59.8491 19.898C57.7971 19.334 56.7711 18.266 56.7711 16.694C56.7711 15.626 57.2151 14.762 58.1031 14.102C58.9911 13.43 60.1911 13.094 61.7031 13.094C63.4551 13.094 64.9311 13.544 66.1311 14.444V16.298C64.9071 15.278 63.4251 14.768 61.6851 14.768C60.7011 14.768 59.9391 14.93 59.3991 15.254C58.8591 15.578 58.5891 16.028 58.5891 16.604C58.5891 17.012 58.7391 17.354 59.0391 17.63C59.3511 17.894 59.8551 18.122 60.5511 18.314L63.3591 19.034C64.5231 19.358 65.3631 19.802 65.8791 20.366C66.4071 20.918 66.6711 21.614 66.6711 22.454C66.6711 23.618 66.2271 24.554 65.3391 25.262C64.4511 25.958 63.2451 26.306 61.7211 26.306ZM78.5539 20.042V21.05H70.1659C70.2379 22.178 70.6459 23.066 71.3899 23.714C72.1339 24.35 73.1179 24.668 74.3419 24.668C75.0859 24.668 75.7999 24.536 76.4839 24.272C77.1679 24.008 77.7439 23.666 78.2119 23.246V24.884C77.6959 25.316 77.0719 25.658 76.3399 25.91C75.6079 26.15 74.8579 26.27 74.0899 26.27C72.4099 26.27 71.0359 25.76 69.9679 24.74C68.9119 23.708 68.3839 22.376 68.3839 20.744C68.3839 19.22 68.8699 17.942 69.8419 16.91C70.8259 15.866 72.1339 15.344 73.7659 15.344C75.2659 15.344 76.4359 15.758 77.2759 16.586C78.1279 17.402 78.5539 18.554 78.5539 20.042ZM73.6939 16.946C72.7219 16.946 71.9359 17.204 71.3359 17.72C70.7359 18.224 70.3639 18.896 70.2199 19.736H76.9159C76.8679 18.836 76.5619 18.146 75.9979 17.666C75.4459 17.186 74.6779 16.946 73.6939 16.946ZM86.0267 26.27C84.3107 26.27 82.9187 25.754 81.8507 24.722C80.7947 23.678 80.2667 22.37 80.2667 20.798C80.2667 19.226 80.8067 17.924 81.8867 16.892C82.9667 15.86 84.3767 15.344 86.1167 15.344C87.6527 15.344 88.9127 15.758 89.8967 16.586V18.35C88.8527 17.414 87.6287 16.946 86.2247 16.946C84.9527 16.946 83.9387 17.306 83.1827 18.026C82.4267 18.746 82.0487 19.664 82.0487 20.78C82.0487 21.908 82.4267 22.838 83.1827 23.57C83.9387 24.302 84.9827 24.668 86.3147 24.668C87.6467 24.668 88.8587 24.212 89.9507 23.3V24.938C88.8227 25.826 87.5147 26.27 86.0267 26.27ZM100.047 15.74H101.757V26H100.047V23.966C99.687 24.782 99.183 25.388 98.535 25.784C97.887 26.18 97.155 26.378 96.339 26.378C95.019 26.378 93.999 25.982 93.279 25.19C92.559 24.398 92.199 23.264 92.199 21.788V15.74H93.909V21.608C93.909 23.744 94.887 24.812 96.843 24.812C97.827 24.812 98.607 24.5 99.183 23.876C99.759 23.252 100.047 22.436 100.047 21.428V15.74ZM109.555 15.56C110.107 15.56 110.569 15.704 110.941 15.992V17.738C110.497 17.39 109.939 17.216 109.267 17.216C108.523 17.216 107.911 17.516 107.431 18.116C106.951 18.716 106.705 19.55 106.693 20.618V26H104.965V15.74H106.693V18.116C106.945 17.276 107.323 16.64 107.827 16.208C108.331 15.776 108.907 15.56 109.555 15.56ZM122.042 20.042V21.05H113.654C113.726 22.178 114.134 23.066 114.878 23.714C115.622 24.35 116.606 24.668 117.83 24.668C118.574 24.668 119.288 24.536 119.972 24.272C120.656 24.008 121.232 23.666 121.7 23.246V24.884C121.184 25.316 120.56 25.658 119.828 25.91C119.096 26.15 118.346 26.27 117.578 26.27C115.898 26.27 114.524 25.76 113.456 24.74C112.4 23.708 111.872 22.376 111.872 20.744C111.872 19.22 112.358 17.942 113.33 16.91C114.314 15.866 115.622 15.344 117.254 15.344C118.754 15.344 119.924 15.758 120.764 16.586C121.616 17.402 122.042 18.554 122.042 20.042ZM117.182 16.946C116.21 16.946 115.424 17.204 114.824 17.72C114.224 18.224 113.852 18.896 113.708 19.736H120.404C120.356 18.836 120.05 18.146 119.486 17.666C118.934 17.186 118.166 16.946 117.182 16.946Z" fill="#FAF5F3"/>
<defs>
<clipPath id="clip0_153_199569">
<rect x="13.3" y="12.6001" width="16.8" height="16.8" rx="1.12" fill="white"/>
</clipPath>
</defs>
</svg>
