<svg width="919" height="498" viewBox="0 0 919 498" fill="none" xmlns="http://www.w3.org/2000/svg">
<path d="M1.00764 30.992H917.964V481.409C917.964 489.756 911.197 496.524 902.849 496.524H16.1224C7.77475 496.524 1.00764 489.756 1.00764 481.409V30.992Z" fill="white" stroke="#25262B" stroke-width="2.01529"/>
<g clip-path="url(#clip0_337_33762)">
<path d="M1.00764 31.4139H917.964V480.494C917.964 488.841 911.197 495.608 902.849 495.608H16.1224C7.77475 495.608 1.00764 488.841 1.00764 480.494V31.4139Z" fill="white" stroke="#25262B" stroke-width="2.01529"/>
<g clip-path="url(#clip1_337_33762)">
<rect x="209" y="63.4434" width="670.603" height="455" rx="8.96557" fill="#F5F5F5"/>
<path d="M232.448 102.943L236.56 91.7434H238.304L242.416 102.943H240.704L237.424 93.6634L234.128 102.943H232.448ZM234.304 100.175L234.752 98.8954H240.016L240.464 100.175H234.304ZM243.932 102.943V94.8794H245.372L245.468 96.2554C245.724 95.7754 246.086 95.3967 246.556 95.1194C247.025 94.8314 247.564 94.6874 248.172 94.6874C248.812 94.6874 249.361 94.8154 249.82 95.0714C250.278 95.3274 250.636 95.7167 250.892 96.2394C251.148 96.7514 251.276 97.3967 251.276 98.1754V102.943H249.676V98.3354C249.676 97.5887 249.51 97.0234 249.18 96.6394C248.849 96.2554 248.369 96.0634 247.74 96.0634C247.324 96.0634 246.95 96.1647 246.62 96.3674C246.289 96.5594 246.022 96.8474 245.82 97.2314C245.628 97.6154 245.532 98.0847 245.532 98.6394V102.943H243.932ZM256.65 102.943C256.138 102.943 255.696 102.863 255.322 102.703C254.949 102.543 254.661 102.277 254.458 101.903C254.256 101.53 254.154 101.023 254.154 100.383V96.2394H252.762V94.8794H254.154L254.346 92.8634H255.754V94.8794H258.042V96.2394H255.754V100.399C255.754 100.858 255.85 101.173 256.042 101.343C256.234 101.503 256.565 101.583 257.034 101.583H257.962V102.943H256.65ZM259.919 102.943V94.8794H261.519V102.943H259.919ZM260.735 93.3594C260.425 93.3594 260.169 93.2634 259.967 93.0714C259.775 92.8794 259.679 92.634 259.679 92.3354C259.679 92.0474 259.775 91.8127 259.967 91.6314C260.169 91.4394 260.425 91.3434 260.735 91.3434C261.033 91.3434 261.284 91.4394 261.487 91.6314C261.689 91.8127 261.791 92.0474 261.791 92.3354C261.791 92.634 261.689 92.8794 261.487 93.0714C261.284 93.2634 261.033 93.3594 260.735 93.3594ZM263.903 98.8954V97.5514H270.367V98.8954H263.903ZM272.715 102.943V91.7434H274.603L278.395 99.3114L282.171 91.7434H284.075V102.943H282.475V94.5434L279.003 101.375H277.771L274.315 94.5594V102.943H272.715ZM290.002 103.135C289.245 103.135 288.562 102.959 287.954 102.607C287.357 102.255 286.882 101.765 286.53 101.135C286.189 100.495 286.018 99.7594 286.018 98.9274C286.018 98.074 286.194 97.3327 286.546 96.7034C286.898 96.0634 287.378 95.5674 287.986 95.2154C288.594 94.8634 289.277 94.6874 290.034 94.6874C290.802 94.6874 291.485 94.8634 292.082 95.2154C292.68 95.5674 293.149 96.058 293.49 96.6874C293.842 97.3167 294.018 98.058 294.018 98.9114C294.018 99.7647 293.842 100.506 293.49 101.135C293.149 101.765 292.674 102.255 292.066 102.607C291.458 102.959 290.77 103.135 290.002 103.135ZM290.002 101.759C290.44 101.759 290.834 101.653 291.186 101.439C291.549 101.226 291.837 100.911 292.05 100.495C292.274 100.069 292.386 99.5407 292.386 98.9114C292.386 98.282 292.28 97.7594 292.066 97.3434C291.853 96.9167 291.565 96.5967 291.202 96.3834C290.85 96.17 290.461 96.0634 290.034 96.0634C289.608 96.0634 289.213 96.17 288.85 96.3834C288.488 96.5967 288.194 96.9167 287.97 97.3434C287.757 97.7594 287.65 98.282 287.65 98.9114C287.65 99.5407 287.757 100.069 287.97 100.495C288.194 100.911 288.482 101.226 288.834 101.439C289.197 101.653 289.586 101.759 290.002 101.759ZM295.901 102.943V94.8794H297.341L297.437 96.2554C297.693 95.7754 298.055 95.3967 298.525 95.1194C298.994 94.8314 299.533 94.6874 300.141 94.6874C300.781 94.6874 301.33 94.8154 301.789 95.0714C302.247 95.3274 302.605 95.7167 302.861 96.2394C303.117 96.7514 303.245 97.3967 303.245 98.1754V102.943H301.645V98.3354C301.645 97.5887 301.479 97.0234 301.149 96.6394C300.818 96.2554 300.338 96.0634 299.709 96.0634C299.293 96.0634 298.919 96.1647 298.589 96.3674C298.258 96.5594 297.991 96.8474 297.789 97.2314C297.597 97.6154 297.501 98.0847 297.501 98.6394V102.943H295.901ZM308.939 103.135C308.171 103.135 307.488 102.959 306.891 102.607C306.294 102.255 305.824 101.765 305.483 101.135C305.152 100.506 304.987 99.7754 304.987 98.9434C304.987 98.09 305.152 97.3487 305.483 96.7194C305.824 96.0794 306.294 95.5834 306.891 95.2314C307.488 94.8687 308.182 94.6874 308.971 94.6874C309.76 94.6874 310.438 94.8634 311.003 95.2154C311.568 95.5674 312.006 96.0367 312.315 96.6234C312.624 97.1994 312.779 97.8394 312.779 98.5434C312.779 98.65 312.774 98.7674 312.763 98.8954C312.763 99.0127 312.758 99.146 312.747 99.2954H306.155V98.1594H311.179C311.147 97.4874 310.923 96.9647 310.507 96.5914C310.091 96.2074 309.574 96.0154 308.955 96.0154C308.518 96.0154 308.118 96.1167 307.755 96.3194C307.392 96.5114 307.099 96.7994 306.875 97.1834C306.662 97.5567 306.555 98.0314 306.555 98.6074V99.0554C306.555 99.6527 306.662 100.159 306.875 100.575C307.099 100.981 307.392 101.29 307.755 101.503C308.118 101.706 308.512 101.807 308.939 101.807C309.451 101.807 309.872 101.695 310.203 101.471C310.534 101.247 310.779 100.943 310.939 100.559H312.539C312.4 101.05 312.166 101.493 311.835 101.887C311.504 102.271 311.094 102.575 310.603 102.799C310.123 103.023 309.568 103.135 308.939 103.135ZM315.141 106.463L317.109 102.047H316.645L313.461 94.8794H315.189L317.717 100.735L320.261 94.8794H321.941L316.821 106.463H315.141ZM327.527 102.943V91.7434H329.127V101.679H334.247V102.943H327.527ZM338.713 103.135C338.052 103.135 337.502 103.023 337.065 102.799C336.628 102.575 336.302 102.277 336.089 101.903C335.876 101.519 335.769 101.109 335.769 100.671C335.769 100.138 335.908 99.6847 336.185 99.3114C336.462 98.9274 336.857 98.634 337.369 98.4314C337.881 98.2287 338.494 98.1274 339.209 98.1274H341.305C341.305 97.658 341.236 97.2687 341.097 96.9594C340.958 96.65 340.75 96.4207 340.473 96.2714C340.206 96.1114 339.865 96.0314 339.449 96.0314C338.969 96.0314 338.558 96.1487 338.217 96.3834C337.876 96.6074 337.662 96.9434 337.577 97.3914H335.977C336.041 96.826 336.233 96.346 336.553 95.9514C336.884 95.546 337.305 95.2367 337.817 95.0234C338.329 94.7994 338.873 94.6874 339.449 94.6874C340.206 94.6874 340.841 94.8207 341.353 95.0874C341.865 95.354 342.249 95.7327 342.505 96.2234C342.772 96.7034 342.905 97.2794 342.905 97.9514V102.943H341.513L341.385 101.583C341.268 101.797 341.129 101.999 340.969 102.191C340.809 102.383 340.617 102.549 340.393 102.687C340.18 102.826 339.929 102.933 339.641 103.007C339.364 103.093 339.054 103.135 338.713 103.135ZM339.017 101.839C339.358 101.839 339.668 101.77 339.945 101.631C340.222 101.493 340.457 101.306 340.649 101.071C340.852 100.826 341.001 100.554 341.097 100.255C341.204 99.946 341.262 99.6314 341.273 99.3114V99.2634H339.369C338.91 99.2634 338.537 99.322 338.249 99.4394C337.972 99.546 337.769 99.6954 337.641 99.8874C337.513 100.079 337.449 100.303 337.449 100.559C337.449 100.826 337.508 101.055 337.625 101.247C337.753 101.429 337.934 101.573 338.169 101.679C338.404 101.786 338.686 101.839 339.017 101.839ZM347.907 103.135C347.278 103.135 346.729 103.007 346.259 102.751C345.801 102.495 345.443 102.111 345.187 101.599C344.942 101.087 344.819 100.442 344.819 99.6634V94.8794H346.419V99.4874C346.419 100.245 346.585 100.815 346.915 101.199C347.246 101.583 347.721 101.775 348.339 101.775C348.755 101.775 349.129 101.674 349.459 101.471C349.801 101.269 350.067 100.975 350.259 100.591C350.451 100.207 350.547 99.738 350.547 99.1834V94.8794H352.147V102.943H350.723L350.611 101.567C350.366 102.058 350.009 102.442 349.539 102.719C349.07 102.997 348.526 103.135 347.907 103.135ZM354.338 102.943V94.8794H355.778L355.874 96.2554C356.13 95.7754 356.493 95.3967 356.962 95.1194C357.431 94.8314 357.97 94.6874 358.578 94.6874C359.218 94.6874 359.767 94.8154 360.226 95.0714C360.685 95.3274 361.042 95.7167 361.298 96.2394C361.554 96.7514 361.682 97.3967 361.682 98.1754V102.943H360.082V98.3354C360.082 97.5887 359.917 97.0234 359.586 96.6394C359.255 96.2554 358.775 96.0634 358.146 96.0634C357.73 96.0634 357.357 96.1647 357.026 96.3674C356.695 96.5594 356.429 96.8474 356.226 97.2314C356.034 97.6154 355.938 98.0847 355.938 98.6394V102.943H354.338ZM367.313 103.135C366.545 103.135 365.867 102.954 365.281 102.591C364.694 102.218 364.235 101.717 363.905 101.087C363.585 100.447 363.425 99.722 363.425 98.9114C363.425 98.09 363.585 97.3647 363.905 96.7354C364.235 96.106 364.694 95.61 365.281 95.2474C365.878 94.874 366.561 94.6874 367.329 94.6874C367.958 94.6874 368.513 94.8154 368.993 95.0714C369.473 95.3167 369.846 95.6687 370.113 96.1274V91.4234H371.713V102.943H370.273L370.113 101.695C369.953 101.941 369.745 102.175 369.489 102.399C369.233 102.613 368.923 102.789 368.561 102.927C368.198 103.066 367.782 103.135 367.313 103.135ZM367.569 101.743C368.07 101.743 368.513 101.626 368.897 101.391C369.281 101.157 369.574 100.826 369.777 100.399C369.99 99.9727 370.097 99.4767 370.097 98.9114C370.097 98.346 369.99 97.8554 369.777 97.4394C369.574 97.0127 369.281 96.682 368.897 96.4474C368.513 96.202 368.07 96.0794 367.569 96.0794C367.089 96.0794 366.657 96.202 366.273 96.4474C365.889 96.682 365.59 97.0127 365.377 97.4394C365.163 97.8554 365.057 98.346 365.057 98.9114C365.057 99.4767 365.163 99.9727 365.377 100.399C365.59 100.826 365.889 101.157 366.273 101.391C366.657 101.626 367.089 101.743 367.569 101.743ZM377.549 103.135C376.781 103.135 376.098 102.959 375.501 102.607C374.903 102.255 374.434 101.765 374.093 101.135C373.762 100.506 373.597 99.7754 373.597 98.9434C373.597 98.09 373.762 97.3487 374.093 96.7194C374.434 96.0794 374.903 95.5834 375.501 95.2314C376.098 94.8687 376.791 94.6874 377.581 94.6874C378.37 94.6874 379.047 94.8634 379.613 95.2154C380.178 95.5674 380.615 96.0367 380.925 96.6234C381.234 97.1994 381.389 97.8394 381.389 98.5434C381.389 98.65 381.383 98.7674 381.373 98.8954C381.373 99.0127 381.367 99.146 381.357 99.2954H374.765V98.1594H379.789C379.757 97.4874 379.533 96.9647 379.117 96.5914C378.701 96.2074 378.183 96.0154 377.565 96.0154C377.127 96.0154 376.727 96.1167 376.365 96.3194C376.002 96.5114 375.709 96.7994 375.485 97.1834C375.271 97.5567 375.164 98.0314 375.164 98.6074V99.0554C375.164 99.6527 375.271 100.159 375.485 100.575C375.709 100.981 376.002 101.29 376.365 101.503C376.727 101.706 377.122 101.807 377.549 101.807C378.061 101.807 378.482 101.695 378.813 101.471C379.143 101.247 379.389 100.943 379.549 100.559H381.149C381.01 101.05 380.775 101.493 380.445 101.887C380.114 102.271 379.703 102.575 379.213 102.799C378.733 103.023 378.178 103.135 377.549 103.135ZM383.166 102.943V94.8794H384.606L384.75 96.3994C384.931 96.0367 385.166 95.7327 385.454 95.4874C385.742 95.2314 386.078 95.034 386.462 94.8954C386.857 94.7567 387.305 94.6874 387.806 94.6874V96.3834H387.23C386.899 96.3834 386.585 96.426 386.286 96.5114C385.987 96.586 385.721 96.7194 385.486 96.9114C385.262 97.1034 385.086 97.3647 384.958 97.6954C384.83 98.026 384.766 98.4367 384.766 98.9274V102.943H383.166ZM389.388 102.943V94.8794H390.988V102.943H389.388ZM390.204 93.3594C389.894 93.3594 389.638 93.2634 389.436 93.0714C389.244 92.8794 389.148 92.634 389.148 92.3354C389.148 92.0474 389.244 91.8127 389.436 91.6314C389.638 91.4394 389.894 91.3434 390.204 91.3434C390.502 91.3434 390.753 91.4394 390.956 91.6314C391.158 91.8127 391.26 92.0474 391.26 92.3354C391.26 92.634 391.158 92.8794 390.956 93.0714C390.753 93.2634 390.502 93.3594 390.204 93.3594ZM393.276 102.943V94.8794H394.716L394.812 96.2554C395.068 95.7754 395.43 95.3967 395.9 95.1194C396.369 94.8314 396.908 94.6874 397.516 94.6874C398.156 94.6874 398.705 94.8154 399.164 95.0714C399.622 95.3274 399.98 95.7167 400.236 96.2394C400.492 96.7514 400.62 97.3967 400.62 98.1754V102.943H399.02V98.3354C399.02 97.5887 398.854 97.0234 398.524 96.6394C398.193 96.2554 397.713 96.0634 397.084 96.0634C396.668 96.0634 396.294 96.1647 395.964 96.3674C395.633 96.5594 395.366 96.8474 395.164 97.2314C394.972 97.6154 394.876 98.0847 394.876 98.6394V102.943H393.276ZM405.946 106.655C405.21 106.655 404.559 106.559 403.994 106.367C403.429 106.186 402.991 105.903 402.682 105.519C402.373 105.135 402.218 104.666 402.218 104.111C402.218 103.823 402.282 103.53 402.41 103.231C402.538 102.943 402.746 102.666 403.034 102.399C403.322 102.133 403.711 101.893 404.202 101.679L405.098 102.399C404.554 102.602 404.186 102.842 403.994 103.119C403.813 103.407 403.722 103.685 403.722 103.951C403.722 104.271 403.818 104.538 404.01 104.751C404.202 104.965 404.463 105.125 404.794 105.231C405.135 105.338 405.519 105.391 405.946 105.391C406.362 105.391 406.725 105.333 407.034 105.215C407.343 105.098 407.583 104.933 407.754 104.719C407.925 104.506 408.01 104.255 408.01 103.967C408.01 103.626 407.882 103.338 407.626 103.103C407.37 102.879 406.879 102.746 406.154 102.703C405.546 102.661 405.029 102.602 404.602 102.527C404.186 102.453 403.829 102.362 403.53 102.255C403.242 102.149 402.997 102.031 402.794 101.903C402.602 101.775 402.437 101.642 402.298 101.503V101.135L403.898 99.4874L405.194 99.9354L403.45 101.551L403.786 100.831C403.903 100.906 404.015 100.981 404.122 101.055C404.229 101.119 404.373 101.178 404.554 101.231C404.735 101.285 404.981 101.333 405.29 101.375C405.599 101.418 406.005 101.461 406.506 101.503C407.231 101.557 407.813 101.685 408.25 101.887C408.698 102.09 409.023 102.362 409.226 102.703C409.429 103.045 409.53 103.45 409.53 103.919C409.53 104.378 409.402 104.815 409.146 105.231C408.901 105.647 408.511 105.989 407.978 106.255C407.455 106.522 406.778 106.655 405.946 106.655ZM405.946 100.463C405.263 100.463 404.682 100.335 404.202 100.079C403.733 99.8234 403.37 99.4767 403.114 99.0394C402.869 98.602 402.746 98.1167 402.746 97.5834C402.746 97.0394 402.869 96.554 403.114 96.1274C403.37 95.69 403.738 95.3434 404.218 95.0874C404.698 94.8207 405.274 94.6874 405.946 94.6874C406.618 94.6874 407.189 94.8207 407.658 95.0874C408.138 95.3434 408.501 95.69 408.746 96.1274C409.002 96.554 409.13 97.0394 409.13 97.5834C409.13 98.1167 409.002 98.602 408.746 99.0394C408.501 99.4767 408.138 99.8234 407.658 100.079C407.189 100.335 406.618 100.463 405.946 100.463ZM405.946 99.1834C406.469 99.1834 406.885 99.05 407.194 98.7834C407.503 98.506 407.658 98.106 407.658 97.5834C407.658 97.0607 407.503 96.666 407.194 96.3994C406.885 96.122 406.469 95.9834 405.946 95.9834C405.423 95.9834 405.002 96.122 404.682 96.3994C404.362 96.666 404.202 97.0607 404.202 97.5834C404.202 98.106 404.362 98.506 404.682 98.7834C405.002 99.05 405.423 99.1834 405.946 99.1834ZM407.258 96.1434L406.874 94.8794H410.186V95.9834L407.258 96.1434ZM415.245 102.943L419.357 91.7434H421.101L425.213 102.943H423.501L420.221 93.6634L416.925 102.943H415.245ZM417.101 100.175L417.549 98.8954H422.813L423.261 100.175H417.101ZM429.849 103.135C429.166 103.135 428.569 103.023 428.057 102.799C427.545 102.575 427.139 102.261 426.841 101.855C426.542 101.45 426.361 100.975 426.297 100.431H427.929C427.982 100.687 428.083 100.922 428.233 101.135C428.393 101.349 428.606 101.519 428.873 101.647C429.15 101.775 429.475 101.839 429.849 101.839C430.201 101.839 430.489 101.791 430.713 101.695C430.947 101.589 431.118 101.45 431.225 101.279C431.331 101.098 431.385 100.906 431.385 100.703C431.385 100.405 431.31 100.181 431.161 100.031C431.022 99.8714 430.809 99.7487 430.521 99.6634C430.243 99.5674 429.907 99.482 429.513 99.4074C429.139 99.3434 428.777 99.258 428.425 99.1514C428.083 99.034 427.774 98.89 427.497 98.7194C427.23 98.5487 427.017 98.3354 426.857 98.0794C426.697 97.8127 426.617 97.4874 426.617 97.1034C426.617 96.6447 426.739 96.234 426.985 95.8714C427.23 95.498 427.577 95.21 428.025 95.0074C428.483 94.794 429.022 94.6874 429.641 94.6874C430.537 94.6874 431.257 94.9007 431.801 95.3274C432.345 95.754 432.665 96.3567 432.761 97.1354H431.209C431.166 96.7727 431.006 96.4954 430.729 96.3034C430.451 96.1007 430.083 95.9994 429.625 95.9994C429.166 95.9994 428.814 96.09 428.569 96.2714C428.323 96.4527 428.201 96.6927 428.201 96.9914C428.201 97.1834 428.27 97.354 428.409 97.5034C428.547 97.6527 428.75 97.7807 429.017 97.8874C429.294 97.9834 429.63 98.074 430.025 98.1594C430.59 98.266 431.097 98.3994 431.545 98.5594C431.993 98.7194 432.35 98.954 432.617 99.2634C432.883 99.5727 433.017 100.015 433.017 100.591C433.027 101.093 432.899 101.535 432.633 101.919C432.377 102.303 432.009 102.602 431.529 102.815C431.059 103.029 430.499 103.135 429.849 103.135ZM438.021 103.135C437.338 103.135 436.741 103.023 436.229 102.799C435.717 102.575 435.311 102.261 435.013 101.855C434.714 101.45 434.533 100.975 434.469 100.431H436.101C436.154 100.687 436.255 100.922 436.405 101.135C436.565 101.349 436.778 101.519 437.045 101.647C437.322 101.775 437.647 101.839 438.021 101.839C438.373 101.839 438.661 101.791 438.885 101.695C439.119 101.589 439.29 101.45 439.397 101.279C439.503 101.098 439.557 100.906 439.557 100.703C439.557 100.405 439.482 100.181 439.333 100.031C439.194 99.8714 438.981 99.7487 438.693 99.6634C438.415 99.5674 438.079 99.482 437.685 99.4074C437.311 99.3434 436.949 99.258 436.597 99.1514C436.255 99.034 435.946 98.89 435.669 98.7194C435.402 98.5487 435.189 98.3354 435.029 98.0794C434.869 97.8127 434.789 97.4874 434.789 97.1034C434.789 96.6447 434.911 96.234 435.157 95.8714C435.402 95.498 435.749 95.21 436.197 95.0074C436.655 94.794 437.194 94.6874 437.812 94.6874C438.709 94.6874 439.429 94.9007 439.973 95.3274C440.517 95.754 440.837 96.3567 440.933 97.1354H439.381C439.338 96.7727 439.178 96.4954 438.901 96.3034C438.623 96.1007 438.255 95.9994 437.797 95.9994C437.338 95.9994 436.986 96.09 436.741 96.2714C436.495 96.4527 436.373 96.6927 436.373 96.9914C436.373 97.1834 436.442 97.354 436.581 97.5034C436.719 97.6527 436.922 97.7807 437.189 97.8874C437.466 97.9834 437.802 98.074 438.197 98.1594C438.762 98.266 439.269 98.3994 439.717 98.5594C440.165 98.7194 440.522 98.954 440.789 99.2634C441.055 99.5727 441.189 100.015 441.189 100.591C441.199 101.093 441.071 101.535 440.805 101.919C440.549 102.303 440.181 102.602 439.701 102.815C439.231 103.029 438.671 103.135 438.021 103.135ZM443.184 102.943V94.8794H444.784V102.943H443.184ZM444 93.3594C443.691 93.3594 443.435 93.2634 443.232 93.0714C443.04 92.8794 442.944 92.634 442.944 92.3354C442.944 92.0474 443.04 91.8127 443.232 91.6314C443.435 91.4394 443.691 91.3434 444 91.3434C444.299 91.3434 444.55 91.4394 444.752 91.6314C444.955 91.8127 445.056 92.0474 445.056 92.3354C445.056 92.634 444.955 92.8794 444.752 93.0714C444.55 93.2634 444.299 93.3594 444 93.3594ZM450.192 103.135C449.51 103.135 448.912 103.023 448.4 102.799C447.888 102.575 447.483 102.261 447.184 101.855C446.886 101.45 446.704 100.975 446.64 100.431H448.272C448.326 100.687 448.427 100.922 448.576 101.135C448.736 101.349 448.95 101.519 449.216 101.647C449.494 101.775 449.819 101.839 450.192 101.839C450.544 101.839 450.832 101.791 451.056 101.695C451.291 101.589 451.462 101.45 451.568 101.279C451.675 101.098 451.728 100.906 451.728 100.703C451.728 100.405 451.654 100.181 451.504 100.031C451.366 99.8714 451.152 99.7487 450.864 99.6634C450.587 99.5674 450.251 99.482 449.856 99.4074C449.483 99.3434 449.12 99.258 448.768 99.1514C448.427 99.034 448.118 98.89 447.84 98.7194C447.574 98.5487 447.36 98.3354 447.2 98.0794C447.04 97.8127 446.96 97.4874 446.96 97.1034C446.96 96.6447 447.083 96.234 447.328 95.8714C447.574 95.498 447.92 95.21 448.368 95.0074C448.827 94.794 449.366 94.6874 449.984 94.6874C450.88 94.6874 451.6 94.9007 452.144 95.3274C452.688 95.754 453.008 96.3567 453.104 97.1354H451.552C451.51 96.7727 451.35 96.4954 451.072 96.3034C450.795 96.1007 450.427 95.9994 449.968 95.9994C449.51 95.9994 449.158 96.09 448.912 96.2714C448.667 96.4527 448.544 96.6927 448.544 96.9914C448.544 97.1834 448.614 97.354 448.752 97.5034C448.891 97.6527 449.094 97.7807 449.36 97.8874C449.638 97.9834 449.974 98.074 450.368 98.1594C450.934 98.266 451.44 98.3994 451.888 98.5594C452.336 98.7194 452.694 98.954 452.96 99.2634C453.227 99.5727 453.36 100.015 453.36 100.591C453.371 101.093 453.243 101.535 452.976 101.919C452.72 102.303 452.352 102.602 451.872 102.815C451.403 103.029 450.843 103.135 450.192 103.135ZM458.244 102.943C457.732 102.943 457.289 102.863 456.916 102.703C456.543 102.543 456.255 102.277 456.052 101.903C455.849 101.53 455.748 101.023 455.748 100.383V96.2394H454.356V94.8794H455.748L455.94 92.8634H457.348V94.8794H459.636V96.2394H457.348V100.399C457.348 100.858 457.444 101.173 457.636 101.343C457.828 101.503 458.159 101.583 458.628 101.583H459.556V102.943H458.244ZM464.073 103.135C463.411 103.135 462.862 103.023 462.424 102.799C461.987 102.575 461.662 102.277 461.449 101.903C461.235 101.519 461.129 101.109 461.129 100.671C461.129 100.138 461.267 99.6847 461.545 99.3114C461.822 98.9274 462.217 98.634 462.729 98.4314C463.241 98.2287 463.854 98.1274 464.569 98.1274H466.665C466.665 97.658 466.595 97.2687 466.457 96.9594C466.318 96.65 466.11 96.4207 465.833 96.2714C465.566 96.1114 465.225 96.0314 464.809 96.0314C464.329 96.0314 463.918 96.1487 463.577 96.3834C463.235 96.6074 463.022 96.9434 462.937 97.3914H461.337C461.401 96.826 461.593 96.346 461.913 95.9514C462.243 95.546 462.665 95.2367 463.177 95.0234C463.689 94.7994 464.233 94.6874 464.809 94.6874C465.566 94.6874 466.201 94.8207 466.713 95.0874C467.225 95.354 467.609 95.7327 467.865 96.2234C468.131 96.7034 468.265 97.2794 468.265 97.9514V102.943H466.873L466.745 101.583C466.627 101.797 466.489 101.999 466.329 102.191C466.169 102.383 465.977 102.549 465.753 102.687C465.539 102.826 465.289 102.933 465.001 103.007C464.723 103.093 464.414 103.135 464.073 103.135ZM464.377 101.839C464.718 101.839 465.027 101.77 465.305 101.631C465.582 101.493 465.817 101.306 466.009 101.071C466.211 100.826 466.361 100.554 466.457 100.255C466.563 99.946 466.622 99.6314 466.633 99.3114V99.2634H464.729C464.27 99.2634 463.897 99.322 463.609 99.4394C463.331 99.546 463.129 99.6954 463.001 99.8874C462.873 100.079 462.809 100.303 462.809 100.559C462.809 100.826 462.867 101.055 462.985 101.247C463.113 101.429 463.294 101.573 463.529 101.679C463.763 101.786 464.046 101.839 464.377 101.839ZM470.307 102.943V94.8794H471.747L471.843 96.2554C472.099 95.7754 472.461 95.3967 472.931 95.1194C473.4 94.8314 473.939 94.6874 474.547 94.6874C475.187 94.6874 475.736 94.8154 476.195 95.0714C476.653 95.3274 477.011 95.7167 477.267 96.2394C477.523 96.7514 477.651 97.3967 477.651 98.1754V102.943H476.051V98.3354C476.051 97.5887 475.885 97.0234 475.555 96.6394C475.224 96.2554 474.744 96.0634 474.115 96.0634C473.699 96.0634 473.325 96.1647 472.995 96.3674C472.664 96.5594 472.397 96.8474 472.195 97.2314C472.003 97.6154 471.907 98.0847 471.907 98.6394V102.943H470.307ZM483.025 102.943C482.513 102.943 482.071 102.863 481.697 102.703C481.324 102.543 481.036 102.277 480.833 101.903C480.631 101.53 480.529 101.023 480.529 100.383V96.2394H479.137V94.8794H480.529L480.721 92.8634H482.129V94.8794H484.417V96.2394H482.129V100.399C482.129 100.858 482.225 101.173 482.417 101.343C482.609 101.503 482.94 101.583 483.409 101.583H484.337V102.943H483.025Z" fill="#25262B"/>
<path d="M636.392 126.443L639.99 116.643H641.516L645.114 126.443H643.616L640.746 118.323L637.862 126.443H636.392ZM638.016 124.021L638.408 122.901H643.014L643.406 124.021H638.016ZM646.51 126.443V116.643H647.91V126.443H646.51ZM653.538 126.443V116.643H656.856C657.63 116.643 658.265 116.774 658.76 117.035C659.254 117.297 659.618 117.647 659.852 118.085C660.094 118.515 660.216 119.005 660.216 119.555C660.216 120.078 660.094 120.563 659.852 121.011C659.618 121.45 659.25 121.805 658.746 122.075C658.242 122.337 657.598 122.467 656.814 122.467H654.938V126.443H653.538ZM658.69 126.443L656.576 122.089H658.116L660.314 126.443H658.69ZM654.938 121.403H656.758C657.448 121.403 657.957 121.235 658.284 120.899C658.61 120.554 658.774 120.115 658.774 119.583C658.774 119.042 658.615 118.613 658.298 118.295C657.98 117.978 657.467 117.819 656.758 117.819H654.938V121.403ZM664.726 126.611C664.054 126.611 663.457 126.457 662.934 126.149C662.411 125.841 662.001 125.412 661.702 124.861C661.413 124.311 661.268 123.671 661.268 122.943C661.268 122.197 661.413 121.548 661.702 120.997C662.001 120.437 662.411 120.003 662.934 119.695C663.457 119.378 664.063 119.219 664.754 119.219C665.445 119.219 666.037 119.373 666.532 119.681C667.027 119.989 667.409 120.4 667.68 120.913C667.951 121.417 668.086 121.977 668.086 122.593C668.086 122.687 668.081 122.789 668.072 122.901C668.072 123.004 668.067 123.121 668.058 123.251H662.29V122.257H666.686C666.658 121.669 666.462 121.212 666.098 120.885C665.734 120.549 665.281 120.381 664.74 120.381C664.357 120.381 664.007 120.47 663.69 120.647C663.373 120.815 663.116 121.067 662.92 121.403C662.733 121.73 662.64 122.145 662.64 122.649V123.041C662.64 123.564 662.733 124.007 662.92 124.371C663.116 124.726 663.373 124.997 663.69 125.183C664.007 125.361 664.353 125.449 664.726 125.449C665.174 125.449 665.543 125.351 665.832 125.155C666.121 124.959 666.336 124.693 666.476 124.357H667.876C667.755 124.787 667.549 125.174 667.26 125.519C666.971 125.855 666.611 126.121 666.182 126.317C665.762 126.513 665.277 126.611 664.726 126.611ZM672.903 126.611C672.222 126.611 671.615 126.457 671.083 126.149C670.551 125.832 670.131 125.398 669.823 124.847C669.525 124.297 669.375 123.657 669.375 122.929C669.375 122.192 669.525 121.548 669.823 120.997C670.131 120.437 670.551 120.003 671.083 119.695C671.615 119.378 672.222 119.219 672.903 119.219C673.762 119.219 674.481 119.443 675.059 119.891C675.638 120.339 676.007 120.946 676.165 121.711H674.709C674.616 121.301 674.401 120.983 674.065 120.759C673.739 120.535 673.347 120.423 672.889 120.423C672.516 120.423 672.171 120.521 671.853 120.717C671.536 120.904 671.279 121.184 671.083 121.557C670.897 121.921 670.803 122.374 670.803 122.915C670.803 123.317 670.859 123.676 670.971 123.993C671.083 124.301 671.233 124.563 671.419 124.777C671.615 124.992 671.839 125.155 672.091 125.267C672.343 125.37 672.609 125.421 672.889 125.421C673.197 125.421 673.473 125.375 673.715 125.281C673.967 125.179 674.177 125.029 674.345 124.833C674.523 124.637 674.644 124.404 674.709 124.133H676.165C676.007 124.88 675.638 125.482 675.059 125.939C674.481 126.387 673.762 126.611 672.903 126.611ZM681.024 126.611C680.361 126.611 679.764 126.457 679.232 126.149C678.709 125.841 678.294 125.412 677.986 124.861C677.687 124.301 677.538 123.657 677.538 122.929C677.538 122.183 677.692 121.534 678 120.983C678.308 120.423 678.728 119.989 679.26 119.681C679.792 119.373 680.389 119.219 681.052 119.219C681.724 119.219 682.321 119.373 682.844 119.681C683.366 119.989 683.777 120.419 684.076 120.969C684.384 121.52 684.538 122.169 684.538 122.915C684.538 123.662 684.384 124.311 684.076 124.861C683.777 125.412 683.362 125.841 682.83 126.149C682.298 126.457 681.696 126.611 681.024 126.611ZM681.024 125.407C681.406 125.407 681.752 125.314 682.06 125.127C682.377 124.941 682.629 124.665 682.816 124.301C683.012 123.928 683.11 123.466 683.11 122.915C683.11 122.365 683.016 121.907 682.83 121.543C682.643 121.17 682.391 120.89 682.074 120.703C681.766 120.517 681.425 120.423 681.052 120.423C680.678 120.423 680.333 120.517 680.016 120.703C679.698 120.89 679.442 121.17 679.246 121.543C679.059 121.907 678.966 122.365 678.966 122.915C678.966 123.466 679.059 123.928 679.246 124.301C679.442 124.665 679.694 124.941 680.002 125.127C680.319 125.314 680.66 125.407 681.024 125.407ZM686.184 126.443V119.387H687.444L687.542 120.381C687.766 120.017 688.065 119.733 688.438 119.527C688.812 119.322 689.232 119.219 689.698 119.219C690.053 119.219 690.375 119.271 690.664 119.373C690.954 119.467 691.21 119.611 691.434 119.807C691.658 120.003 691.84 120.246 691.98 120.535C692.232 120.125 692.568 119.803 692.988 119.569C693.418 119.336 693.87 119.219 694.346 119.219C694.916 119.219 695.406 119.336 695.816 119.569C696.227 119.793 696.54 120.134 696.754 120.591C696.969 121.039 697.076 121.599 697.076 122.271V126.443H695.69V122.411C695.69 121.758 695.555 121.263 695.284 120.927C695.023 120.591 694.636 120.423 694.122 120.423C693.777 120.423 693.469 120.512 693.198 120.689C692.928 120.867 692.713 121.123 692.554 121.459C692.405 121.795 692.33 122.206 692.33 122.691V126.443H690.93V122.411C690.93 121.758 690.795 121.263 690.524 120.927C690.263 120.591 689.876 120.423 689.362 120.423C689.036 120.423 688.737 120.512 688.466 120.689C688.196 120.867 687.981 121.123 687.822 121.459C687.664 121.795 687.584 122.206 687.584 122.691V126.443H686.184ZM698.886 126.443V119.387H700.146L700.244 120.381C700.468 120.017 700.766 119.733 701.14 119.527C701.513 119.322 701.933 119.219 702.4 119.219C702.754 119.219 703.076 119.271 703.366 119.373C703.655 119.467 703.912 119.611 704.136 119.807C704.36 120.003 704.542 120.246 704.682 120.535C704.934 120.125 705.27 119.803 705.69 119.569C706.119 119.336 706.572 119.219 707.048 119.219C707.617 119.219 708.107 119.336 708.518 119.569C708.928 119.793 709.241 120.134 709.456 120.591C709.67 121.039 709.778 121.599 709.778 122.271V126.443H708.392V122.411C708.392 121.758 708.256 121.263 707.986 120.927C707.724 120.591 707.337 120.423 706.824 120.423C706.478 120.423 706.17 120.512 705.9 120.689C705.629 120.867 705.414 121.123 705.256 121.459C705.106 121.795 705.032 122.206 705.032 122.691V126.443H703.632V122.411C703.632 121.758 703.496 121.263 703.226 120.927C702.964 120.591 702.577 120.423 702.064 120.423C701.737 120.423 701.438 120.512 701.168 120.689C700.897 120.867 700.682 121.123 700.524 121.459C700.365 121.795 700.286 122.206 700.286 122.691V126.443H698.886ZM714.779 126.611C714.107 126.611 713.509 126.457 712.987 126.149C712.464 125.841 712.053 125.412 711.755 124.861C711.465 124.311 711.321 123.671 711.321 122.943C711.321 122.197 711.465 121.548 711.755 120.997C712.053 120.437 712.464 120.003 712.987 119.695C713.509 119.378 714.116 119.219 714.807 119.219C715.497 119.219 716.09 119.373 716.585 119.681C717.079 119.989 717.462 120.4 717.733 120.913C718.003 121.417 718.139 121.977 718.139 122.593C718.139 122.687 718.134 122.789 718.125 122.901C718.125 123.004 718.12 123.121 718.111 123.251H712.343V122.257H716.739C716.711 121.669 716.515 121.212 716.151 120.885C715.787 120.549 715.334 120.381 714.793 120.381C714.41 120.381 714.06 120.47 713.743 120.647C713.425 120.815 713.169 121.067 712.973 121.403C712.786 121.73 712.693 122.145 712.693 122.649V123.041C712.693 123.564 712.786 124.007 712.973 124.371C713.169 124.726 713.425 124.997 713.743 125.183C714.06 125.361 714.405 125.449 714.779 125.449C715.227 125.449 715.595 125.351 715.885 125.155C716.174 124.959 716.389 124.693 716.529 124.357H717.929C717.807 124.787 717.602 125.174 717.313 125.519C717.023 125.855 716.664 126.121 716.235 126.317C715.815 126.513 715.329 126.611 714.779 126.611ZM719.694 126.443V119.387H720.954L721.038 120.591C721.262 120.171 721.58 119.84 721.99 119.597C722.401 119.345 722.872 119.219 723.404 119.219C723.964 119.219 724.445 119.331 724.846 119.555C725.248 119.779 725.56 120.12 725.784 120.577C726.008 121.025 726.12 121.59 726.12 122.271V126.443H724.72V122.411C724.72 121.758 724.576 121.263 724.286 120.927C723.997 120.591 723.577 120.423 723.026 120.423C722.662 120.423 722.336 120.512 722.046 120.689C721.757 120.857 721.524 121.109 721.346 121.445C721.178 121.781 721.094 122.192 721.094 122.677V126.443H719.694ZM731.047 126.611C730.375 126.611 729.782 126.453 729.269 126.135C728.756 125.809 728.354 125.37 728.065 124.819C727.785 124.259 727.645 123.625 727.645 122.915C727.645 122.197 727.785 121.562 728.065 121.011C728.354 120.461 728.756 120.027 729.269 119.709C729.792 119.383 730.389 119.219 731.061 119.219C731.612 119.219 732.097 119.331 732.517 119.555C732.937 119.77 733.264 120.078 733.497 120.479V116.363H734.897V126.443H733.637L733.497 125.351C733.357 125.566 733.175 125.771 732.951 125.967C732.727 126.154 732.456 126.308 732.139 126.429C731.822 126.551 731.458 126.611 731.047 126.611ZM731.271 125.393C731.71 125.393 732.097 125.291 732.433 125.085C732.769 124.88 733.026 124.591 733.203 124.217C733.39 123.844 733.483 123.41 733.483 122.915C733.483 122.421 733.39 121.991 733.203 121.627C733.026 121.254 732.769 120.965 732.433 120.759C732.097 120.545 731.71 120.437 731.271 120.437C730.851 120.437 730.473 120.545 730.137 120.759C729.801 120.965 729.54 121.254 729.353 121.627C729.166 121.991 729.073 122.421 729.073 122.915C729.073 123.41 729.166 123.844 729.353 124.217C729.54 124.591 729.801 124.88 730.137 125.085C730.473 125.291 730.851 125.393 731.271 125.393ZM739.149 126.611C738.571 126.611 738.09 126.513 737.707 126.317C737.325 126.121 737.04 125.86 736.853 125.533C736.667 125.197 736.573 124.838 736.573 124.455C736.573 123.989 736.695 123.592 736.937 123.265C737.18 122.929 737.525 122.673 737.973 122.495C738.421 122.318 738.958 122.229 739.583 122.229H741.417C741.417 121.819 741.357 121.478 741.235 121.207C741.114 120.937 740.932 120.736 740.689 120.605C740.456 120.465 740.157 120.395 739.793 120.395C739.373 120.395 739.014 120.498 738.715 120.703C738.417 120.899 738.23 121.193 738.155 121.585H736.755C736.811 121.091 736.979 120.671 737.259 120.325C737.549 119.971 737.917 119.7 738.365 119.513C738.813 119.317 739.289 119.219 739.793 119.219C740.456 119.219 741.011 119.336 741.459 119.569C741.907 119.803 742.243 120.134 742.467 120.563C742.701 120.983 742.817 121.487 742.817 122.075V126.443H741.599L741.487 125.253C741.385 125.44 741.263 125.617 741.123 125.785C740.983 125.953 740.815 126.098 740.619 126.219C740.433 126.341 740.213 126.434 739.961 126.499C739.719 126.574 739.448 126.611 739.149 126.611ZM739.415 125.477C739.714 125.477 739.985 125.417 740.227 125.295C740.47 125.174 740.675 125.011 740.843 124.805C741.021 124.591 741.151 124.353 741.235 124.091C741.329 123.821 741.38 123.545 741.389 123.265V123.223H739.723C739.322 123.223 738.995 123.275 738.743 123.377C738.501 123.471 738.323 123.601 738.211 123.769C738.099 123.937 738.043 124.133 738.043 124.357C738.043 124.591 738.095 124.791 738.197 124.959C738.309 125.118 738.468 125.244 738.673 125.337C738.879 125.431 739.126 125.477 739.415 125.477ZM747.366 126.443C746.918 126.443 746.531 126.373 746.204 126.233C745.877 126.093 745.625 125.86 745.448 125.533C745.271 125.207 745.182 124.763 745.182 124.203V120.577H743.964V119.387H745.182L745.35 117.623H746.582V119.387H748.584V120.577H746.582V124.217C746.582 124.619 746.666 124.894 746.834 125.043C747.002 125.183 747.291 125.253 747.702 125.253H748.514V126.443H747.366ZM750.226 126.443V119.387H751.626V126.443H750.226ZM750.94 118.057C750.669 118.057 750.445 117.973 750.268 117.805C750.1 117.637 750.016 117.423 750.016 117.161C750.016 116.909 750.1 116.704 750.268 116.545C750.445 116.377 750.669 116.293 750.94 116.293C751.201 116.293 751.42 116.377 751.598 116.545C751.775 116.704 751.864 116.909 751.864 117.161C751.864 117.423 751.775 117.637 751.598 117.805C751.42 117.973 751.201 118.057 750.94 118.057ZM756.848 126.611C756.185 126.611 755.588 126.457 755.056 126.149C754.533 125.841 754.118 125.412 753.81 124.861C753.511 124.301 753.362 123.657 753.362 122.929C753.362 122.183 753.516 121.534 753.824 120.983C754.132 120.423 754.552 119.989 755.084 119.681C755.616 119.373 756.213 119.219 756.876 119.219C757.548 119.219 758.145 119.373 758.668 119.681C759.19 119.989 759.601 120.419 759.9 120.969C760.208 121.52 760.362 122.169 760.362 122.915C760.362 123.662 760.208 124.311 759.9 124.861C759.601 125.412 759.186 125.841 758.654 126.149C758.122 126.457 757.52 126.611 756.848 126.611ZM756.848 125.407C757.23 125.407 757.576 125.314 757.884 125.127C758.201 124.941 758.453 124.665 758.64 124.301C758.836 123.928 758.934 123.466 758.934 122.915C758.934 122.365 758.84 121.907 758.654 121.543C758.467 121.17 758.215 120.89 757.898 120.703C757.59 120.517 757.249 120.423 756.876 120.423C756.502 120.423 756.157 120.517 755.84 120.703C755.522 120.89 755.266 121.17 755.07 121.543C754.883 121.907 754.79 122.365 754.79 122.915C754.79 123.466 754.883 123.928 755.07 124.301C755.266 124.665 755.518 124.941 755.826 125.127C756.143 125.314 756.484 125.407 756.848 125.407ZM762.009 126.443V119.387H763.269L763.353 120.591C763.577 120.171 763.894 119.84 764.305 119.597C764.715 119.345 765.187 119.219 765.719 119.219C766.279 119.219 766.759 119.331 767.161 119.555C767.562 119.779 767.875 120.12 768.099 120.577C768.323 121.025 768.435 121.59 768.435 122.271V126.443H767.035V122.411C767.035 121.758 766.89 121.263 766.601 120.927C766.311 120.591 765.891 120.423 765.341 120.423C764.977 120.423 764.65 120.512 764.361 120.689C764.071 120.857 763.838 121.109 763.661 121.445C763.493 121.781 763.409 122.192 763.409 122.677V126.443H762.009ZM770.785 126.513C770.515 126.513 770.291 126.429 770.113 126.261C769.945 126.084 769.861 125.874 769.861 125.631C769.861 125.379 769.945 125.169 770.113 125.001C770.291 124.824 770.515 124.735 770.785 124.735C771.056 124.735 771.275 124.824 771.443 125.001C771.611 125.169 771.695 125.379 771.695 125.631C771.695 125.874 771.611 126.084 771.443 126.261C771.275 126.429 771.056 126.513 770.785 126.513ZM770.785 120.997C770.515 120.997 770.291 120.913 770.113 120.745C769.945 120.568 769.861 120.358 769.861 120.115C769.861 119.863 769.945 119.653 770.113 119.485C770.291 119.308 770.515 119.219 770.785 119.219C771.056 119.219 771.275 119.308 771.443 119.485C771.611 119.653 771.695 119.863 771.695 120.115C771.695 120.358 771.611 120.568 771.443 120.745C771.275 120.913 771.056 120.997 770.785 120.997Z" fill="#25262B"/>
<rect x="786" y="108.443" width="72" height="26" rx="4" fill="#008B37"/>
<path d="M794.392 126.443L797.99 116.643H799.516L803.114 126.443H801.616L798.746 118.323L795.862 126.443H794.392ZM796.016 124.021L796.408 122.901H801.014L801.406 124.021H796.016ZM804.44 129.523V119.387H805.7L805.84 120.479C805.99 120.265 806.176 120.064 806.4 119.877C806.624 119.681 806.89 119.523 807.198 119.401C807.516 119.28 807.884 119.219 808.304 119.219C808.976 119.219 809.564 119.383 810.068 119.709C810.582 120.036 810.978 120.479 811.258 121.039C811.548 121.59 811.692 122.22 811.692 122.929C811.692 123.639 811.548 124.273 811.258 124.833C810.969 125.384 810.568 125.818 810.054 126.135C809.55 126.453 808.962 126.611 808.29 126.611C807.74 126.611 807.254 126.504 806.834 126.289C806.414 126.065 806.083 125.757 805.84 125.365V129.523H804.44ZM808.066 125.393C808.496 125.393 808.874 125.291 809.2 125.085C809.536 124.88 809.798 124.591 809.984 124.217C810.18 123.844 810.278 123.41 810.278 122.915C810.278 122.421 810.18 121.991 809.984 121.627C809.798 121.254 809.536 120.965 809.2 120.759C808.874 120.545 808.496 120.437 808.066 120.437C807.628 120.437 807.24 120.545 806.904 120.759C806.578 120.965 806.321 121.254 806.134 121.627C805.948 121.991 805.854 122.421 805.854 122.915C805.854 123.41 805.948 123.844 806.134 124.217C806.321 124.591 806.578 124.88 806.904 125.085C807.24 125.291 807.628 125.393 808.066 125.393ZM813.327 129.523V119.387H814.587L814.727 120.479C814.876 120.265 815.063 120.064 815.287 119.877C815.511 119.681 815.777 119.523 816.085 119.401C816.402 119.28 816.771 119.219 817.191 119.219C817.863 119.219 818.451 119.383 818.955 119.709C819.468 120.036 819.865 120.479 820.145 121.039C820.434 121.59 820.579 122.22 820.579 122.929C820.579 123.639 820.434 124.273 820.145 124.833C819.856 125.384 819.454 125.818 818.941 126.135C818.437 126.453 817.849 126.611 817.177 126.611C816.626 126.611 816.141 126.504 815.721 126.289C815.301 126.065 814.97 125.757 814.727 125.365V129.523H813.327ZM816.953 125.393C817.382 125.393 817.76 125.291 818.087 125.085C818.423 124.88 818.684 124.591 818.871 124.217C819.067 123.844 819.165 123.41 819.165 122.915C819.165 122.421 819.067 121.991 818.871 121.627C818.684 121.254 818.423 120.965 818.087 120.759C817.76 120.545 817.382 120.437 816.953 120.437C816.514 120.437 816.127 120.545 815.791 120.759C815.464 120.965 815.208 121.254 815.021 121.627C814.834 121.991 814.741 122.421 814.741 122.915C814.741 123.41 814.834 123.844 815.021 124.217C815.208 124.591 815.464 124.88 815.791 125.085C816.127 125.291 816.514 125.393 816.953 125.393ZM822.214 126.443V119.387H823.474L823.6 120.717C823.758 120.4 823.964 120.134 824.216 119.919C824.468 119.695 824.762 119.523 825.098 119.401C825.443 119.28 825.835 119.219 826.274 119.219V120.703H825.77C825.48 120.703 825.205 120.741 824.944 120.815C824.682 120.881 824.449 120.997 824.244 121.165C824.048 121.333 823.894 121.562 823.782 121.851C823.67 122.141 823.614 122.5 823.614 122.929V126.443H822.214ZM830.574 126.611C829.912 126.611 829.314 126.457 828.782 126.149C828.26 125.841 827.844 125.412 827.536 124.861C827.238 124.301 827.088 123.657 827.088 122.929C827.088 122.183 827.242 121.534 827.55 120.983C827.858 120.423 828.278 119.989 828.81 119.681C829.342 119.373 829.94 119.219 830.602 119.219C831.274 119.219 831.872 119.373 832.394 119.681C832.917 119.989 833.328 120.419 833.626 120.969C833.934 121.52 834.088 122.169 834.088 122.915C834.088 123.662 833.934 124.311 833.626 124.861C833.328 125.412 832.912 125.841 832.38 126.149C831.848 126.457 831.246 126.611 830.574 126.611ZM830.574 125.407C830.957 125.407 831.302 125.314 831.61 125.127C831.928 124.941 832.18 124.665 832.366 124.301C832.562 123.928 832.66 123.466 832.66 122.915C832.66 122.365 832.567 121.907 832.38 121.543C832.194 121.17 831.942 120.89 831.624 120.703C831.316 120.517 830.976 120.423 830.602 120.423C830.229 120.423 829.884 120.517 829.566 120.703C829.249 120.89 828.992 121.17 828.796 121.543C828.61 121.907 828.516 122.365 828.516 122.915C828.516 123.466 828.61 123.928 828.796 124.301C828.992 124.665 829.244 124.941 829.552 125.127C829.87 125.314 830.21 125.407 830.574 125.407ZM837.395 126.443L834.749 119.387H836.219L838.221 125.099L840.237 119.387H841.679L839.047 126.443H837.395ZM845.79 126.611C845.118 126.611 844.521 126.457 843.998 126.149C843.476 125.841 843.065 125.412 842.766 124.861C842.477 124.311 842.332 123.671 842.332 122.943C842.332 122.197 842.477 121.548 842.766 120.997C843.065 120.437 843.476 120.003 843.998 119.695C844.521 119.378 845.128 119.219 845.818 119.219C846.509 119.219 847.102 119.373 847.596 119.681C848.091 119.989 848.474 120.4 848.744 120.913C849.015 121.417 849.15 121.977 849.15 122.593C849.15 122.687 849.146 122.789 849.136 122.901C849.136 123.004 849.132 123.121 849.122 123.251H843.354V122.257H847.75C847.722 121.669 847.526 121.212 847.162 120.885C846.798 120.549 846.346 120.381 845.804 120.381C845.422 120.381 845.072 120.47 844.754 120.647C844.437 120.815 844.18 121.067 843.984 121.403C843.798 121.73 843.704 122.145 843.704 122.649V123.041C843.704 123.564 843.798 124.007 843.984 124.371C844.18 124.726 844.437 124.997 844.754 125.183C845.072 125.361 845.417 125.449 845.79 125.449C846.238 125.449 846.607 125.351 846.896 125.155C847.186 124.959 847.4 124.693 847.54 124.357H848.94C848.819 124.787 848.614 125.174 848.324 125.519C848.035 125.855 847.676 126.121 847.246 126.317C846.826 126.513 846.341 126.611 845.79 126.611Z" fill="#FAF5F3"/>
<rect opacity="0.5" x="232" y="142.443" width="626" height="102" rx="16" fill="#D9D9D9"/>
<circle cx="287.5" cy="192.943" r="31.5" fill="#D9D9D9"/>
<rect x="333" y="178.443" width="72" height="16" rx="8" fill="#D9D9D9"/>
<rect x="416" y="178.443" width="52" height="16" rx="8" fill="#D9D9D9"/>
<rect x="333" y="200.443" width="33.6" height="7.46667" rx="3.73333" fill="#D9D9D9"/>
<rect x="371.733" y="200.443" width="24.2667" height="7.46667" rx="3.73333" fill="#D9D9D9"/>
<rect x="401.133" y="200.443" width="33.6" height="7.46667" rx="3.73333" fill="#D9D9D9"/>
<rect x="439.867" y="200.443" width="24.2667" height="7.46667" rx="3.73333" fill="#D9D9D9"/>
<rect x="469.267" y="200.443" width="33.6" height="7.46667" rx="3.73333" fill="#D9D9D9"/>
<path d="M642.392 278.443L645.99 268.643H647.516L651.114 278.443H649.616L646.746 270.323L643.862 278.443H642.392ZM644.016 276.021L644.408 274.901H649.014L649.406 276.021H644.016ZM652.51 278.443V268.643H653.91V278.443H652.51ZM659.538 278.443V268.643H662.856C663.63 268.643 664.265 268.774 664.76 269.035C665.254 269.297 665.618 269.647 665.852 270.085C666.094 270.515 666.216 271.005 666.216 271.555C666.216 272.078 666.094 272.563 665.852 273.011C665.618 273.45 665.25 273.805 664.746 274.075C664.242 274.337 663.598 274.467 662.814 274.467H660.938V278.443H659.538ZM664.69 278.443L662.576 274.089H664.116L666.314 278.443H664.69ZM660.938 273.403H662.758C663.448 273.403 663.957 273.235 664.284 272.899C664.61 272.554 664.774 272.115 664.774 271.583C664.774 271.042 664.615 270.613 664.298 270.295C663.98 269.978 663.467 269.819 662.758 269.819H660.938V273.403ZM670.726 278.611C670.054 278.611 669.457 278.457 668.934 278.149C668.411 277.841 668.001 277.412 667.702 276.861C667.413 276.311 667.268 275.671 667.268 274.943C667.268 274.197 667.413 273.548 667.702 272.997C668.001 272.437 668.411 272.003 668.934 271.695C669.457 271.378 670.063 271.219 670.754 271.219C671.445 271.219 672.037 271.373 672.532 271.681C673.027 271.989 673.409 272.4 673.68 272.913C673.951 273.417 674.086 273.977 674.086 274.593C674.086 274.687 674.081 274.789 674.072 274.901C674.072 275.004 674.067 275.121 674.058 275.251H668.29V274.257H672.686C672.658 273.669 672.462 273.212 672.098 272.885C671.734 272.549 671.281 272.381 670.74 272.381C670.357 272.381 670.007 272.47 669.69 272.647C669.373 272.815 669.116 273.067 668.92 273.403C668.733 273.73 668.64 274.145 668.64 274.649V275.041C668.64 275.564 668.733 276.007 668.92 276.371C669.116 276.726 669.373 276.997 669.69 277.183C670.007 277.361 670.353 277.449 670.726 277.449C671.174 277.449 671.543 277.351 671.832 277.155C672.121 276.959 672.336 276.693 672.476 276.357H673.876C673.755 276.787 673.549 277.174 673.26 277.519C672.971 277.855 672.611 278.121 672.182 278.317C671.762 278.513 671.277 278.611 670.726 278.611ZM678.903 278.611C678.222 278.611 677.615 278.457 677.083 278.149C676.551 277.832 676.131 277.398 675.823 276.847C675.525 276.297 675.375 275.657 675.375 274.929C675.375 274.192 675.525 273.548 675.823 272.997C676.131 272.437 676.551 272.003 677.083 271.695C677.615 271.378 678.222 271.219 678.903 271.219C679.762 271.219 680.481 271.443 681.059 271.891C681.638 272.339 682.007 272.946 682.165 273.711H680.709C680.616 273.301 680.401 272.983 680.065 272.759C679.739 272.535 679.347 272.423 678.889 272.423C678.516 272.423 678.171 272.521 677.853 272.717C677.536 272.904 677.279 273.184 677.083 273.557C676.897 273.921 676.803 274.374 676.803 274.915C676.803 275.317 676.859 275.676 676.971 275.993C677.083 276.301 677.233 276.563 677.419 276.777C677.615 276.992 677.839 277.155 678.091 277.267C678.343 277.37 678.609 277.421 678.889 277.421C679.197 277.421 679.473 277.375 679.715 277.281C679.967 277.179 680.177 277.029 680.345 276.833C680.523 276.637 680.644 276.404 680.709 276.133H682.165C682.007 276.88 681.638 277.482 681.059 277.939C680.481 278.387 679.762 278.611 678.903 278.611ZM687.024 278.611C686.361 278.611 685.764 278.457 685.232 278.149C684.709 277.841 684.294 277.412 683.986 276.861C683.687 276.301 683.538 275.657 683.538 274.929C683.538 274.183 683.692 273.534 684 272.983C684.308 272.423 684.728 271.989 685.26 271.681C685.792 271.373 686.389 271.219 687.052 271.219C687.724 271.219 688.321 271.373 688.844 271.681C689.366 271.989 689.777 272.419 690.076 272.969C690.384 273.52 690.538 274.169 690.538 274.915C690.538 275.662 690.384 276.311 690.076 276.861C689.777 277.412 689.362 277.841 688.83 278.149C688.298 278.457 687.696 278.611 687.024 278.611ZM687.024 277.407C687.406 277.407 687.752 277.314 688.06 277.127C688.377 276.941 688.629 276.665 688.816 276.301C689.012 275.928 689.11 275.466 689.11 274.915C689.11 274.365 689.016 273.907 688.83 273.543C688.643 273.17 688.391 272.89 688.074 272.703C687.766 272.517 687.425 272.423 687.052 272.423C686.678 272.423 686.333 272.517 686.016 272.703C685.698 272.89 685.442 273.17 685.246 273.543C685.059 273.907 684.966 274.365 684.966 274.915C684.966 275.466 685.059 275.928 685.246 276.301C685.442 276.665 685.694 276.941 686.002 277.127C686.319 277.314 686.66 277.407 687.024 277.407ZM692.184 278.443V271.387H693.444L693.542 272.381C693.766 272.017 694.065 271.733 694.438 271.527C694.812 271.322 695.232 271.219 695.698 271.219C696.053 271.219 696.375 271.271 696.664 271.373C696.954 271.467 697.21 271.611 697.434 271.807C697.658 272.003 697.84 272.246 697.98 272.535C698.232 272.125 698.568 271.803 698.988 271.569C699.418 271.336 699.87 271.219 700.346 271.219C700.916 271.219 701.406 271.336 701.816 271.569C702.227 271.793 702.54 272.134 702.754 272.591C702.969 273.039 703.076 273.599 703.076 274.271V278.443H701.69V274.411C701.69 273.758 701.555 273.263 701.284 272.927C701.023 272.591 700.636 272.423 700.122 272.423C699.777 272.423 699.469 272.512 699.198 272.689C698.928 272.867 698.713 273.123 698.554 273.459C698.405 273.795 698.33 274.206 698.33 274.691V278.443H696.93V274.411C696.93 273.758 696.795 273.263 696.524 272.927C696.263 272.591 695.876 272.423 695.362 272.423C695.036 272.423 694.737 272.512 694.466 272.689C694.196 272.867 693.981 273.123 693.822 273.459C693.664 273.795 693.584 274.206 693.584 274.691V278.443H692.184ZM704.886 278.443V271.387H706.146L706.244 272.381C706.468 272.017 706.766 271.733 707.14 271.527C707.513 271.322 707.933 271.219 708.4 271.219C708.754 271.219 709.076 271.271 709.366 271.373C709.655 271.467 709.912 271.611 710.136 271.807C710.36 272.003 710.542 272.246 710.682 272.535C710.934 272.125 711.27 271.803 711.69 271.569C712.119 271.336 712.572 271.219 713.048 271.219C713.617 271.219 714.107 271.336 714.518 271.569C714.928 271.793 715.241 272.134 715.456 272.591C715.67 273.039 715.778 273.599 715.778 274.271V278.443H714.392V274.411C714.392 273.758 714.256 273.263 713.986 272.927C713.724 272.591 713.337 272.423 712.824 272.423C712.478 272.423 712.17 272.512 711.9 272.689C711.629 272.867 711.414 273.123 711.256 273.459C711.106 273.795 711.032 274.206 711.032 274.691V278.443H709.632V274.411C709.632 273.758 709.496 273.263 709.226 272.927C708.964 272.591 708.577 272.423 708.064 272.423C707.737 272.423 707.438 272.512 707.168 272.689C706.897 272.867 706.682 273.123 706.524 273.459C706.365 273.795 706.286 274.206 706.286 274.691V278.443H704.886ZM720.779 278.611C720.107 278.611 719.509 278.457 718.987 278.149C718.464 277.841 718.053 277.412 717.755 276.861C717.465 276.311 717.321 275.671 717.321 274.943C717.321 274.197 717.465 273.548 717.755 272.997C718.053 272.437 718.464 272.003 718.987 271.695C719.509 271.378 720.116 271.219 720.807 271.219C721.497 271.219 722.09 271.373 722.585 271.681C723.079 271.989 723.462 272.4 723.733 272.913C724.003 273.417 724.139 273.977 724.139 274.593C724.139 274.687 724.134 274.789 724.125 274.901C724.125 275.004 724.12 275.121 724.111 275.251H718.343V274.257H722.739C722.711 273.669 722.515 273.212 722.151 272.885C721.787 272.549 721.334 272.381 720.793 272.381C720.41 272.381 720.06 272.47 719.743 272.647C719.425 272.815 719.169 273.067 718.973 273.403C718.786 273.73 718.693 274.145 718.693 274.649V275.041C718.693 275.564 718.786 276.007 718.973 276.371C719.169 276.726 719.425 276.997 719.743 277.183C720.06 277.361 720.405 277.449 720.779 277.449C721.227 277.449 721.595 277.351 721.885 277.155C722.174 276.959 722.389 276.693 722.529 276.357H723.929C723.807 276.787 723.602 277.174 723.313 277.519C723.023 277.855 722.664 278.121 722.235 278.317C721.815 278.513 721.329 278.611 720.779 278.611ZM725.694 278.443V271.387H726.954L727.038 272.591C727.262 272.171 727.58 271.84 727.99 271.597C728.401 271.345 728.872 271.219 729.404 271.219C729.964 271.219 730.445 271.331 730.846 271.555C731.248 271.779 731.56 272.12 731.784 272.577C732.008 273.025 732.12 273.59 732.12 274.271V278.443H730.72V274.411C730.72 273.758 730.576 273.263 730.286 272.927C729.997 272.591 729.577 272.423 729.026 272.423C728.662 272.423 728.336 272.512 728.046 272.689C727.757 272.857 727.524 273.109 727.346 273.445C727.178 273.781 727.094 274.192 727.094 274.677V278.443H725.694ZM737.047 278.611C736.375 278.611 735.782 278.453 735.269 278.135C734.756 277.809 734.354 277.37 734.065 276.819C733.785 276.259 733.645 275.625 733.645 274.915C733.645 274.197 733.785 273.562 734.065 273.011C734.354 272.461 734.756 272.027 735.269 271.709C735.792 271.383 736.389 271.219 737.061 271.219C737.612 271.219 738.097 271.331 738.517 271.555C738.937 271.77 739.264 272.078 739.497 272.479V268.363H740.897V278.443H739.637L739.497 277.351C739.357 277.566 739.175 277.771 738.951 277.967C738.727 278.154 738.456 278.308 738.139 278.429C737.822 278.551 737.458 278.611 737.047 278.611ZM737.271 277.393C737.71 277.393 738.097 277.291 738.433 277.085C738.769 276.88 739.026 276.591 739.203 276.217C739.39 275.844 739.483 275.41 739.483 274.915C739.483 274.421 739.39 273.991 739.203 273.627C739.026 273.254 738.769 272.965 738.433 272.759C738.097 272.545 737.71 272.437 737.271 272.437C736.851 272.437 736.473 272.545 736.137 272.759C735.801 272.965 735.54 273.254 735.353 273.627C735.166 273.991 735.073 274.421 735.073 274.915C735.073 275.41 735.166 275.844 735.353 276.217C735.54 276.591 735.801 276.88 736.137 277.085C736.473 277.291 736.851 277.393 737.271 277.393ZM745.149 278.611C744.571 278.611 744.09 278.513 743.707 278.317C743.325 278.121 743.04 277.86 742.853 277.533C742.667 277.197 742.573 276.838 742.573 276.455C742.573 275.989 742.695 275.592 742.937 275.265C743.18 274.929 743.525 274.673 743.973 274.495C744.421 274.318 744.958 274.229 745.583 274.229H747.417C747.417 273.819 747.357 273.478 747.235 273.207C747.114 272.937 746.932 272.736 746.689 272.605C746.456 272.465 746.157 272.395 745.793 272.395C745.373 272.395 745.014 272.498 744.715 272.703C744.417 272.899 744.23 273.193 744.155 273.585H742.755C742.811 273.091 742.979 272.671 743.259 272.325C743.549 271.971 743.917 271.7 744.365 271.513C744.813 271.317 745.289 271.219 745.793 271.219C746.456 271.219 747.011 271.336 747.459 271.569C747.907 271.803 748.243 272.134 748.467 272.563C748.701 272.983 748.817 273.487 748.817 274.075V278.443H747.599L747.487 277.253C747.385 277.44 747.263 277.617 747.123 277.785C746.983 277.953 746.815 278.098 746.619 278.219C746.433 278.341 746.213 278.434 745.961 278.499C745.719 278.574 745.448 278.611 745.149 278.611ZM745.415 277.477C745.714 277.477 745.985 277.417 746.227 277.295C746.47 277.174 746.675 277.011 746.843 276.805C747.021 276.591 747.151 276.353 747.235 276.091C747.329 275.821 747.38 275.545 747.389 275.265V275.223H745.723C745.322 275.223 744.995 275.275 744.743 275.377C744.501 275.471 744.323 275.601 744.211 275.769C744.099 275.937 744.043 276.133 744.043 276.357C744.043 276.591 744.095 276.791 744.197 276.959C744.309 277.118 744.468 277.244 744.673 277.337C744.879 277.431 745.126 277.477 745.415 277.477ZM753.366 278.443C752.918 278.443 752.531 278.373 752.204 278.233C751.877 278.093 751.625 277.86 751.448 277.533C751.271 277.207 751.182 276.763 751.182 276.203V272.577H749.964V271.387H751.182L751.35 269.623H752.582V271.387H754.584V272.577H752.582V276.217C752.582 276.619 752.666 276.894 752.834 277.043C753.002 277.183 753.291 277.253 753.702 277.253H754.514V278.443H753.366ZM756.226 278.443V271.387H757.626V278.443H756.226ZM756.94 270.057C756.669 270.057 756.445 269.973 756.268 269.805C756.1 269.637 756.016 269.423 756.016 269.161C756.016 268.909 756.1 268.704 756.268 268.545C756.445 268.377 756.669 268.293 756.94 268.293C757.201 268.293 757.42 268.377 757.598 268.545C757.775 268.704 757.864 268.909 757.864 269.161C757.864 269.423 757.775 269.637 757.598 269.805C757.42 269.973 757.201 270.057 756.94 270.057ZM762.848 278.611C762.185 278.611 761.588 278.457 761.056 278.149C760.533 277.841 760.118 277.412 759.81 276.861C759.511 276.301 759.362 275.657 759.362 274.929C759.362 274.183 759.516 273.534 759.824 272.983C760.132 272.423 760.552 271.989 761.084 271.681C761.616 271.373 762.213 271.219 762.876 271.219C763.548 271.219 764.145 271.373 764.668 271.681C765.19 271.989 765.601 272.419 765.9 272.969C766.208 273.52 766.362 274.169 766.362 274.915C766.362 275.662 766.208 276.311 765.9 276.861C765.601 277.412 765.186 277.841 764.654 278.149C764.122 278.457 763.52 278.611 762.848 278.611ZM762.848 277.407C763.23 277.407 763.576 277.314 763.884 277.127C764.201 276.941 764.453 276.665 764.64 276.301C764.836 275.928 764.934 275.466 764.934 274.915C764.934 274.365 764.84 273.907 764.654 273.543C764.467 273.17 764.215 272.89 763.898 272.703C763.59 272.517 763.249 272.423 762.876 272.423C762.502 272.423 762.157 272.517 761.84 272.703C761.522 272.89 761.266 273.17 761.07 273.543C760.883 273.907 760.79 274.365 760.79 274.915C760.79 275.466 760.883 275.928 761.07 276.301C761.266 276.665 761.518 276.941 761.826 277.127C762.143 277.314 762.484 277.407 762.848 277.407ZM768.009 278.443V271.387H769.269L769.353 272.591C769.577 272.171 769.894 271.84 770.305 271.597C770.715 271.345 771.187 271.219 771.719 271.219C772.279 271.219 772.759 271.331 773.161 271.555C773.562 271.779 773.875 272.12 774.099 272.577C774.323 273.025 774.435 273.59 774.435 274.271V278.443H773.035V274.411C773.035 273.758 772.89 273.263 772.601 272.927C772.311 272.591 771.891 272.423 771.341 272.423C770.977 272.423 770.65 272.512 770.361 272.689C770.071 272.857 769.838 273.109 769.661 273.445C769.493 273.781 769.409 274.192 769.409 274.677V278.443H768.009ZM776.785 278.513C776.515 278.513 776.291 278.429 776.113 278.261C775.945 278.084 775.861 277.874 775.861 277.631C775.861 277.379 775.945 277.169 776.113 277.001C776.291 276.824 776.515 276.735 776.785 276.735C777.056 276.735 777.275 276.824 777.443 277.001C777.611 277.169 777.695 277.379 777.695 277.631C777.695 277.874 777.611 278.084 777.443 278.261C777.275 278.429 777.056 278.513 776.785 278.513ZM776.785 272.997C776.515 272.997 776.291 272.913 776.113 272.745C775.945 272.568 775.861 272.358 775.861 272.115C775.861 271.863 775.945 271.653 776.113 271.485C776.291 271.308 776.515 271.219 776.785 271.219C777.056 271.219 777.275 271.308 777.443 271.485C777.611 271.653 777.695 271.863 777.695 272.115C777.695 272.358 777.611 272.568 777.443 272.745C777.275 272.913 777.056 272.997 776.785 272.997Z" fill="#25262B"/>
<rect x="792" y="260.443" width="66" height="26" rx="4" fill="#B3014D"/>
<path d="M801.022 278.443V268.643H804.032C805.171 268.643 806.113 268.844 806.86 269.245C807.607 269.647 808.157 270.216 808.512 270.953C808.876 271.681 809.058 272.549 809.058 273.557C809.058 274.565 808.876 275.433 808.512 276.161C808.157 276.889 807.607 277.454 806.86 277.855C806.123 278.247 805.18 278.443 804.032 278.443H801.022ZM802.422 277.267H803.976C804.881 277.267 805.6 277.118 806.132 276.819C806.664 276.521 807.042 276.096 807.266 275.545C807.499 274.985 807.616 274.323 807.616 273.557C807.616 272.783 807.499 272.115 807.266 271.555C807.042 270.995 806.664 270.566 806.132 270.267C805.6 269.969 804.881 269.819 803.976 269.819H802.422V277.267ZM813.865 278.611C813.193 278.611 812.595 278.457 812.073 278.149C811.55 277.841 811.139 277.412 810.841 276.861C810.551 276.311 810.407 275.671 810.407 274.943C810.407 274.197 810.551 273.548 810.841 272.997C811.139 272.437 811.55 272.003 812.073 271.695C812.595 271.378 813.202 271.219 813.893 271.219C814.583 271.219 815.176 271.373 815.671 271.681C816.165 271.989 816.548 272.4 816.819 272.913C817.089 273.417 817.225 273.977 817.225 274.593C817.225 274.687 817.22 274.789 817.211 274.901C817.211 275.004 817.206 275.121 817.197 275.251H811.429V274.257H815.825C815.797 273.669 815.601 273.212 815.237 272.885C814.873 272.549 814.42 272.381 813.879 272.381C813.496 272.381 813.146 272.47 812.829 272.647C812.511 272.815 812.255 273.067 812.059 273.403C811.872 273.73 811.779 274.145 811.779 274.649V275.041C811.779 275.564 811.872 276.007 812.059 276.371C812.255 276.726 812.511 276.997 812.829 277.183C813.146 277.361 813.491 277.449 813.865 277.449C814.313 277.449 814.681 277.351 814.971 277.155C815.26 276.959 815.475 276.693 815.615 276.357H817.015C816.893 276.787 816.688 277.174 816.399 277.519C816.109 277.855 815.75 278.121 815.321 278.317C814.901 278.513 814.415 278.611 813.865 278.611ZM822.042 278.611C821.361 278.611 820.754 278.457 820.222 278.149C819.69 277.832 819.27 277.398 818.962 276.847C818.663 276.297 818.514 275.657 818.514 274.929C818.514 274.192 818.663 273.548 818.962 272.997C819.27 272.437 819.69 272.003 820.222 271.695C820.754 271.378 821.361 271.219 822.042 271.219C822.901 271.219 823.619 271.443 824.198 271.891C824.777 272.339 825.145 272.946 825.304 273.711H823.848C823.755 273.301 823.54 272.983 823.204 272.759C822.877 272.535 822.485 272.423 822.028 272.423C821.655 272.423 821.309 272.521 820.992 272.717C820.675 272.904 820.418 273.184 820.222 273.557C820.035 273.921 819.942 274.374 819.942 274.915C819.942 275.317 819.998 275.676 820.11 275.993C820.222 276.301 820.371 276.563 820.558 276.777C820.754 276.992 820.978 277.155 821.23 277.267C821.482 277.37 821.748 277.421 822.028 277.421C822.336 277.421 822.611 277.375 822.854 277.281C823.106 277.179 823.316 277.029 823.484 276.833C823.661 276.637 823.783 276.404 823.848 276.133H825.304C825.145 276.88 824.777 277.482 824.198 277.939C823.619 278.387 822.901 278.611 822.042 278.611ZM826.942 278.443V268.363H828.342V278.443H826.942ZM830.363 278.443V271.387H831.763V278.443H830.363ZM831.077 270.057C830.806 270.057 830.582 269.973 830.405 269.805C830.237 269.637 830.153 269.423 830.153 269.161C830.153 268.909 830.237 268.704 830.405 268.545C830.582 268.377 830.806 268.293 831.077 268.293C831.338 268.293 831.557 268.377 831.735 268.545C831.912 268.704 832.001 268.909 832.001 269.161C832.001 269.423 831.912 269.637 831.735 269.805C831.557 269.973 831.338 270.057 831.077 270.057ZM833.765 278.443V271.387H835.025L835.109 272.591C835.333 272.171 835.65 271.84 836.061 271.597C836.471 271.345 836.943 271.219 837.475 271.219C838.035 271.219 838.515 271.331 838.917 271.555C839.318 271.779 839.631 272.12 839.855 272.577C840.079 273.025 840.191 273.59 840.191 274.271V278.443H838.791V274.411C838.791 273.758 838.646 273.263 838.357 272.927C838.067 272.591 837.647 272.423 837.097 272.423C836.733 272.423 836.406 272.512 836.117 272.689C835.827 272.857 835.594 273.109 835.417 273.445C835.249 273.781 835.165 274.192 835.165 274.677V278.443H833.765ZM845.173 278.611C844.501 278.611 843.904 278.457 843.381 278.149C842.859 277.841 842.448 277.412 842.149 276.861C841.86 276.311 841.715 275.671 841.715 274.943C841.715 274.197 841.86 273.548 842.149 272.997C842.448 272.437 842.859 272.003 843.381 271.695C843.904 271.378 844.511 271.219 845.201 271.219C845.892 271.219 846.485 271.373 846.979 271.681C847.474 271.989 847.857 272.4 848.127 272.913C848.398 273.417 848.533 273.977 848.533 274.593C848.533 274.687 848.529 274.789 848.519 274.901C848.519 275.004 848.515 275.121 848.505 275.251H842.737V274.257H847.133C847.105 273.669 846.909 273.212 846.545 272.885C846.181 272.549 845.729 272.381 845.187 272.381C844.805 272.381 844.455 272.47 844.137 272.647C843.82 272.815 843.563 273.067 843.367 273.403C843.181 273.73 843.087 274.145 843.087 274.649V275.041C843.087 275.564 843.181 276.007 843.367 276.371C843.563 276.726 843.82 276.997 844.137 277.183C844.455 277.361 844.8 277.449 845.173 277.449C845.621 277.449 845.99 277.351 846.279 277.155C846.569 276.959 846.783 276.693 846.923 276.357H848.323C848.202 276.787 847.997 277.174 847.707 277.519C847.418 277.855 847.059 278.121 846.629 278.317C846.209 278.513 845.724 278.611 845.173 278.611Z" fill="#FAF5F3"/>
<rect opacity="0.5" x="232" y="294.443" width="626" height="102" rx="16" fill="#D9D9D9"/>
<circle cx="287.5" cy="344.943" r="31.5" fill="#D9D9D9"/>
<rect x="333" y="330.443" width="72" height="16" rx="8" fill="#D9D9D9"/>
<rect x="416" y="330.443" width="52" height="16" rx="8" fill="#D9D9D9"/>
<rect x="333" y="352.443" width="33.6" height="7.46667" rx="3.73333" fill="#D9D9D9"/>
<rect x="371.733" y="352.443" width="24.2667" height="7.46667" rx="3.73333" fill="#D9D9D9"/>
<rect x="401.133" y="352.443" width="33.6" height="7.46667" rx="3.73333" fill="#D9D9D9"/>
<rect x="439.867" y="352.443" width="24.2667" height="7.46667" rx="3.73333" fill="#D9D9D9"/>
<rect x="469.267" y="352.443" width="33.6" height="7.46667" rx="3.73333" fill="#D9D9D9"/>
<path d="M642.392 430.443L645.99 420.643H647.516L651.114 430.443H649.616L646.746 422.323L643.862 430.443H642.392ZM644.016 428.021L644.408 426.901H649.014L649.406 428.021H644.016ZM652.51 430.443V420.643H653.91V430.443H652.51ZM659.538 430.443V420.643H662.856C663.63 420.643 664.265 420.774 664.76 421.035C665.254 421.297 665.618 421.647 665.852 422.085C666.094 422.515 666.216 423.005 666.216 423.555C666.216 424.078 666.094 424.563 665.852 425.011C665.618 425.45 665.25 425.805 664.746 426.075C664.242 426.337 663.598 426.467 662.814 426.467H660.938V430.443H659.538ZM664.69 430.443L662.576 426.089H664.116L666.314 430.443H664.69ZM660.938 425.403H662.758C663.448 425.403 663.957 425.235 664.284 424.899C664.61 424.554 664.774 424.115 664.774 423.583C664.774 423.042 664.615 422.613 664.298 422.295C663.98 421.978 663.467 421.819 662.758 421.819H660.938V425.403ZM670.726 430.611C670.054 430.611 669.457 430.457 668.934 430.149C668.411 429.841 668.001 429.412 667.702 428.861C667.413 428.311 667.268 427.671 667.268 426.943C667.268 426.197 667.413 425.548 667.702 424.997C668.001 424.437 668.411 424.003 668.934 423.695C669.457 423.378 670.063 423.219 670.754 423.219C671.445 423.219 672.037 423.373 672.532 423.681C673.027 423.989 673.409 424.4 673.68 424.913C673.951 425.417 674.086 425.977 674.086 426.593C674.086 426.687 674.081 426.789 674.072 426.901C674.072 427.004 674.067 427.121 674.058 427.251H668.29V426.257H672.686C672.658 425.669 672.462 425.212 672.098 424.885C671.734 424.549 671.281 424.381 670.74 424.381C670.357 424.381 670.007 424.47 669.69 424.647C669.373 424.815 669.116 425.067 668.92 425.403C668.733 425.73 668.64 426.145 668.64 426.649V427.041C668.64 427.564 668.733 428.007 668.92 428.371C669.116 428.726 669.373 428.997 669.69 429.183C670.007 429.361 670.353 429.449 670.726 429.449C671.174 429.449 671.543 429.351 671.832 429.155C672.121 428.959 672.336 428.693 672.476 428.357H673.876C673.755 428.787 673.549 429.174 673.26 429.519C672.971 429.855 672.611 430.121 672.182 430.317C671.762 430.513 671.277 430.611 670.726 430.611ZM678.903 430.611C678.222 430.611 677.615 430.457 677.083 430.149C676.551 429.832 676.131 429.398 675.823 428.847C675.525 428.297 675.375 427.657 675.375 426.929C675.375 426.192 675.525 425.548 675.823 424.997C676.131 424.437 676.551 424.003 677.083 423.695C677.615 423.378 678.222 423.219 678.903 423.219C679.762 423.219 680.481 423.443 681.059 423.891C681.638 424.339 682.007 424.946 682.165 425.711H680.709C680.616 425.301 680.401 424.983 680.065 424.759C679.739 424.535 679.347 424.423 678.889 424.423C678.516 424.423 678.171 424.521 677.853 424.717C677.536 424.904 677.279 425.184 677.083 425.557C676.897 425.921 676.803 426.374 676.803 426.915C676.803 427.317 676.859 427.676 676.971 427.993C677.083 428.301 677.233 428.563 677.419 428.777C677.615 428.992 677.839 429.155 678.091 429.267C678.343 429.37 678.609 429.421 678.889 429.421C679.197 429.421 679.473 429.375 679.715 429.281C679.967 429.179 680.177 429.029 680.345 428.833C680.523 428.637 680.644 428.404 680.709 428.133H682.165C682.007 428.88 681.638 429.482 681.059 429.939C680.481 430.387 679.762 430.611 678.903 430.611ZM687.024 430.611C686.361 430.611 685.764 430.457 685.232 430.149C684.709 429.841 684.294 429.412 683.986 428.861C683.687 428.301 683.538 427.657 683.538 426.929C683.538 426.183 683.692 425.534 684 424.983C684.308 424.423 684.728 423.989 685.26 423.681C685.792 423.373 686.389 423.219 687.052 423.219C687.724 423.219 688.321 423.373 688.844 423.681C689.366 423.989 689.777 424.419 690.076 424.969C690.384 425.52 690.538 426.169 690.538 426.915C690.538 427.662 690.384 428.311 690.076 428.861C689.777 429.412 689.362 429.841 688.83 430.149C688.298 430.457 687.696 430.611 687.024 430.611ZM687.024 429.407C687.406 429.407 687.752 429.314 688.06 429.127C688.377 428.941 688.629 428.665 688.816 428.301C689.012 427.928 689.11 427.466 689.11 426.915C689.11 426.365 689.016 425.907 688.83 425.543C688.643 425.17 688.391 424.89 688.074 424.703C687.766 424.517 687.425 424.423 687.052 424.423C686.678 424.423 686.333 424.517 686.016 424.703C685.698 424.89 685.442 425.17 685.246 425.543C685.059 425.907 684.966 426.365 684.966 426.915C684.966 427.466 685.059 427.928 685.246 428.301C685.442 428.665 685.694 428.941 686.002 429.127C686.319 429.314 686.66 429.407 687.024 429.407ZM692.184 430.443V423.387H693.444L693.542 424.381C693.766 424.017 694.065 423.733 694.438 423.527C694.812 423.322 695.232 423.219 695.698 423.219C696.053 423.219 696.375 423.271 696.664 423.373C696.954 423.467 697.21 423.611 697.434 423.807C697.658 424.003 697.84 424.246 697.98 424.535C698.232 424.125 698.568 423.803 698.988 423.569C699.418 423.336 699.87 423.219 700.346 423.219C700.916 423.219 701.406 423.336 701.816 423.569C702.227 423.793 702.54 424.134 702.754 424.591C702.969 425.039 703.076 425.599 703.076 426.271V430.443H701.69V426.411C701.69 425.758 701.555 425.263 701.284 424.927C701.023 424.591 700.636 424.423 700.122 424.423C699.777 424.423 699.469 424.512 699.198 424.689C698.928 424.867 698.713 425.123 698.554 425.459C698.405 425.795 698.33 426.206 698.33 426.691V430.443H696.93V426.411C696.93 425.758 696.795 425.263 696.524 424.927C696.263 424.591 695.876 424.423 695.362 424.423C695.036 424.423 694.737 424.512 694.466 424.689C694.196 424.867 693.981 425.123 693.822 425.459C693.664 425.795 693.584 426.206 693.584 426.691V430.443H692.184ZM704.886 430.443V423.387H706.146L706.244 424.381C706.468 424.017 706.766 423.733 707.14 423.527C707.513 423.322 707.933 423.219 708.4 423.219C708.754 423.219 709.076 423.271 709.366 423.373C709.655 423.467 709.912 423.611 710.136 423.807C710.36 424.003 710.542 424.246 710.682 424.535C710.934 424.125 711.27 423.803 711.69 423.569C712.119 423.336 712.572 423.219 713.048 423.219C713.617 423.219 714.107 423.336 714.518 423.569C714.928 423.793 715.241 424.134 715.456 424.591C715.67 425.039 715.778 425.599 715.778 426.271V430.443H714.392V426.411C714.392 425.758 714.256 425.263 713.986 424.927C713.724 424.591 713.337 424.423 712.824 424.423C712.478 424.423 712.17 424.512 711.9 424.689C711.629 424.867 711.414 425.123 711.256 425.459C711.106 425.795 711.032 426.206 711.032 426.691V430.443H709.632V426.411C709.632 425.758 709.496 425.263 709.226 424.927C708.964 424.591 708.577 424.423 708.064 424.423C707.737 424.423 707.438 424.512 707.168 424.689C706.897 424.867 706.682 425.123 706.524 425.459C706.365 425.795 706.286 426.206 706.286 426.691V430.443H704.886ZM720.779 430.611C720.107 430.611 719.509 430.457 718.987 430.149C718.464 429.841 718.053 429.412 717.755 428.861C717.465 428.311 717.321 427.671 717.321 426.943C717.321 426.197 717.465 425.548 717.755 424.997C718.053 424.437 718.464 424.003 718.987 423.695C719.509 423.378 720.116 423.219 720.807 423.219C721.497 423.219 722.09 423.373 722.585 423.681C723.079 423.989 723.462 424.4 723.733 424.913C724.003 425.417 724.139 425.977 724.139 426.593C724.139 426.687 724.134 426.789 724.125 426.901C724.125 427.004 724.12 427.121 724.111 427.251H718.343V426.257H722.739C722.711 425.669 722.515 425.212 722.151 424.885C721.787 424.549 721.334 424.381 720.793 424.381C720.41 424.381 720.06 424.47 719.743 424.647C719.425 424.815 719.169 425.067 718.973 425.403C718.786 425.73 718.693 426.145 718.693 426.649V427.041C718.693 427.564 718.786 428.007 718.973 428.371C719.169 428.726 719.425 428.997 719.743 429.183C720.06 429.361 720.405 429.449 720.779 429.449C721.227 429.449 721.595 429.351 721.885 429.155C722.174 428.959 722.389 428.693 722.529 428.357H723.929C723.807 428.787 723.602 429.174 723.313 429.519C723.023 429.855 722.664 430.121 722.235 430.317C721.815 430.513 721.329 430.611 720.779 430.611ZM725.694 430.443V423.387H726.954L727.038 424.591C727.262 424.171 727.58 423.84 727.99 423.597C728.401 423.345 728.872 423.219 729.404 423.219C729.964 423.219 730.445 423.331 730.846 423.555C731.248 423.779 731.56 424.12 731.784 424.577C732.008 425.025 732.12 425.59 732.12 426.271V430.443H730.72V426.411C730.72 425.758 730.576 425.263 730.286 424.927C729.997 424.591 729.577 424.423 729.026 424.423C728.662 424.423 728.336 424.512 728.046 424.689C727.757 424.857 727.524 425.109 727.346 425.445C727.178 425.781 727.094 426.192 727.094 426.677V430.443H725.694ZM737.047 430.611C736.375 430.611 735.782 430.453 735.269 430.135C734.756 429.809 734.354 429.37 734.065 428.819C733.785 428.259 733.645 427.625 733.645 426.915C733.645 426.197 733.785 425.562 734.065 425.011C734.354 424.461 734.756 424.027 735.269 423.709C735.792 423.383 736.389 423.219 737.061 423.219C737.612 423.219 738.097 423.331 738.517 423.555C738.937 423.77 739.264 424.078 739.497 424.479V420.363H740.897V430.443H739.637L739.497 429.351C739.357 429.566 739.175 429.771 738.951 429.967C738.727 430.154 738.456 430.308 738.139 430.429C737.822 430.551 737.458 430.611 737.047 430.611ZM737.271 429.393C737.71 429.393 738.097 429.291 738.433 429.085C738.769 428.88 739.026 428.591 739.203 428.217C739.39 427.844 739.483 427.41 739.483 426.915C739.483 426.421 739.39 425.991 739.203 425.627C739.026 425.254 738.769 424.965 738.433 424.759C738.097 424.545 737.71 424.437 737.271 424.437C736.851 424.437 736.473 424.545 736.137 424.759C735.801 424.965 735.54 425.254 735.353 425.627C735.166 425.991 735.073 426.421 735.073 426.915C735.073 427.41 735.166 427.844 735.353 428.217C735.54 428.591 735.801 428.88 736.137 429.085C736.473 429.291 736.851 429.393 737.271 429.393ZM745.149 430.611C744.571 430.611 744.09 430.513 743.707 430.317C743.325 430.121 743.04 429.86 742.853 429.533C742.667 429.197 742.573 428.838 742.573 428.455C742.573 427.989 742.695 427.592 742.937 427.265C743.18 426.929 743.525 426.673 743.973 426.495C744.421 426.318 744.958 426.229 745.583 426.229H747.417C747.417 425.819 747.357 425.478 747.235 425.207C747.114 424.937 746.932 424.736 746.689 424.605C746.456 424.465 746.157 424.395 745.793 424.395C745.373 424.395 745.014 424.498 744.715 424.703C744.417 424.899 744.23 425.193 744.155 425.585H742.755C742.811 425.091 742.979 424.671 743.259 424.325C743.549 423.971 743.917 423.7 744.365 423.513C744.813 423.317 745.289 423.219 745.793 423.219C746.456 423.219 747.011 423.336 747.459 423.569C747.907 423.803 748.243 424.134 748.467 424.563C748.701 424.983 748.817 425.487 748.817 426.075V430.443H747.599L747.487 429.253C747.385 429.44 747.263 429.617 747.123 429.785C746.983 429.953 746.815 430.098 746.619 430.219C746.433 430.341 746.213 430.434 745.961 430.499C745.719 430.574 745.448 430.611 745.149 430.611ZM745.415 429.477C745.714 429.477 745.985 429.417 746.227 429.295C746.47 429.174 746.675 429.011 746.843 428.805C747.021 428.591 747.151 428.353 747.235 428.091C747.329 427.821 747.38 427.545 747.389 427.265V427.223H745.723C745.322 427.223 744.995 427.275 744.743 427.377C744.501 427.471 744.323 427.601 744.211 427.769C744.099 427.937 744.043 428.133 744.043 428.357C744.043 428.591 744.095 428.791 744.197 428.959C744.309 429.118 744.468 429.244 744.673 429.337C744.879 429.431 745.126 429.477 745.415 429.477ZM753.366 430.443C752.918 430.443 752.531 430.373 752.204 430.233C751.877 430.093 751.625 429.86 751.448 429.533C751.271 429.207 751.182 428.763 751.182 428.203V424.577H749.964V423.387H751.182L751.35 421.623H752.582V423.387H754.584V424.577H752.582V428.217C752.582 428.619 752.666 428.894 752.834 429.043C753.002 429.183 753.291 429.253 753.702 429.253H754.514V430.443H753.366ZM756.226 430.443V423.387H757.626V430.443H756.226ZM756.94 422.057C756.669 422.057 756.445 421.973 756.268 421.805C756.1 421.637 756.016 421.423 756.016 421.161C756.016 420.909 756.1 420.704 756.268 420.545C756.445 420.377 756.669 420.293 756.94 420.293C757.201 420.293 757.42 420.377 757.598 420.545C757.775 420.704 757.864 420.909 757.864 421.161C757.864 421.423 757.775 421.637 757.598 421.805C757.42 421.973 757.201 422.057 756.94 422.057ZM762.848 430.611C762.185 430.611 761.588 430.457 761.056 430.149C760.533 429.841 760.118 429.412 759.81 428.861C759.511 428.301 759.362 427.657 759.362 426.929C759.362 426.183 759.516 425.534 759.824 424.983C760.132 424.423 760.552 423.989 761.084 423.681C761.616 423.373 762.213 423.219 762.876 423.219C763.548 423.219 764.145 423.373 764.668 423.681C765.19 423.989 765.601 424.419 765.9 424.969C766.208 425.52 766.362 426.169 766.362 426.915C766.362 427.662 766.208 428.311 765.9 428.861C765.601 429.412 765.186 429.841 764.654 430.149C764.122 430.457 763.52 430.611 762.848 430.611ZM762.848 429.407C763.23 429.407 763.576 429.314 763.884 429.127C764.201 428.941 764.453 428.665 764.64 428.301C764.836 427.928 764.934 427.466 764.934 426.915C764.934 426.365 764.84 425.907 764.654 425.543C764.467 425.17 764.215 424.89 763.898 424.703C763.59 424.517 763.249 424.423 762.876 424.423C762.502 424.423 762.157 424.517 761.84 424.703C761.522 424.89 761.266 425.17 761.07 425.543C760.883 425.907 760.79 426.365 760.79 426.915C760.79 427.466 760.883 427.928 761.07 428.301C761.266 428.665 761.518 428.941 761.826 429.127C762.143 429.314 762.484 429.407 762.848 429.407ZM768.009 430.443V423.387H769.269L769.353 424.591C769.577 424.171 769.894 423.84 770.305 423.597C770.715 423.345 771.187 423.219 771.719 423.219C772.279 423.219 772.759 423.331 773.161 423.555C773.562 423.779 773.875 424.12 774.099 424.577C774.323 425.025 774.435 425.59 774.435 426.271V430.443H773.035V426.411C773.035 425.758 772.89 425.263 772.601 424.927C772.311 424.591 771.891 424.423 771.341 424.423C770.977 424.423 770.65 424.512 770.361 424.689C770.071 424.857 769.838 425.109 769.661 425.445C769.493 425.781 769.409 426.192 769.409 426.677V430.443H768.009ZM776.785 430.513C776.515 430.513 776.291 430.429 776.113 430.261C775.945 430.084 775.861 429.874 775.861 429.631C775.861 429.379 775.945 429.169 776.113 429.001C776.291 428.824 776.515 428.735 776.785 428.735C777.056 428.735 777.275 428.824 777.443 429.001C777.611 429.169 777.695 429.379 777.695 429.631C777.695 429.874 777.611 430.084 777.443 430.261C777.275 430.429 777.056 430.513 776.785 430.513ZM776.785 424.997C776.515 424.997 776.291 424.913 776.113 424.745C775.945 424.568 775.861 424.358 775.861 424.115C775.861 423.863 775.945 423.653 776.113 423.485C776.291 423.308 776.515 423.219 776.785 423.219C777.056 423.219 777.275 423.308 777.443 423.485C777.611 423.653 777.695 423.863 777.695 424.115C777.695 424.358 777.611 424.568 777.443 424.745C777.275 424.913 777.056 424.997 776.785 424.997Z" fill="#25262B"/>
<rect x="792" y="412.443" width="66" height="26" rx="4" fill="#B3014D"/>
<path d="M801.022 430.443V420.643H804.032C805.171 420.643 806.113 420.844 806.86 421.245C807.607 421.647 808.157 422.216 808.512 422.953C808.876 423.681 809.058 424.549 809.058 425.557C809.058 426.565 808.876 427.433 808.512 428.161C808.157 428.889 807.607 429.454 806.86 429.855C806.123 430.247 805.18 430.443 804.032 430.443H801.022ZM802.422 429.267H803.976C804.881 429.267 805.6 429.118 806.132 428.819C806.664 428.521 807.042 428.096 807.266 427.545C807.499 426.985 807.616 426.323 807.616 425.557C807.616 424.783 807.499 424.115 807.266 423.555C807.042 422.995 806.664 422.566 806.132 422.267C805.6 421.969 804.881 421.819 803.976 421.819H802.422V429.267ZM813.865 430.611C813.193 430.611 812.595 430.457 812.073 430.149C811.55 429.841 811.139 429.412 810.841 428.861C810.551 428.311 810.407 427.671 810.407 426.943C810.407 426.197 810.551 425.548 810.841 424.997C811.139 424.437 811.55 424.003 812.073 423.695C812.595 423.378 813.202 423.219 813.893 423.219C814.583 423.219 815.176 423.373 815.671 423.681C816.165 423.989 816.548 424.4 816.819 424.913C817.089 425.417 817.225 425.977 817.225 426.593C817.225 426.687 817.22 426.789 817.211 426.901C817.211 427.004 817.206 427.121 817.197 427.251H811.429V426.257H815.825C815.797 425.669 815.601 425.212 815.237 424.885C814.873 424.549 814.42 424.381 813.879 424.381C813.496 424.381 813.146 424.47 812.829 424.647C812.511 424.815 812.255 425.067 812.059 425.403C811.872 425.73 811.779 426.145 811.779 426.649V427.041C811.779 427.564 811.872 428.007 812.059 428.371C812.255 428.726 812.511 428.997 812.829 429.183C813.146 429.361 813.491 429.449 813.865 429.449C814.313 429.449 814.681 429.351 814.971 429.155C815.26 428.959 815.475 428.693 815.615 428.357H817.015C816.893 428.787 816.688 429.174 816.399 429.519C816.109 429.855 815.75 430.121 815.321 430.317C814.901 430.513 814.415 430.611 813.865 430.611ZM822.042 430.611C821.361 430.611 820.754 430.457 820.222 430.149C819.69 429.832 819.27 429.398 818.962 428.847C818.663 428.297 818.514 427.657 818.514 426.929C818.514 426.192 818.663 425.548 818.962 424.997C819.27 424.437 819.69 424.003 820.222 423.695C820.754 423.378 821.361 423.219 822.042 423.219C822.901 423.219 823.619 423.443 824.198 423.891C824.777 424.339 825.145 424.946 825.304 425.711H823.848C823.755 425.301 823.54 424.983 823.204 424.759C822.877 424.535 822.485 424.423 822.028 424.423C821.655 424.423 821.309 424.521 820.992 424.717C820.675 424.904 820.418 425.184 820.222 425.557C820.035 425.921 819.942 426.374 819.942 426.915C819.942 427.317 819.998 427.676 820.11 427.993C820.222 428.301 820.371 428.563 820.558 428.777C820.754 428.992 820.978 429.155 821.23 429.267C821.482 429.37 821.748 429.421 822.028 429.421C822.336 429.421 822.611 429.375 822.854 429.281C823.106 429.179 823.316 429.029 823.484 428.833C823.661 428.637 823.783 428.404 823.848 428.133H825.304C825.145 428.88 824.777 429.482 824.198 429.939C823.619 430.387 822.901 430.611 822.042 430.611ZM826.942 430.443V420.363H828.342V430.443H826.942ZM830.363 430.443V423.387H831.763V430.443H830.363ZM831.077 422.057C830.806 422.057 830.582 421.973 830.405 421.805C830.237 421.637 830.153 421.423 830.153 421.161C830.153 420.909 830.237 420.704 830.405 420.545C830.582 420.377 830.806 420.293 831.077 420.293C831.338 420.293 831.557 420.377 831.735 420.545C831.912 420.704 832.001 420.909 832.001 421.161C832.001 421.423 831.912 421.637 831.735 421.805C831.557 421.973 831.338 422.057 831.077 422.057ZM833.765 430.443V423.387H835.025L835.109 424.591C835.333 424.171 835.65 423.84 836.061 423.597C836.471 423.345 836.943 423.219 837.475 423.219C838.035 423.219 838.515 423.331 838.917 423.555C839.318 423.779 839.631 424.12 839.855 424.577C840.079 425.025 840.191 425.59 840.191 426.271V430.443H838.791V426.411C838.791 425.758 838.646 425.263 838.357 424.927C838.067 424.591 837.647 424.423 837.097 424.423C836.733 424.423 836.406 424.512 836.117 424.689C835.827 424.857 835.594 425.109 835.417 425.445C835.249 425.781 835.165 426.192 835.165 426.677V430.443H833.765ZM845.173 430.611C844.501 430.611 843.904 430.457 843.381 430.149C842.859 429.841 842.448 429.412 842.149 428.861C841.86 428.311 841.715 427.671 841.715 426.943C841.715 426.197 841.86 425.548 842.149 424.997C842.448 424.437 842.859 424.003 843.381 423.695C843.904 423.378 844.511 423.219 845.201 423.219C845.892 423.219 846.485 423.373 846.979 423.681C847.474 423.989 847.857 424.4 848.127 424.913C848.398 425.417 848.533 425.977 848.533 426.593C848.533 426.687 848.529 426.789 848.519 426.901C848.519 427.004 848.515 427.121 848.505 427.251H842.737V426.257H847.133C847.105 425.669 846.909 425.212 846.545 424.885C846.181 424.549 845.729 424.381 845.187 424.381C844.805 424.381 844.455 424.47 844.137 424.647C843.82 424.815 843.563 425.067 843.367 425.403C843.181 425.73 843.087 426.145 843.087 426.649V427.041C843.087 427.564 843.181 428.007 843.367 428.371C843.563 428.726 843.82 428.997 844.137 429.183C844.455 429.361 844.8 429.449 845.173 429.449C845.621 429.449 845.99 429.351 846.279 429.155C846.569 428.959 846.783 428.693 846.923 428.357H848.323C848.202 428.787 847.997 429.174 847.707 429.519C847.418 429.855 847.059 430.121 846.629 430.317C846.209 430.513 845.724 430.611 845.173 430.611Z" fill="#FAF5F3"/>
<rect opacity="0.5" x="232" y="446.443" width="626" height="102" rx="16" fill="#D9D9D9"/>
<circle cx="287.5" cy="496.943" r="31.5" fill="#D9D9D9"/>
<rect x="333" y="482.443" width="72" height="16" rx="8" fill="#D9D9D9"/>
<rect x="416" y="482.443" width="52" height="16" rx="8" fill="#D9D9D9"/>
</g>
<rect x="34" y="66.4434" width="154" height="384" rx="8.96557" fill="#F5F5F5"/>
<rect x="44.8279" y="78.2227" width="62.5088" height="15.9336" rx="7.96681" fill="#D9D9D9"/>
<rect x="44.8279" y="101.51" width="39.2207" height="15.9334" rx="7.9667" fill="#D9D9D9"/>
<rect x="90.1774" y="101.51" width="39.2207" height="15.9334" rx="7.9667" fill="#D9D9D9"/>
<rect x="135.527" y="101.51" width="39.2207" height="15.9334" rx="7.9667" fill="#D9D9D9"/>
<rect x="113.465" y="78.2227" width="41.672" height="15.9334" rx="7.9667" fill="#D9D9D9"/>
</g>
<path d="M1.00764 30.9924H917.964V16.1223C917.964 7.77471 911.197 1.00764 902.849 1.00764H16.1224C7.77475 1.00764 1.00764 7.77471 1.00764 16.1223V30.9924Z" fill="#B3014D" stroke="#25262B" stroke-width="2.01529"/>
<ellipse cx="17.9856" cy="16.4434" rx="6" ry="6" fill="#F63A80"/>
<ellipse cx="35.986" cy="16.4434" rx="6" ry="6" fill="#FDD81B"/>
<ellipse cx="53.9863" cy="16.4434" rx="6" ry="6" fill="#00C14E"/>
<defs>
<clipPath id="clip0_337_33762">
<rect width="918.971" height="467.547" fill="white" transform="translate(0 30.4062)"/>
</clipPath>
<clipPath id="clip1_337_33762">
<rect width="671" height="431" fill="white" transform="translate(209 63.4434)"/>
</clipPath>
</defs>
</svg>
