<svg width="590" height="180" viewBox="0 0 590 180" fill="none" xmlns="http://www.w3.org/2000/svg">
<g clip-path="url(#clip0_404_37098)">
<rect width="590" height="370" fill="white"/>
<path d="M10 9C10 6.79086 11.7909 5 14 5H50V13H14C11.7909 13 10 11.2091 10 9V9Z" fill="#FAF5F3"/>
<path d="M58 8.78182C58 6.69318 59.6932 5 61.7818 5V5C64.1115 5 66 6.88854 66 9.21818V13H58V8.78182Z" fill="#FAF5F3"/>
<path d="M74 5H86C88.2091 5 90 6.79086 90 9V9C90 11.2091 88.2091 13 86 13H74V5Z" fill="#FAF5F3"/>
<path d="M98 8.78182C98 6.69318 99.6932 5 101.782 5V5C104.111 5 106 6.88854 106 9.21818V13H98V8.78182Z" fill="#FAF5F3"/>
<path d="M114 8.78182C114 6.69318 115.693 5 117.782 5V5C120.111 5 122 6.88854 122 9.21818V13H114V8.78182Z" fill="#FAF5F3"/>
<path d="M130 8.78182C130 6.69318 131.693 5 133.782 5V5C136.111 5 138 6.88854 138 9.21818V13H130V8.78182Z" fill="#FAF5F3"/>
<path d="M146 5H182V5C182 9.41828 178.418 13 174 13H146V5Z" fill="#FAF5F3"/>
<path d="M190 8.78182C190 6.69318 191.693 5 193.782 5V5C196.111 5 198 6.88854 198 9.21818V13H190V8.78182Z" fill="#FAF5F3"/>
<path d="M206 5H218C220.209 5 222 6.79086 222 9V9C222 11.2091 220.209 13 218 13H206V5Z" fill="#FAF5F3"/>
<path d="M230 8.78182C230 6.69318 231.693 5 233.782 5V5C236.111 5 238 6.88854 238 9.21818V13H230V8.78182Z" fill="#FAF5F3"/>
<path d="M246 5H258C260.209 5 262 6.79086 262 9V9C262 11.2091 260.209 13 258 13H246V5Z" fill="#FAF5F3"/>
<path d="M270 9C270 6.79086 271.791 5 274 5H310V13H274C271.791 13 270 11.2091 270 9V9Z" fill="#FAF5F3"/>
<path d="M318 8.78182C318 6.69318 319.693 5 321.782 5V5C324.111 5 326 6.88854 326 9.21818V13H318V8.78182Z" fill="#FAF5F3"/>
<path d="M334 8.78182C334 6.69318 335.693 5 337.782 5V5C340.111 5 342 6.88854 342 9.21818V13H334V8.78182Z" fill="#FAF5F3"/>
<path d="M350 13C350 8.58172 353.582 5 358 5H386V13H350V13Z" fill="#FAF5F3"/>
<path d="M394 5H430V5C430 9.41828 426.418 13 422 13H394V5Z" fill="#FAF5F3"/>
<path d="M438 8.78182C438 6.69318 439.693 5 441.782 5V5C444.111 5 446 6.88854 446 9.21818V13H442C439.791 13 438 11.2091 438 9V8.78182Z" fill="#FAF5F3"/>
<path d="M454 13C454 8.58172 457.582 5 462 5H490V13H454V13Z" fill="#FAF5F3"/>
<path d="M498 9C498 6.79086 499.791 5 502 5H521C525.418 5 529 8.58172 529 13V13H502C499.791 13 498 11.2091 498 9V9Z" fill="#FAF5F3"/>
<path d="M537 8.78182C537 6.69318 538.693 5 540.782 5V5C543.111 5 545 6.88854 545 9.21818V13H541C538.791 13 537 11.2091 537 9V8.78182Z" fill="#FAF5F3"/>
<path d="M553 9C553 6.79086 554.791 5 557 5H564C566.209 5 568 6.79086 568 9V9C568 11.2091 566.209 13 564 13H557C554.791 13 553 11.2091 553 9V9Z" fill="#FAF5F3"/>
<path d="M584 8.78182C584 6.69318 582.307 5 580.218 5V5C577.889 5 576 6.88854 576 9.21818V13H580C582.209 13 584 11.2091 584 9V8.78182Z" fill="#FAF5F3"/>
<path d="M10 24.7818C10 22.6932 11.6932 21 13.7818 21V21C16.1115 21 18 22.8885 18 25.2182V29H10V24.7818Z" fill="#FAF5F3"/>
<path d="M26 21H38C40.2091 21 42 22.7909 42 25V25C42 27.2091 40.2091 29 38 29H26V21Z" fill="#FAF5F3"/>
<path d="M50 24.7818C50 22.6932 51.6932 21 53.7818 21V21C56.1115 21 58 22.8885 58 25.2182V29H50V24.7818Z" fill="#FAF5F3"/>
<path d="M66 25C66 22.7909 67.7909 21 70 21H106V29H70C67.7909 29 66 27.2091 66 25V25Z" fill="#FAF5F3"/>
<path d="M114 24.7818C114 22.6932 115.693 21 117.782 21V21C120.111 21 122 22.8885 122 25.2182V29H114V24.7818Z" fill="#FAF5F3"/>
<path d="M130 24.7818C130 22.6932 131.693 21 133.782 21V21C136.111 21 138 22.8885 138 25.2182V29H130V24.7818Z" fill="#FAF5F3"/>
<path d="M146 21H158C160.209 21 162 22.7909 162 25V25C162 27.2091 160.209 29 158 29H146V21Z" fill="#FAF5F3"/>
<path d="M170 29C170 24.5817 173.582 21 178 21H206V29H170V29Z" fill="#FAF5F3"/>
<path d="M214 24.7818C214 22.6932 215.693 21 217.782 21V21C220.111 21 222 22.8885 222 25.2182V29H214V24.7818Z" fill="#FAF5F3"/>
<path d="M230 21H266V21C266 25.4183 262.418 29 258 29H230V21Z" fill="#FAF5F3"/>
<path d="M274 25C274 22.7909 275.791 21 278 21H297C301.418 21 305 24.5817 305 29V29H278C275.791 29 274 27.2091 274 25V25Z" fill="#FAF5F3"/>
<path d="M313 24.7818C313 22.6932 314.693 21 316.782 21V21C319.111 21 321 22.8885 321 25.2182V29H317C314.791 29 313 27.2091 313 25V24.7818Z" fill="#FAF5F3"/>
<path d="M329 25C329 22.7909 330.791 21 333 21H340C342.209 21 344 22.7909 344 25V25C344 27.2091 342.209 29 340 29H333C330.791 29 329 27.2091 329 25V25Z" fill="#FAF5F3"/>
<path d="M360 24.7818C360 22.6932 358.307 21 356.218 21V21C353.889 21 352 22.8885 352 25.2182V29H356C358.209 29 360 27.2091 360 25V24.7818Z" fill="#FAF5F3"/>
<path d="M368 24.7818C368 22.6932 369.693 21 371.782 21V21C374.111 21 376 22.8885 376 25.2182V29H368V24.7818Z" fill="#FAF5F3"/>
<path d="M384 21H396C398.209 21 400 22.7909 400 25V25C400 27.2091 398.209 29 396 29H384V21Z" fill="#FAF5F3"/>
<path d="M408 25C408 22.7909 409.791 21 412 21H448V29H412C409.791 29 408 27.2091 408 25V25Z" fill="#FAF5F3"/>
<path d="M456 24.7818C456 22.6932 457.693 21 459.782 21V21C462.111 21 464 22.8885 464 25.2182V29H456V24.7818Z" fill="#FAF5F3"/>
<path d="M472 24.7818C472 22.6932 473.693 21 475.782 21V21C478.111 21 480 22.8885 480 25.2182V29H472V24.7818Z" fill="#FAF5F3"/>
<path d="M488 29C488 24.5817 491.582 21 496 21H524V29H488V29Z" fill="#FAF5F3"/>
<path d="M532 21H568V21C568 25.4183 564.418 29 560 29H532V21Z" fill="#FAF5F3"/>
<path d="M576 24.7818C576 22.6932 577.693 21 579.782 21V21C582.111 21 584 22.8885 584 25.2182V29H580C577.791 29 576 27.2091 576 25V24.7818Z" fill="#FAF5F3"/>
<path d="M10 40.7818C10 38.6932 11.6932 37 13.7818 37V37C16.1115 37 18 38.8885 18 41.2182V45H10V40.7818Z" fill="#FAF5F3"/>
<path d="M26 40.7818C26 38.6932 27.6932 37 29.7818 37V37C32.1115 37 34 38.8885 34 41.2182V45H26V40.7818Z" fill="#FAF5F3"/>
<path d="M42 40.7818C42 38.6932 43.6932 37 45.7818 37V37C48.1115 37 50 38.8885 50 41.2182V45H42V40.7818Z" fill="#FAF5F3"/>
<path d="M58 40.7818C58 38.6932 59.6932 37 61.7818 37V37C64.1115 37 66 38.8885 66 41.2182V45H58V40.7818Z" fill="#FAF5F3"/>
<path d="M74 37H86C88.2091 37 90 38.7909 90 41V41C90 43.2091 88.2091 45 86 45H74V37Z" fill="#FAF5F3"/>
<path d="M98 37H134V37C134 41.4183 130.418 45 126 45H98V37Z" fill="#FAF5F3"/>
<path d="M142 40.7818C142 38.6932 143.693 37 145.782 37V37C148.111 37 150 38.8885 150 41.2182V45H142V40.7818Z" fill="#FAF5F3"/>
<path d="M158 37H170C172.209 37 174 38.7909 174 41V41C174 43.2091 172.209 45 170 45H158V37Z" fill="#FAF5F3"/>
<path d="M182 45C182 40.5817 185.582 37 190 37H218V45H182V45Z" fill="#FAF5F3"/>
<path d="M226 41C226 38.7909 227.791 37 230 37H249C253.418 37 257 40.5817 257 45V45H230C227.791 45 226 43.2091 226 41V41Z" fill="#FAF5F3"/>
<path d="M265 40.7818C265 38.6932 266.693 37 268.782 37V37C271.111 37 273 38.8885 273 41.2182V45H269C266.791 45 265 43.2091 265 41V40.7818Z" fill="#FAF5F3"/>
<path d="M281 41C281 38.7909 282.791 37 285 37H292C294.209 37 296 38.7909 296 41V41C296 43.2091 294.209 45 292 45H285C282.791 45 281 43.2091 281 41V41Z" fill="#FAF5F3"/>
<path d="M312 40.7818C312 38.6932 310.307 37 308.218 37V37C305.889 37 304 38.8885 304 41.2182V45H308C310.209 45 312 43.2091 312 41V40.7818Z" fill="#FAF5F3"/>
<path d="M320 41C320 38.7909 321.791 37 324 37H360V45H324C321.791 45 320 43.2091 320 41V41Z" fill="#FAF5F3"/>
<path d="M368 40.7818C368 38.6932 369.693 37 371.782 37V37C374.111 37 376 38.8885 376 41.2182V45H368V40.7818Z" fill="#FAF5F3"/>
<path d="M384 37H396C398.209 37 400 38.7909 400 41V41C400 43.2091 398.209 45 396 45H384V37Z" fill="#FAF5F3"/>
<path d="M408 41C408 38.7909 409.791 37 412 37H448V45H412C409.791 45 408 43.2091 408 41V41Z" fill="#FAF5F3"/>
<path d="M456 40.7818C456 38.6932 457.693 37 459.782 37V37C462.111 37 464 38.8885 464 41.2182V45H456V40.7818Z" fill="#FAF5F3"/>
<path d="M472 40.7818C472 38.6932 473.693 37 475.782 37V37C478.111 37 480 38.8885 480 41.2182V45H472V40.7818Z" fill="#FAF5F3"/>
<path d="M488 45C488 40.5817 491.582 37 496 37H524V45H488V45Z" fill="#FAF5F3"/>
<path d="M532 37H568V37C568 41.4183 564.418 45 560 45H532V37Z" fill="#FAF5F3"/>
<path d="M576 40.7818C576 38.6932 577.693 37 579.782 37V37C582.111 37 584 38.8885 584 41.2182V45H580C577.791 45 576 43.2091 576 41V40.7818Z" fill="#FAF5F3"/>
<path d="M18 56.7818C18 54.6932 16.3068 53 14.2182 53V53C11.8885 53 10 54.8885 10 57.2182V61H14C16.2091 61 18 59.2091 18 57V56.7818Z" fill="#FAF5F3"/>
<path d="M26 56.7818C26 54.6932 27.6932 53 29.7818 53V53C32.1115 53 34 54.8885 34 57.2182V61H26V56.7818Z" fill="#FAF5F3"/>
<path d="M42 53H54C56.2091 53 58 54.7909 58 57V57C58 59.2091 56.2091 61 54 61H42V53Z" fill="#FAF5F3"/>
<path d="M66 56.7818C66 54.6932 67.6932 53 69.7818 53V53C72.1115 53 74 54.8885 74 57.2182V61H66V56.7818Z" fill="#FAF5F3"/>
<path d="M82 56.7818C82 54.6932 83.6932 53 85.7818 53V53C88.1115 53 90 54.8885 90 57.2182V61H82V56.7818Z" fill="#FAF5F3"/>
<path d="M98 56.7818C98 54.6932 99.6932 53 101.782 53V53C104.111 53 106 54.8885 106 57.2182V61H98V56.7818Z" fill="#FAF5F3"/>
<path d="M114 53H126C128.209 53 130 54.7909 130 57V57C130 59.2091 128.209 61 126 61H114V53Z" fill="#FAF5F3"/>
<path d="M138 57C138 54.7909 139.791 53 142 53H178V61H142C139.791 61 138 59.2091 138 57V57Z" fill="#FAF5F3"/>
<path d="M186 56.7818C186 54.6932 187.693 53 189.782 53V53C192.111 53 194 54.8885 194 57.2182V61H186V56.7818Z" fill="#FAF5F3"/>
<path d="M202 56.7818C202 54.6932 203.693 53 205.782 53V53C208.111 53 210 54.8885 210 57.2182V61H202V56.7818Z" fill="#FAF5F3"/>
<path d="M218 61C218 56.5817 221.582 53 226 53H254V61H218V61Z" fill="#FAF5F3"/>
<path d="M262 53H298V53C298 57.4183 294.418 61 290 61H262V53Z" fill="#FAF5F3"/>
<path d="M306 56.7818C306 54.6932 307.693 53 309.782 53V53C312.111 53 314 54.8885 314 57.2182V61H310C307.791 61 306 59.2091 306 57V56.7818Z" fill="#FAF5F3"/>
<path d="M322 56.7818C322 54.6932 323.693 53 325.782 53V53C328.111 53 330 54.8885 330 57.2182V61H322V56.7818Z" fill="#FAF5F3"/>
<path d="M338 53H374V53C374 57.4183 370.418 61 366 61H338V53Z" fill="#FAF5F3"/>
<path d="M382 56.7818C382 54.6932 383.693 53 385.782 53V53C388.111 53 390 54.8885 390 57.2182V61H382V56.7818Z" fill="#FAF5F3"/>
<path d="M398 53H410C412.209 53 414 54.7909 414 57V57C414 59.2091 412.209 61 410 61H398V53Z" fill="#FAF5F3"/>
<path d="M422 61C422 56.5817 425.582 53 430 53H458V61H422V61Z" fill="#FAF5F3"/>
<path d="M466 57C466 54.7909 467.791 53 470 53H489C493.418 53 497 56.5817 497 61V61H470C467.791 61 466 59.2091 466 57V57Z" fill="#FAF5F3"/>
<path d="M505 57C505 54.7909 506.791 53 509 53H545V61H509C506.791 61 505 59.2091 505 57V57Z" fill="#FAF5F3"/>
<path d="M553 56.7818C553 54.6932 554.693 53 556.782 53V53C559.111 53 561 54.8885 561 57.2182V61H557C554.791 61 553 59.2091 553 57V56.7818Z" fill="#FAF5F3"/>
<path d="M569 57C569 54.7909 570.791 53 573 53H580C582.209 53 584 54.7909 584 57V57C584 59.2091 582.209 61 580 61H573C570.791 61 569 59.2091 569 57V57Z" fill="#FAF5F3"/>
<path d="M10 72.7818C10 70.6932 11.6932 69 13.7818 69V69C16.1115 69 18 70.8885 18 73.2182V77H10V72.7818Z" fill="#FAF5F3"/>
<path d="M26 69H38C40.2091 69 42 70.7909 42 73V73C42 75.2091 40.2091 77 38 77H26V69Z" fill="#FAF5F3"/>
<path d="M50 77C50 72.5817 53.5817 69 58 69H86V77H50V77Z" fill="#FAF5F3"/>
<path d="M94 72.7818C94 70.6932 95.6932 69 97.7818 69V69C100.111 69 102 70.8885 102 73.2182V77H94V72.7818Z" fill="#FAF5F3"/>
<path d="M110 72.7818C110 70.6932 111.693 69 113.782 69V69C116.111 69 118 70.8885 118 73.2182V77H110V72.7818Z" fill="#FAF5F3"/>
<path d="M126 69H138C140.209 69 142 70.7909 142 73V73C142 75.2091 140.209 77 138 77H126V69Z" fill="#FAF5F3"/>
<path d="M150 73C150 70.7909 151.791 69 154 69H190V77H154C151.791 77 150 75.2091 150 73V73Z" fill="#FAF5F3"/>
<path d="M198 72.7818C198 70.6932 199.693 69 201.782 69V69C204.111 69 206 70.8885 206 73.2182V77H198V72.7818Z" fill="#FAF5F3"/>
<path d="M214 72.7818C214 70.6932 215.693 69 217.782 69V69C220.111 69 222 70.8885 222 73.2182V77H214V72.7818Z" fill="#FAF5F3"/>
<path d="M230 77C230 72.5817 233.582 69 238 69H266V77H230V77Z" fill="#FAF5F3"/>
<path d="M274 69H310V69C310 73.4183 306.418 77 302 77H274V69Z" fill="#FAF5F3"/>
<path d="M318 72.7818C318 70.6932 319.693 69 321.782 69V69C324.111 69 326 70.8885 326 73.2182V77H322C319.791 77 318 75.2091 318 73V72.7818Z" fill="#FAF5F3"/>
<path d="M334 73C334 70.7909 335.791 69 338 69H374V77H338C335.791 77 334 75.2091 334 73V73Z" fill="#FAF5F3"/>
<path d="M382 72.7818C382 70.6932 383.693 69 385.782 69V69C388.111 69 390 70.8885 390 73.2182V77H382V72.7818Z" fill="#FAF5F3"/>
<path d="M398 72.7818C398 70.6932 399.693 69 401.782 69V69C404.111 69 406 70.8885 406 73.2182V77H398V72.7818Z" fill="#FAF5F3"/>
<path d="M414 73C414 70.7909 415.791 69 418 69H425C427.209 69 429 70.7909 429 73V73C429 75.2091 427.209 77 425 77H418C415.791 77 414 75.2091 414 73V73Z" fill="#FAF5F3"/>
<path d="M437 72.7818C437 70.6932 438.693 69 440.782 69V69C443.111 69 445 70.8885 445 73.2182V77H437V72.7818Z" fill="#FAF5F3"/>
<path d="M453 69H489V69C489 73.4183 485.418 77 481 77H453V69Z" fill="#FAF5F3"/>
<path d="M497 69H509C511.209 69 513 70.7909 513 73V73C513 75.2091 511.209 77 509 77H497V69Z" fill="#FAF5F3"/>
<path d="M521 73C521 70.7909 522.791 69 525 69H544C548.418 69 552 72.5817 552 77V77H525C522.791 77 521 75.2091 521 73V73Z" fill="#FAF5F3"/>
<path d="M560 72.7818C560 70.6932 561.693 69 563.782 69V69C566.111 69 568 70.8885 568 73.2182V77H564C561.791 77 560 75.2091 560 73V72.7818Z" fill="#FAF5F3"/>
<path d="M584 72.7818C584 70.6932 582.307 69 580.218 69V69C577.889 69 576 70.8885 576 73.2182V77H580C582.209 77 584 75.2091 584 73V72.7818Z" fill="#FAF5F3"/>
<path d="M18 88.7818C18 86.6932 16.3068 85 14.2182 85V85C11.8885 85 10 86.8885 10 89.2182V93H14C16.2091 93 18 91.2091 18 89V88.7818Z" fill="#FAF5F3"/>
<path d="M26 88.7818C26 86.6932 27.6932 85 29.7818 85V85C32.1115 85 34 86.8885 34 89.2182V93H26V88.7818Z" fill="#FAF5F3"/>
<path d="M42 85H54C56.2091 85 58 86.7909 58 89V89C58 91.2091 56.2091 93 54 93H42V85Z" fill="#FAF5F3"/>
<path d="M66 88.7818C66 86.6932 67.6932 85 69.7818 85V85C72.1115 85 74 86.8885 74 89.2182V93H66V88.7818Z" fill="#FAF5F3"/>
<path d="M82 85H94C96.2091 85 98 86.7909 98 89V89C98 91.2091 96.2091 93 94 93H82V85Z" fill="#FAF5F3"/>
<path d="M106 89C106 86.7909 107.791 85 110 85H146V93H110C107.791 93 106 91.2091 106 89V89Z" fill="#FAF5F3"/>
<path d="M154 88.7818C154 86.6932 155.693 85 157.782 85V85C160.111 85 162 86.8885 162 89.2182V93H154V88.7818Z" fill="#FAF5F3"/>
<path d="M170 88.7818C170 86.6932 171.693 85 173.782 85V85C176.111 85 178 86.8885 178 89.2182V93H170V88.7818Z" fill="#FAF5F3"/>
<path d="M186 93C186 88.5817 189.582 85 194 85H222V93H186V93Z" fill="#FAF5F3"/>
<path d="M230 85H266V85C266 89.4183 262.418 93 258 93H230V85Z" fill="#FAF5F3"/>
<path d="M274 88.7818C274 86.6932 275.693 85 277.782 85V85C280.111 85 282 86.8885 282 89.2182V93H278C275.791 93 274 91.2091 274 89V88.7818Z" fill="#FAF5F3"/>
<path d="M290 88.7818C290 86.6932 291.693 85 293.782 85V85C296.111 85 298 86.8885 298 89.2182V93H290V88.7818Z" fill="#FAF5F3"/>
<path d="M306 88.7818C306 86.6932 307.693 85 309.782 85V85C312.111 85 314 86.8885 314 89.2182V93H306V88.7818Z" fill="#FAF5F3"/>
<path d="M322 88.7818C322 86.6932 323.693 85 325.782 85V85C328.111 85 330 86.8885 330 89.2182V93H322V88.7818Z" fill="#FAF5F3"/>
<path d="M338 85H374V85C374 89.4183 370.418 93 366 93H338V85Z" fill="#FAF5F3"/>
<path d="M382 88.7818C382 86.6932 383.693 85 385.782 85V85C388.111 85 390 86.8885 390 89.2182V93H382V88.7818Z" fill="#FAF5F3"/>
<path d="M398 85H410C412.209 85 414 86.7909 414 89V89C414 91.2091 412.209 93 410 93H398V85Z" fill="#FAF5F3"/>
<path d="M422 93C422 88.5817 425.582 85 430 85H458V93H422V93Z" fill="#FAF5F3"/>
<path d="M466 89C466 86.7909 467.791 85 470 85H489C493.418 85 497 88.5817 497 93V93H470C467.791 93 466 91.2091 466 89V89Z" fill="#FAF5F3"/>
<path d="M505 89C505 86.7909 506.791 85 509 85H545V93H509C506.791 93 505 91.2091 505 89V89Z" fill="#FAF5F3"/>
<path d="M553 88.7818C553 86.6932 554.693 85 556.782 85V85C559.111 85 561 86.8885 561 89.2182V93H557C554.791 93 553 91.2091 553 89V88.7818Z" fill="#FAF5F3"/>
<path d="M569 89C569 86.7909 570.791 85 573 85H580C582.209 85 584 86.7909 584 89V89C584 91.2091 582.209 93 580 93H573C570.791 93 569 91.2091 569 89V89Z" fill="#FAF5F3"/>
<path d="M10 101H46V101C46 105.418 42.4183 109 38 109H10V101Z" fill="#FAF5F3"/>
<path d="M54 104.782C54 102.693 55.6932 101 57.7818 101V101C60.1115 101 62 102.889 62 105.218V109H54V104.782Z" fill="#FAF5F3"/>
<path d="M70 101H82C84.2091 101 86 102.791 86 105V105C86 107.209 84.2091 109 82 109H70V101Z" fill="#FAF5F3"/>
<path d="M94 104.782C94 102.693 95.6932 101 97.7818 101V101C100.111 101 102 102.889 102 105.218V109H94V104.782Z" fill="#FAF5F3"/>
<path d="M110 105C110 102.791 111.791 101 114 101H150V109H114C111.791 109 110 107.209 110 105V105Z" fill="#FAF5F3"/>
<path d="M158 104.782C158 102.693 159.693 101 161.782 101V101C164.111 101 166 102.889 166 105.218V109H158V104.782Z" fill="#FAF5F3"/>
<path d="M414 104.782C414 102.693 415.693 101 417.782 101V101C420.111 101 422 102.889 422 105.218V109H414V104.782Z" fill="#FAF5F3"/>
<path d="M430 101H442C444.209 101 446 102.791 446 105V105C446 107.209 444.209 109 442 109H430V101Z" fill="#FAF5F3"/>
<path d="M454 105C454 102.791 455.791 101 458 101H477C481.418 101 485 104.582 485 109V109H458C455.791 109 454 107.209 454 105V105Z" fill="#FAF5F3"/>
<path d="M493 104.782C493 102.693 494.693 101 496.782 101V101C499.111 101 501 102.889 501 105.218V109H497C494.791 109 493 107.209 493 105V104.782Z" fill="#FAF5F3"/>
<path d="M509 105C509 102.791 510.791 101 513 101H520C522.209 101 524 102.791 524 105V105C524 107.209 522.209 109 520 109H513C510.791 109 509 107.209 509 105V105Z" fill="#FAF5F3"/>
<path d="M540 104.782C540 102.693 538.307 101 536.218 101V101C533.889 101 532 102.889 532 105.218V109H536C538.209 109 540 107.209 540 105V104.782Z" fill="#FAF5F3"/>
<path d="M548 109C548 104.582 551.582 101 556 101H584V109H548V109Z" fill="#FAF5F3"/>
<path d="M10 120.782C10 118.693 11.6932 117 13.7818 117V117C16.1115 117 18 118.889 18 121.218V125H10V120.782Z" fill="#FAF5F3"/>
<path d="M26 117H38C40.2091 117 42 118.791 42 121V121C42 123.209 40.2091 125 38 125H26V117Z" fill="#FAF5F3"/>
<path d="M50 120.782C50 118.693 51.6932 117 53.7818 117V117C56.1115 117 58 118.889 58 121.218V125H50V120.782Z" fill="#FAF5F3"/>
<path d="M66 121C66 118.791 67.7909 117 70 117H106V125H70C67.7909 125 66 123.209 66 121V121Z" fill="#FAF5F3"/>
<path d="M114 120.782C114 118.693 115.693 117 117.782 117V117C120.111 117 122 118.889 122 121.218V125H114V120.782Z" fill="#FAF5F3"/>
<path d="M130 120.782C130 118.693 131.693 117 133.782 117V117C136.111 117 138 118.889 138 121.218V125H130V120.782Z" fill="#FAF5F3"/>
<path d="M146 117H158C160.209 117 162 118.791 162 121V121C162 123.209 160.209 125 158 125H146V117Z" fill="#FAF5F3"/>
<path d="M170 120.782C170 118.693 171.693 117 173.782 117V117C176.111 117 178 118.889 178 121.218V125H170V120.782Z" fill="#FAF5F3"/>
<path d="M438 120.782C438 118.693 439.693 117 441.782 117V117C444.111 117 446 118.889 446 121.218V125H438V120.782Z" fill="#FAF5F3"/>
<path d="M454 117H490V117C490 121.418 486.418 125 482 125H454V117Z" fill="#FAF5F3"/>
<path d="M498 121C498 118.791 499.791 117 502 117H521C525.418 117 529 120.582 529 125V125H502C499.791 125 498 123.209 498 121V121Z" fill="#FAF5F3"/>
<path d="M537 120.782C537 118.693 538.693 117 540.782 117V117C543.111 117 545 118.889 545 121.218V125H541C538.791 125 537 123.209 537 121V120.782Z" fill="#FAF5F3"/>
<path d="M553 121C553 118.791 554.791 117 557 117H564C566.209 117 568 118.791 568 121V121C568 123.209 566.209 125 564 125H557C554.791 125 553 123.209 553 121V121Z" fill="#FAF5F3"/>
<path d="M584 120.782C584 118.693 582.307 117 580.218 117V117C577.889 117 576 118.889 576 121.218V125H580C582.209 125 584 123.209 584 121V120.782Z" fill="#FAF5F3"/>
<path d="M10 136.782C10 134.693 11.6932 133 13.7818 133V133C16.1115 133 18 134.889 18 137.218V141H10V136.782Z" fill="#FAF5F3"/>
<path d="M26 133H38C40.2091 133 42 134.791 42 137V137C42 139.209 40.2091 141 38 141H26V133Z" fill="#FAF5F3"/>
<path d="M50 136.782C50 134.693 51.6932 133 53.7818 133V133C56.1115 133 58 134.889 58 137.218V141H50V136.782Z" fill="#FAF5F3"/>
<path d="M66 136.782C66 134.693 67.6932 133 69.7818 133V133C72.1115 133 74 134.889 74 137.218V141H66V136.782Z" fill="#FAF5F3"/>
<path d="M82 136.782C82 134.693 83.6932 133 85.7818 133V133C88.1115 133 90 134.889 90 137.218V141H82V136.782Z" fill="#FAF5F3"/>
<path d="M98 133H134V133C134 137.418 130.418 141 126 141H98V133Z" fill="#FAF5F3"/>
<path d="M142 136.782C142 134.693 143.693 133 145.782 133V133C148.111 133 150 134.889 150 137.218V141H142V136.782Z" fill="#FAF5F3"/>
<path d="M158 133H170C172.209 133 174 134.791 174 137V137C174 139.209 172.209 141 170 141H158V133Z" fill="#FAF5F3"/>
<path d="M385 141C385 136.582 388.582 133 393 133H421V141H385V141Z" fill="#FAF5F3"/>
<path d="M429 133H465V133C465 137.418 461.418 141 457 141H429V133Z" fill="#FAF5F3"/>
<path d="M473 136.782C473 134.693 474.693 133 476.782 133V133C479.111 133 481 134.889 481 137.218V141H477C474.791 141 473 139.209 473 137V136.782Z" fill="#FAF5F3"/>
<path d="M489 137C489 134.791 490.791 133 493 133H529V141H493C490.791 141 489 139.209 489 137V137Z" fill="#FAF5F3"/>
<path d="M537 136.782C537 134.693 538.693 133 540.782 133V133C543.111 133 545 134.889 545 137.218V141H541C538.791 141 537 139.209 537 137V136.782Z" fill="#FAF5F3"/>
<path d="M553 137C553 134.791 554.791 133 557 133H564C566.209 133 568 134.791 568 137V137C568 139.209 566.209 141 564 141H557C554.791 141 553 139.209 553 137V137Z" fill="#FAF5F3"/>
<path d="M584 136.782C584 134.693 582.307 133 580.218 133V133C577.889 133 576 134.889 576 137.218V141H580C582.209 141 584 139.209 584 137V136.782Z" fill="#FAF5F3"/>
<path d="M10 152.782C10 150.693 11.6932 149 13.7818 149V149C16.1115 149 18 150.889 18 153.218V157H10V152.782Z" fill="#FAF5F3"/>
<path d="M26 149H38C40.2091 149 42 150.791 42 153V153C42 155.209 40.2091 157 38 157H26V149Z" fill="#FAF5F3"/>
<path d="M50 157C50 152.582 53.5817 149 58 149H86V157H50V157Z" fill="#FAF5F3"/>
<path d="M94 152.782C94 150.693 95.6932 149 97.7818 149V149C100.111 149 102 150.889 102 153.218V157H94V152.782Z" fill="#FAF5F3"/>
<path d="M110 152.782C110 150.693 111.693 149 113.782 149V149C116.111 149 118 150.889 118 153.218V157H110V152.782Z" fill="#FAF5F3"/>
<path d="M126 149H162V149C162 153.418 158.418 157 154 157H126V149Z" fill="#FAF5F3"/>
<path d="M170 152.782C170 150.693 171.693 149 173.782 149V149C176.111 149 178 150.889 178 153.218V157H170V152.782Z" fill="#FAF5F3"/>
<path d="M186 153C186 150.791 187.791 149 190 149H197C199.209 149 201 150.791 201 153V153C201 155.209 199.209 157 197 157H190C187.791 157 186 155.209 186 153V153Z" fill="#FAF5F3"/>
<path d="M209 152.782C209 150.693 210.693 149 212.782 149V149C215.111 149 217 150.889 217 153.218V157H209V152.782Z" fill="#FAF5F3"/>
<path d="M225 153C225 150.791 226.791 149 229 149H265V157H229C226.791 157 225 155.209 225 153V153Z" fill="#FAF5F3"/>
<path d="M273 149H285C287.209 149 289 150.791 289 153V153C289 155.209 287.209 157 285 157H273V149Z" fill="#FAF5F3"/>
<path d="M297 153C297 150.791 298.791 149 301 149H320C324.418 149 328 152.582 328 157V157H301C298.791 157 297 155.209 297 153V153Z" fill="#FAF5F3"/>
<path d="M336 152.782C336 150.693 337.693 149 339.782 149V149C342.111 149 344 150.889 344 153.218V157H340C337.791 157 336 155.209 336 153V152.782Z" fill="#FAF5F3"/>
<path d="M352 152.782C352 150.693 353.693 149 355.782 149V149C358.111 149 360 150.889 360 153.218V157H352V152.782Z" fill="#FAF5F3"/>
<path d="M368 149H380C382.209 149 384 150.791 384 153V153C384 155.209 382.209 157 380 157H368V149Z" fill="#FAF5F3"/>
<path d="M392 153C392 150.791 393.791 149 396 149H432V157H396C393.791 157 392 155.209 392 153V153Z" fill="#FAF5F3"/>
<path d="M440 152.782C440 150.693 441.693 149 443.782 149V149C446.111 149 448 150.889 448 153.218V157H440V152.782Z" fill="#FAF5F3"/>
<path d="M456 152.782C456 150.693 457.693 149 459.782 149V149C462.111 149 464 150.889 464 153.218V157H456V152.782Z" fill="#FAF5F3"/>
<path d="M472 157C472 152.582 475.582 149 480 149H508V157H472V157Z" fill="#FAF5F3"/>
<path d="M516 149H552V149C552 153.418 548.418 157 544 157H516V149Z" fill="#FAF5F3"/>
<path d="M560 152.782C560 150.693 561.693 149 563.782 149V149C566.111 149 568 150.889 568 153.218V157H564C561.791 157 560 155.209 560 153V152.782Z" fill="#FAF5F3"/>
<path d="M584 152.782C584 150.693 582.307 149 580.218 149V149C577.889 149 576 150.889 576 153.218V157H580C582.209 157 584 155.209 584 153V152.782Z" fill="#FAF5F3"/>
<path d="M10 168.782C10 166.693 11.6932 165 13.7818 165V165C16.1115 165 18 166.889 18 169.218V173H10V168.782Z" fill="#FAF5F3"/>
<path d="M26 165H38C40.2091 165 42 166.791 42 169V169C42 171.209 40.2091 173 38 173H26V165Z" fill="#FAF5F3"/>
<path d="M50 168.782C50 166.693 51.6932 165 53.7818 165V165C56.1115 165 58 166.889 58 169.218V173H50V168.782Z" fill="#FAF5F3"/>
<path d="M66 168.782C66 166.693 67.6932 165 69.7818 165V165C72.1115 165 74 166.889 74 169.218V173H66V168.782Z" fill="#FAF5F3"/>
<path d="M82 168.782C82 166.693 83.6932 165 85.7818 165V165C88.1115 165 90 166.889 90 169.218V173H82V168.782Z" fill="#FAF5F3"/>
<path d="M98 165H110C112.209 165 114 166.791 114 169V169C114 171.209 112.209 173 110 173H98V165Z" fill="#FAF5F3"/>
<path d="M122 169C122 166.791 123.791 165 126 165H162V173H126C123.791 173 122 171.209 122 169V169Z" fill="#FAF5F3"/>
<path d="M170 168.782C170 166.693 171.693 165 173.782 165V165C176.111 165 178 166.889 178 169.218V173H170V168.782Z" fill="#FAF5F3"/>
<path d="M186 168.782C186 166.693 187.693 165 189.782 165V165C192.111 165 194 166.889 194 169.218V173H186V168.782Z" fill="#FAF5F3"/>
<path d="M202 173C202 168.582 205.582 165 210 165H238V173H202V173Z" fill="#FAF5F3"/>
<path d="M246 165H282V165C282 169.418 278.418 173 274 173H246V165Z" fill="#FAF5F3"/>
<path d="M290 168.782C290 166.693 291.693 165 293.782 165V165C296.111 165 298 166.889 298 169.218V173H294C291.791 173 290 171.209 290 169V168.782Z" fill="#FAF5F3"/>
<path d="M306 168.782C306 166.693 307.693 165 309.782 165V165C312.111 165 314 166.889 314 169.218V173H306V168.782Z" fill="#FAF5F3"/>
<path d="M322 165H358V165C358 169.418 354.418 173 350 173H322V165Z" fill="#FAF5F3"/>
<path d="M366 168.782C366 166.693 367.693 165 369.782 165V165C372.111 165 374 166.889 374 169.218V173H366V168.782Z" fill="#FAF5F3"/>
<path d="M382 165H394C396.209 165 398 166.791 398 169V169C398 171.209 396.209 173 394 173H382V165Z" fill="#FAF5F3"/>
<path d="M406 173C406 168.582 409.582 165 414 165H442V173H406V173Z" fill="#FAF5F3"/>
<path d="M450 169C450 166.791 451.791 165 454 165H490V173H454C451.791 173 450 171.209 450 169V169Z" fill="#FAF5F3"/>
<path d="M498 168.782C498 166.693 499.693 165 501.782 165V165C504.111 165 506 166.889 506 169.218V173H502C499.791 173 498 171.209 498 169V168.782Z" fill="#FAF5F3"/>
<path d="M514 169C514 166.791 515.791 165 518 165H525C527.209 165 529 166.791 529 169V169C529 171.209 527.209 173 525 173H518C515.791 173 514 171.209 514 169V169Z" fill="#FAF5F3"/>
<path d="M545 168.782C545 166.693 543.307 165 541.218 165V165C538.889 165 537 166.889 537 169.218V173H541C543.209 173 545 171.209 545 169V168.782Z" fill="#FAF5F3"/>
<path d="M553 169C553 166.791 554.791 165 557 165H576C580.418 165 584 168.582 584 173V173H557C554.791 173 553 171.209 553 169V169Z" fill="#FAF5F3"/>
</g>
<path d="M208 101.985C208 100.889 208.889 100 209.985 100V100C211.209 100 212.2 100.991 212.2 102.215V104.2H208V101.985Z" fill="#6D46DE"/>
<path d="M216.4 100H222.7C223.86 100 224.8 100.94 224.8 102.1V102.1C224.8 103.26 223.86 104.2 222.7 104.2H216.4V100Z" fill="#00C14E"/>
<path d="M229 101.985C229 100.889 229.889 100 230.985 100V100C232.209 100 233.2 100.991 233.2 102.215V104.2H229V101.985Z" fill="#6D46DE"/>
<path d="M237.4 101.985C237.4 100.889 238.289 100 239.385 100V100C240.609 100 241.6 100.991 241.6 102.215V104.2H237.4V101.985Z" fill="#6D46DE"/>
<path d="M245.8 101.985C245.8 100.889 246.689 100 247.786 100V100C249.009 100 250 100.991 250 102.215V104.2H245.8V101.985Z" fill="#6D46DE"/>
<path d="M208 101.985C208 100.889 208.889 100 209.985 100V100C211.209 100 212.2 100.991 212.2 102.215V104.2H208V101.985Z" fill="#6D46DE"/>
<path d="M216.4 100H222.7C223.86 100 224.8 100.94 224.8 102.1V102.1C224.8 103.26 223.86 104.2 222.7 104.2H216.4V100Z" fill="#00C14E"/>
<path d="M229 101.985C229 100.889 229.889 100 230.985 100V100C232.209 100 233.2 100.991 233.2 102.215V104.2H229V101.985Z" fill="#6D46DE"/>
<path d="M237.4 101.985C237.4 100.889 238.289 100 239.385 100V100C240.609 100 241.6 100.991 241.6 102.215V104.2H237.4V101.985Z" fill="#6D46DE"/>
<path d="M245.8 101.985C245.8 100.889 246.689 100 247.786 100V100C249.009 100 250 100.991 250 102.215V104.2H245.8V101.985Z" fill="#6D46DE"/>
<path d="M248.015 100C249.111 100 250 100.889 250 101.985V101.985C250 103.209 249.009 104.2 247.785 104.2H245.8V100H248.015Z" fill="#6D46DE"/>
<path d="M250 108.4V114.7C250 115.86 249.06 116.8 247.9 116.8V116.8C246.74 116.8 245.8 115.86 245.8 114.7V108.4H250Z" fill="#00C14E"/>
<path d="M248.015 121C249.111 121 250 121.889 250 122.985V122.985C250 124.209 249.009 125.2 247.785 125.2H245.8V121H248.015Z" fill="#6D46DE"/>
<path d="M248.015 129.4C249.111 129.4 250 130.289 250 131.385V131.385C250 132.608 249.009 133.6 247.785 133.6H245.8V129.4H248.015Z" fill="#6D46DE"/>
<path d="M248.015 137.8C249.111 137.8 250 138.689 250 139.785V139.785C250 141.008 249.009 142 247.785 142H245.8V137.8H248.015Z" fill="#6D46DE"/>
<path d="M209.985 142C208.889 142 208 141.111 208 140.015V140.015C208 138.791 208.991 137.8 210.215 137.8H212.2V142H209.985Z" fill="#6D46DE"/>
<path d="M208 133.6V127.3C208 126.14 208.94 125.2 210.1 125.2V125.2C211.26 125.2 212.2 126.14 212.2 127.3V133.6H208Z" fill="#00C14E"/>
<path d="M209.985 121C208.889 121 208 120.111 208 119.015V119.015C208 117.791 208.991 116.8 210.215 116.8H212.2V121H209.985Z" fill="#6D46DE"/>
<path d="M209.985 112.6C208.889 112.6 208 111.711 208 110.615V110.615C208 109.392 208.991 108.4 210.215 108.4H212.2V112.6H209.985Z" fill="#6D46DE"/>
<path d="M209.985 104.2C208.889 104.2 208 103.311 208 102.215V102.215C208 100.992 208.991 100 210.215 100H212.2V104.2H209.985Z" fill="#6D46DE"/>
<path d="M250 140.015C250 141.111 249.111 142 248.015 142V142C246.791 142 245.8 141.009 245.8 139.785V137.8H250V140.015Z" fill="#6D46DE"/>
<path d="M241.6 142H235.3C234.14 142 233.2 141.06 233.2 139.9V139.9C233.2 138.74 234.14 137.8 235.3 137.8H241.6V142Z" fill="#00C14E"/>
<path d="M229 140.015C229 141.111 228.111 142 227.015 142V142C225.791 142 224.8 141.009 224.8 139.785V137.8H229V140.015Z" fill="#6D46DE"/>
<path d="M220.6 140.015C220.6 141.111 219.711 142 218.615 142V142C217.391 142 216.4 141.009 216.4 139.785V137.8H220.6V140.015Z" fill="#6D46DE"/>
<path d="M212.2 140.015C212.2 141.111 211.311 142 210.214 142V142C208.991 142 208 141.009 208 139.785V137.8H212.2V140.015Z" fill="#6D46DE"/>
<g clip-path="url(#clip1_404_37098)">
<path d="M234.138 123.612H230.5L232.414 128.275C232.547 128.597 232.393 128.961 232.091 129.098L230.404 129.832C230.089 129.969 229.739 129.811 229.605 129.499L227.785 125.072L224.812 128.128C224.417 128.536 223.776 128.224 223.776 127.689V114.348C223.776 112.905 224.812 112.327 225.797 113.482L234.567 122.542C234.961 122.926 234.67 123.608 234.138 123.608V123.612Z" fill="#6D46DE"/>
</g>
<path d="M270.663 113.382C271.947 113.382 272.973 113.742 273.741 114.462C274.521 115.182 274.911 116.136 274.911 117.324C274.911 118.488 274.491 119.424 273.651 120.132C272.823 120.84 271.683 121.194 270.231 121.194H266.631V126H264.831V113.382H270.663ZM270.051 119.664C271.011 119.664 271.749 119.466 272.265 119.07C272.793 118.662 273.057 118.08 273.057 117.324C273.057 116.592 272.811 116.022 272.319 115.614C271.839 115.194 271.167 114.984 270.303 114.984H266.631V119.664H270.051ZM281.703 126.27C280.095 126.27 278.781 125.748 277.761 124.704C276.753 123.66 276.249 122.358 276.249 120.798C276.249 119.238 276.753 117.942 277.761 116.91C278.781 115.866 280.095 115.344 281.703 115.344C283.323 115.344 284.637 115.866 285.645 116.91C286.653 117.942 287.157 119.238 287.157 120.798C287.157 122.358 286.653 123.66 285.645 124.704C284.637 125.748 283.323 126.27 281.703 126.27ZM279.003 123.588C279.675 124.308 280.575 124.668 281.703 124.668C282.831 124.668 283.725 124.308 284.385 123.588C285.057 122.856 285.393 121.926 285.393 120.798C285.393 119.658 285.057 118.734 284.385 118.026C283.725 117.306 282.831 116.946 281.703 116.946C280.575 116.946 279.675 117.306 279.003 118.026C278.343 118.734 278.013 119.658 278.013 120.798C278.013 121.926 278.343 122.856 279.003 123.588ZM290.51 114.768C290.186 114.768 289.916 114.66 289.7 114.444C289.484 114.228 289.376 113.964 289.376 113.652C289.376 113.352 289.484 113.1 289.7 112.896C289.928 112.68 290.198 112.572 290.51 112.572C290.822 112.572 291.086 112.68 291.302 112.896C291.518 113.1 291.626 113.352 291.626 113.652C291.626 113.964 291.518 114.228 291.302 114.444C291.086 114.66 290.822 114.768 290.51 114.768ZM289.646 126V115.74H291.356V126H289.646ZM300.163 115.344C301.459 115.344 302.473 115.776 303.205 116.64C303.949 117.492 304.321 118.692 304.321 120.24V126H302.611V120.654C302.611 119.382 302.371 118.446 301.891 117.846C301.411 117.246 300.661 116.946 299.641 116.946C298.597 116.946 297.781 117.276 297.193 117.936C296.605 118.596 296.311 119.43 296.311 120.438V126H294.619V115.74H296.311V117.846C297.043 116.178 298.327 115.344 300.163 115.344ZM313.435 115.74V117.162H310.375V126H308.647V117.162H305.767V115.74H308.647V113.706L310.375 113.13V115.74H313.435ZM332.933 118.458V119.898H330.395V126H328.757V123.228C328.421 124.2 327.803 124.95 326.903 125.478C326.003 126.006 324.965 126.27 323.789 126.27C322.409 126.27 321.281 125.928 320.405 125.244C319.529 124.548 319.091 123.672 319.091 122.616C319.091 121.824 319.337 121.14 319.829 120.564C320.321 119.976 320.951 119.592 321.719 119.412C321.107 119.256 320.597 118.92 320.189 118.404C319.781 117.876 319.577 117.264 319.577 116.568C319.577 115.548 320.021 114.708 320.909 114.048C321.809 113.376 323.009 113.04 324.509 113.04C325.805 113.04 326.939 113.316 327.911 113.868V115.632C327.047 114.936 325.925 114.588 324.545 114.588C323.549 114.588 322.769 114.774 322.205 115.146C321.641 115.518 321.359 116.004 321.359 116.604C321.359 117.156 321.611 117.606 322.115 117.954C322.631 118.29 323.375 118.458 324.347 118.458H328.757V116.316L330.395 115.776V118.458H332.933ZM324.185 124.668C325.517 124.668 326.609 124.284 327.461 123.516C328.325 122.748 328.757 121.554 328.757 119.934V119.898H323.969C322.925 119.898 322.145 120.126 321.629 120.582C321.125 121.026 320.873 121.584 320.873 122.256C320.873 122.988 321.167 123.576 321.755 124.02C322.343 124.452 323.153 124.668 324.185 124.668ZM344.113 126.27C342.397 126.27 341.005 125.754 339.937 124.722C338.881 123.678 338.353 122.37 338.353 120.798C338.353 119.226 338.893 117.924 339.973 116.892C341.053 115.86 342.463 115.344 344.203 115.344C345.739 115.344 346.999 115.758 347.983 116.586V118.35C346.939 117.414 345.715 116.946 344.311 116.946C343.039 116.946 342.025 117.306 341.269 118.026C340.513 118.746 340.135 119.664 340.135 120.78C340.135 121.908 340.513 122.838 341.269 123.57C342.025 124.302 343.069 124.668 344.401 124.668C345.733 124.668 346.945 124.212 348.037 123.3V124.938C346.909 125.826 345.601 126.27 344.113 126.27ZM350.501 126V113.04H352.193V126H350.501ZM356.375 114.768C356.051 114.768 355.781 114.66 355.565 114.444C355.349 114.228 355.241 113.964 355.241 113.652C355.241 113.352 355.349 113.1 355.565 112.896C355.793 112.68 356.063 112.572 356.375 112.572C356.687 112.572 356.951 112.68 357.167 112.896C357.383 113.1 357.491 113.352 357.491 113.652C357.491 113.964 357.383 114.228 357.167 114.444C356.951 114.66 356.687 114.768 356.375 114.768ZM355.511 126V115.74H357.221V126H355.511ZM365.47 126.27C363.754 126.27 362.362 125.754 361.294 124.722C360.238 123.678 359.71 122.37 359.71 120.798C359.71 119.226 360.25 117.924 361.33 116.892C362.41 115.86 363.82 115.344 365.56 115.344C367.096 115.344 368.356 115.758 369.34 116.586V118.35C368.296 117.414 367.072 116.946 365.668 116.946C364.396 116.946 363.382 117.306 362.626 118.026C361.87 118.746 361.492 119.664 361.492 120.78C361.492 121.908 361.87 122.838 362.626 123.57C363.382 124.302 364.426 124.668 365.758 124.668C367.09 124.668 368.302 124.212 369.394 123.3V124.938C368.266 125.826 366.958 126.27 365.47 126.27ZM381.327 126H378.933L373.533 120.582V126H371.805V113.04H373.533V119.988L378.519 115.74H380.967L375.387 120.24L381.327 126Z" fill="black"/>
<defs>
<clipPath id="clip0_404_37098">
<path d="M0 0H590V172C590 176.418 586.418 180 582 180H8.00001C3.58173 180 0 176.418 0 172V0Z" fill="white"/>
</clipPath>
<clipPath id="clip1_404_37098">
<rect x="223.776" y="112.327" width="10.9725" height="17.556" rx="0.5775" fill="white"/>
</clipPath>
</defs>
</svg>
