<svg width="108" height="25" viewBox="0 0 108 25" fill="none" xmlns="http://www.w3.org/2000/svg">
<path d="M13.2796 0.904593H10.9911C10.8507 0.904593 10.7369 0.803343 10.7369 0.678445V0.226148C10.7369 0.10125 10.8507 0 10.9911 0H13.2796C13.42 0 13.5339 0.10125 13.5339 0.226148V0.678445C13.5339 0.803343 13.42 0.904593 13.2796 0.904593Z" fill="#FAF5F3"/>
<path d="M11.577 4.76109L11.3701 3.07255C11.3526 2.92966 11.4759 2.80469 11.6345 2.80469H12.6362C12.7948 2.80469 12.9181 2.92966 12.9006 3.07255L12.6937 4.76109C12.6787 4.88329 12.5648 4.97571 12.4292 4.97571H11.8414C11.7058 4.97571 11.5919 4.88329 11.577 4.76109Z" fill="#FAF5F3"/>
<path d="M12 7.83179V6.73336C12 6.61203 12.0943 6.51367 12.2105 6.51367H12.4211C12.5373 6.51367 12.6316 6.61203 12.6316 6.73336V7.83179C12.6316 7.95312 12.5373 8.05148 12.4211 8.05148H12.2105C12.0943 8.05148 12 7.95312 12 7.83179Z" fill="#FAF5F3"/>
<path d="M8.77642 1.42822L6.67759 2.15451C6.5488 2.19908 6.40114 2.14799 6.34779 2.04039L6.1546 1.65074C6.10124 1.54314 6.16241 1.41978 6.2912 1.37521L8.39007 0.648919C8.51888 0.604352 8.66651 0.655445 8.71988 0.763046L8.91302 1.15269C8.96638 1.2603 8.90523 1.38365 8.77642 1.42822Z" fill="#FAF5F3"/>
<path d="M8.75612 5.11554L8.05566 3.54769C7.9964 3.41501 8.04382 3.24828 8.1574 3.19032L8.87464 2.82414C8.98816 2.76617 9.11734 2.84271 9.15157 2.98819L9.55567 4.70727C9.58494 4.83165 9.53363 4.96321 9.43656 5.0128L9.01561 5.22772C8.91853 5.27724 8.80678 5.22895 8.75612 5.11554Z" fill="#FAF5F3"/>
<path d="M10.0835 8.18731L9.58386 7.17292C9.52866 7.06085 9.59192 6.93235 9.72515 6.88598L9.96641 6.80191C10.0996 6.75554 10.2523 6.80874 10.3076 6.92074L10.8071 7.93521C10.8623 8.04727 10.799 8.17577 10.6658 8.22214L10.4246 8.30622C10.2914 8.35258 10.1387 8.29938 10.0835 8.18731Z" fill="#FAF5F3"/>
<path d="M5.16012 3.22202L3.57463 4.81162C3.47734 4.90917 3.31959 4.90917 3.2223 4.81162L2.86997 4.45836C2.77267 4.3608 2.77267 4.20265 2.86997 4.1051L4.45546 2.51554C4.55275 2.418 4.71049 2.418 4.80779 2.51554L5.16012 2.86878C5.25741 2.96633 5.25741 3.12448 5.16012 3.22202Z" fill="#FAF5F3"/>
<path d="M6.36621 6.73181L5.05208 5.67779C4.94088 5.58861 4.93169 5.42228 5.03239 5.32132L5.6686 4.68346C5.7693 4.58251 5.93518 4.59168 6.02414 4.70318L7.07545 6.02071C7.15151 6.11606 7.14393 6.25343 7.05784 6.33974L6.68443 6.71415C6.59834 6.80046 6.46128 6.80806 6.36621 6.73181Z" fill="#FAF5F3"/>
<path d="M8.97066 9.1551L8.102 8.28413C8.00604 8.18798 8.00604 8.03195 8.102 7.93581L8.27575 7.76161C8.37164 7.6654 8.5272 7.6654 8.62317 7.76161L9.49189 8.63252C9.58785 8.72873 9.58785 8.8847 9.49189 8.98091L9.31815 9.1551C9.22218 9.25131 9.06662 9.25131 8.97066 9.1551Z" fill="#FAF5F3"/>
<path d="M2.14936 6.69501L1.42495 8.79935C1.38049 8.92842 1.25746 8.98974 1.15013 8.9363L0.761489 8.74259C0.654167 8.68909 0.603204 8.54107 0.647657 8.41193L1.37207 6.30766C1.41653 6.17852 1.53957 6.1172 1.64689 6.17071L2.03553 6.36435C2.14285 6.41785 2.19381 6.56587 2.14936 6.69501Z" fill="#FAF5F3"/>
<path d="M4.69468 9.5804L2.98003 9.1752C2.83492 9.14088 2.75858 9.01137 2.81639 8.89756L3.18163 8.17847C3.23945 8.06466 3.40574 8.01706 3.53808 8.07647L5.10185 8.77874C5.21498 8.82953 5.26318 8.94162 5.21376 9.03889L4.9994 9.46092C4.94997 9.55825 4.81873 9.60969 4.69468 9.5804Z" fill="#FAF5F3"/>
<path d="M7.91402 10.8353L6.90218 10.3344C6.79042 10.2791 6.73734 10.126 6.78364 9.99241L6.86746 9.75053C6.91376 9.61695 7.04188 9.55353 7.15365 9.60887L8.16547 10.1098C8.27724 10.1651 8.33031 10.3182 8.284 10.4518L8.2002 10.6937C8.15389 10.8272 8.02573 10.8906 7.91402 10.8353Z" fill="#FAF5F3"/>
<path d="M0.902256 10.7481V13.0425C0.902256 13.1833 0.801268 13.2974 0.676692 13.2974H0.225564C0.100988 13.2974 0 13.1833 0 13.0425V10.7481C0 10.6073 0.100989 10.4932 0.225564 10.4932H0.676692C0.801268 10.4932 0.902256 10.6073 0.902256 10.7481Z" fill="#FAF5F3"/>
<path d="M4.74838 12.4557L3.06417 12.6631C2.92164 12.6807 2.797 12.557 2.797 12.398V11.3937C2.797 11.2347 2.92164 11.1111 3.06417 11.1286L4.74838 11.336C4.87023 11.3511 4.96241 11.4652 4.96241 11.6012V12.1905C4.96241 12.3265 4.87023 12.4406 4.74838 12.4557Z" fill="#FAF5F3"/>
<path d="M7.81093 12.393H6.71534C6.59432 12.393 6.49622 12.2985 6.49622 12.1819V11.9708C6.49622 11.8543 6.59432 11.7598 6.71534 11.7598H7.81093C7.93195 11.7598 8.03005 11.8543 8.03005 11.9708V12.1819C8.03005 12.2985 7.93195 12.393 7.81093 12.393Z" fill="#FAF5F3"/>
<path d="M1.42495 15.2637L2.14936 17.368C2.19381 17.4972 2.14285 17.6452 2.03553 17.6987L1.64688 17.8923C1.53957 17.9458 1.41653 17.8845 1.37208 17.7554L0.647657 15.6511C0.603204 15.522 0.654168 15.3739 0.761489 15.3204L1.15013 15.1267C1.25745 15.0733 1.38049 15.1346 1.42495 15.2637Z" fill="#FAF5F3"/>
<path d="M5.10184 15.2835L3.53808 15.9858C3.40574 16.0452 3.23945 15.9976 3.18163 15.8838L2.81639 15.1647C2.75858 15.0509 2.83492 14.9213 2.98002 14.887L4.69468 14.4818C4.81873 14.4525 4.94997 14.504 4.9994 14.6013L5.21375 15.0233C5.26318 15.1206 5.21498 15.2327 5.10184 15.2835Z" fill="#FAF5F3"/>
<path d="M8.16547 13.9526L7.15365 14.4535C7.04188 14.5088 6.91375 14.4454 6.86746 14.3118L6.78364 14.0699C6.73735 13.9363 6.79041 13.7832 6.90218 13.7279L7.91402 13.227C8.02573 13.1717 8.15389 13.2351 8.2002 13.3687L8.284 13.6105C8.33031 13.7441 8.27724 13.8972 8.16547 13.9526Z" fill="#FAF5F3"/>
<path d="M3.57463 19.2509L5.16012 20.8405C5.25741 20.9381 5.25741 21.0962 5.16012 21.1938L4.80779 21.547C4.71049 21.6445 4.55275 21.6445 4.45546 21.547L2.86997 19.9574C2.77267 19.8599 2.77267 19.7017 2.86997 19.6042L3.2223 19.2509C3.31959 19.1533 3.47734 19.1533 3.57463 19.2509Z" fill="#FAF5F3"/>
<path d="M7.07545 18.0409L6.02414 19.3584C5.93517 19.4699 5.7693 19.4792 5.6686 19.3782L5.03239 18.7403C4.93169 18.6393 4.94088 18.4731 5.05208 18.3839L6.3662 17.3298C6.46127 17.2536 6.59833 17.2612 6.68443 17.3476L7.05784 17.7219C7.14393 17.8082 7.15151 17.9456 7.07545 18.0409Z" fill="#FAF5F3"/>
<path d="M9.49194 15.4306L8.62319 16.3016C8.52722 16.3978 8.37165 16.3978 8.27569 16.3016L8.102 16.1275C8.00604 16.0312 8.00604 15.8753 8.102 15.7791L8.97069 14.908C9.06666 14.8119 9.22222 14.8119 9.31819 14.908L9.49194 15.0822C9.58784 15.1785 9.58784 15.3344 9.49194 15.4306Z" fill="#FAF5F3"/>
<path d="M6.67758 21.9067L8.77642 22.633C8.90523 22.6776 8.96638 22.8009 8.91302 22.9085L8.71981 23.2982C8.66644 23.4058 8.51881 23.4569 8.39001 23.4123L6.29121 22.686C6.16241 22.6414 6.10124 22.5181 6.1546 22.4105L6.34779 22.0209C6.40114 21.9132 6.54879 21.8622 6.67758 21.9067Z" fill="#FAF5F3"/>
<path d="M9.55569 19.3552L9.15153 21.0743C9.11737 21.2198 8.98813 21.2964 8.87461 21.2384L8.15736 20.8722C8.04385 20.8143 7.99637 20.6475 8.05569 20.5148L8.75609 18.947C8.80681 18.8336 8.91856 18.7853 9.01564 18.8348L9.43658 19.0497C9.5336 19.0993 9.58491 19.2309 9.55569 19.3552Z" fill="#FAF5F3"/>
<path d="M10.8071 16.3994L10.3075 17.4139C10.2523 17.526 10.0996 17.5792 9.96636 17.5327L9.72518 17.4487C9.59195 17.4023 9.52869 17.2739 9.58382 17.1618L10.0834 16.1473C10.1386 16.0353 10.2913 15.9821 10.4246 16.0285L10.6658 16.1125C10.799 16.1589 10.8623 16.2874 10.8071 16.3994Z" fill="#FAF5F3"/>
<path d="M10.9911 23.1582H13.2796C13.42 23.1582 13.5339 23.2595 13.5339 23.3844V23.8366C13.5339 23.9615 13.42 24.0628 13.2796 24.0628H10.9911C10.8507 24.0628 10.7369 23.9615 10.7369 23.8366V23.3844C10.7369 23.2595 10.8507 23.1582 10.9911 23.1582Z" fill="#FAF5F3"/>
<path d="M12.423 19.6638L12.6299 21.3524C12.6474 21.4953 12.524 21.6202 12.3655 21.6202H11.3637C11.2052 21.6202 11.0818 21.4953 11.0994 21.3524L11.3063 19.6638C11.3213 19.5416 11.4351 19.4492 11.5707 19.4492H12.1586C12.2942 19.4492 12.408 19.5416 12.423 19.6638Z" fill="#FAF5F3"/>
<path d="M12.6316 16.2314V17.3298C12.6316 17.4512 12.5373 17.5495 12.4211 17.5495H12.2105C12.0943 17.5495 12 17.4512 12 17.3298V16.2314C12 16.1101 12.0943 16.0117 12.2105 16.0117H12.4211C12.5373 16.0117 12.6316 16.1101 12.6316 16.2314Z" fill="#FAF5F3"/>
<path d="M15.2235 22.633L17.3224 21.9067C17.4512 21.8622 17.5988 21.9133 17.6522 22.0209L17.8454 22.4105C17.8987 22.5181 17.8375 22.6415 17.7087 22.6861L15.6099 23.4123C15.4811 23.4569 15.3334 23.4058 15.2801 23.2982L15.0869 22.9086C15.0336 22.801 15.0947 22.6776 15.2235 22.633Z" fill="#FAF5F3"/>
<path d="M15.6047 18.947L16.3052 20.5149C16.3645 20.6475 16.317 20.8142 16.2035 20.8722L15.4862 21.2384C15.3727 21.2963 15.2435 21.2198 15.2093 21.0744L14.8052 19.3552C14.7759 19.2309 14.8272 19.0993 14.9243 19.0497L15.3453 18.8348C15.4423 18.7853 15.5541 18.8336 15.6047 18.947Z" fill="#FAF5F3"/>
<path d="M13.9165 16.1474L14.4161 17.1618C14.4713 17.2738 14.4081 17.4023 14.2748 17.4487L14.0336 17.5328C13.9004 17.5791 13.7476 17.5259 13.6924 17.4139L13.1928 16.3995C13.1377 16.2874 13.201 16.1589 13.3342 16.1125L13.5754 16.0285C13.7086 15.9821 13.8613 16.0353 13.9165 16.1474Z" fill="#FAF5F3"/>
<path d="M19.2008 20.8405L20.7863 19.2509C20.8836 19.1533 21.0413 19.1533 21.1386 19.2509L21.4909 19.6042C21.5882 19.7017 21.5882 19.8599 21.4909 19.9574L19.9055 21.547C19.8082 21.6445 19.6504 21.6445 19.5531 21.547L19.2008 21.1938C19.1035 21.0962 19.1035 20.9381 19.2008 20.8405Z" fill="#FAF5F3"/>
<path d="M17.9947 17.3298L19.3088 18.3839C19.4201 18.473 19.4292 18.6394 19.3285 18.7403L18.6923 19.3782C18.5916 19.4791 18.4258 19.47 18.3367 19.3585L17.2855 18.0409C17.2094 17.9456 17.217 17.8082 17.3031 17.7219L17.6765 17.3475C17.7626 17.2612 17.8996 17.2536 17.9947 17.3298Z" fill="#FAF5F3"/>
<path d="M15.3902 14.9081L16.2589 15.7791C16.3548 15.8752 16.3548 16.0312 16.2589 16.1274L16.0851 16.3016C15.9892 16.3978 15.8337 16.3978 15.7377 16.3016L14.869 15.4307C14.773 15.3345 14.773 15.1785 14.869 15.0823L15.0427 14.9081C15.1387 14.8119 15.2942 14.8119 15.3902 14.9081Z" fill="#FAF5F3"/>
<path d="M21.8507 17.368L22.5751 15.2637C22.6195 15.1346 22.7426 15.0733 22.8499 15.1268L23.2385 15.3204C23.3459 15.3739 23.3968 15.5219 23.3524 15.6511L22.6279 17.7553C22.5835 17.8845 22.4604 17.9458 22.3532 17.8924L21.9645 17.6986C21.8572 17.6451 21.8062 17.4971 21.8507 17.368Z" fill="#FAF5F3"/>
<path d="M19.3053 14.4819L21.02 14.887C21.1651 14.9213 21.2415 15.0508 21.1837 15.1646L20.8184 15.8837C20.7606 15.9976 20.5943 16.0452 20.4619 15.9857L18.8982 15.2835C18.7851 15.2327 18.7369 15.1206 18.7863 15.0233L19.0007 14.6013C19.0501 14.5039 19.1814 14.4525 19.3053 14.4819Z" fill="#FAF5F3"/>
<path d="M16.3567 13.227L17.3685 13.7279C17.4803 13.7832 17.5334 13.9364 17.4871 14.0699L17.4033 14.3118C17.357 14.4454 17.2288 14.5088 17.1171 14.4535L16.1052 13.9526C15.9935 13.8972 15.9404 13.7441 15.9867 13.6105L16.0705 13.3687C16.1168 13.2351 16.245 13.1717 16.3567 13.227Z" fill="#FAF5F3"/>
<path d="M23.0977 13.314V11.0196C23.0977 10.8788 23.1987 10.7646 23.3233 10.7646H23.7744C23.899 10.7646 24 10.8788 24 11.0196V13.314C24 13.4548 23.899 13.5689 23.7744 13.5689H23.3233C23.1987 13.5689 23.0977 13.4548 23.0977 13.314Z" fill="#FAF5F3"/>
<path d="M19.6126 11.6075L21.2968 11.4001C21.4393 11.3825 21.5639 11.5062 21.5639 11.6652V12.6695C21.5639 12.8285 21.4393 12.9521 21.2968 12.9346L19.6126 12.7272C19.4907 12.7121 19.3985 12.598 19.3985 12.462V11.8727C19.3985 11.7367 19.4907 11.6226 19.6126 11.6075Z" fill="#FAF5F3"/>
<path d="M16.1891 11.7598H17.2847C17.4057 11.7598 17.5038 11.8543 17.5038 11.9708V12.1819C17.5038 12.2985 17.4057 12.393 17.2847 12.393H16.1891C16.0681 12.393 15.97 12.2985 15.97 12.1819V11.9708C15.97 11.8543 16.0681 11.7598 16.1891 11.7598Z" fill="#FAF5F3"/>
<path d="M22.5751 8.79928L21.8507 6.69501C21.8062 6.56587 21.8572 6.41785 21.9645 6.36435L22.3532 6.17071C22.4604 6.1172 22.5835 6.17852 22.628 6.30766L23.3524 8.41193C23.3968 8.54107 23.3459 8.68909 23.2385 8.74259L22.8499 8.9363C22.7426 8.98974 22.6195 8.92842 22.5751 8.79928Z" fill="#FAF5F3"/>
<path d="M18.8982 8.77874L20.4619 8.07647C20.5943 8.01706 20.7606 8.06466 20.8184 8.17847L21.1837 8.89756C21.2415 9.01137 21.1651 9.14088 21.02 9.1752L19.3053 9.5804C19.1814 9.60969 19.0501 9.55825 19.0007 9.46092L18.7863 9.03889C18.7369 8.94162 18.7851 8.82953 18.8982 8.77874Z" fill="#FAF5F3"/>
<path d="M16.1052 10.1098L17.1171 9.60887C17.2288 9.55353 17.357 9.61695 17.4033 9.75053L17.4871 9.99241C17.5334 10.126 17.4803 10.2791 17.3685 10.3344L16.3567 10.8353C16.245 10.8906 16.1168 10.8272 16.0705 10.6937L15.9867 10.4518C15.9404 10.3182 15.9935 10.1651 16.1052 10.1098Z" fill="#FAF5F3"/>
<path d="M20.7863 4.81162L19.2008 3.22202C19.1035 3.12447 19.1035 2.96632 19.2008 2.86878L19.5531 2.51554C19.6504 2.418 19.8082 2.418 19.9055 2.51554L21.491 4.1051C21.5882 4.20266 21.5882 4.3608 21.491 4.45836L21.1386 4.81162C21.0413 4.90917 20.8836 4.90917 20.7863 4.81162Z" fill="#FAF5F3"/>
<path d="M17.2855 6.02073L18.3367 4.70321C18.4258 4.59172 18.5916 4.58248 18.6923 4.68343L19.3285 5.32135C19.4292 5.42231 19.4201 5.58856 19.3088 5.67775L17.9947 6.73181C17.8996 6.80806 17.7626 6.80046 17.6765 6.71409L17.3031 6.33976C17.217 6.25345 17.2094 6.11607 17.2855 6.02073Z" fill="#FAF5F3"/>
<path d="M14.8689 8.63255L15.7377 7.76161C15.8336 7.6654 15.9892 7.6654 16.0852 7.76161L16.2589 7.93575C16.3548 8.03196 16.3548 8.18793 16.2589 8.28415L15.3902 9.15515C15.2942 9.2513 15.1386 9.2513 15.0427 9.15515L14.8689 8.98095C14.773 8.88474 14.773 8.72877 14.8689 8.63255Z" fill="#FAF5F3"/>
<path d="M17.3224 2.15451L15.2235 1.42822C15.0947 1.38365 15.0336 1.26029 15.0869 1.1527L15.2801 0.763045C15.3335 0.65545 15.4811 0.604351 15.6099 0.648919L17.7087 1.37521C17.8375 1.41978 17.8987 1.54314 17.8454 1.65074L17.6522 2.04039C17.5988 2.14798 17.4512 2.19908 17.3224 2.15451Z" fill="#FAF5F3"/>
<path d="M14.8052 4.70728L15.2093 2.98819C15.2435 2.84271 15.3727 2.76617 15.4862 2.82413L16.2035 3.19032C16.317 3.24829 16.3645 3.41501 16.3052 3.54768L15.6047 5.11547C15.5541 5.22895 15.4423 5.27724 15.3453 5.22772L14.9243 5.0128C14.8272 4.96321 14.7759 4.83165 14.8052 4.70728Z" fill="#FAF5F3"/>
<path d="M13.1928 7.93523L13.6924 6.92078C13.7476 6.80872 13.9003 6.75551 14.0336 6.80194L14.2748 6.88596C14.4081 6.93239 14.4713 7.06082 14.4161 7.17289L13.9165 8.18734C13.8613 8.2994 13.7086 8.35261 13.5754 8.30618L13.3342 8.22217C13.201 8.17573 13.1377 8.0473 13.1928 7.93523Z" fill="#FAF5F3"/>
<path d="M38.9376 19.2953C34.5552 19.2953 31.9152 16.532 31.9152 12.924C31.9152 9.08725 34.8544 6.44725 39.0432 6.44725C40.9616 6.44725 42.5104 6.97525 43.5664 7.82005V9.68565C42.4224 8.75285 41.0144 8.10165 39.1136 8.10165C35.8224 8.10165 33.7456 10.0552 33.7456 12.836C33.7456 15.6168 35.8048 17.6232 39.1312 17.6232C40.9088 17.6232 42.4576 17.0072 43.6544 15.9336V17.7112C42.3168 18.8376 40.768 19.2953 38.9376 19.2953ZM46.3922 19.0312V6.71125H52.2882C54.5234 6.71125 56.1074 8.22485 56.1074 10.284C56.1074 12.5192 54.5058 13.892 51.9186 13.892H50.8802L56.5826 19.0312H54.0658L48.1522 13.4344V19.0312H46.3922ZM48.1522 12.5368H51.7074C53.3442 12.5368 54.2946 11.7272 54.2946 10.3544C54.2946 9.08725 53.397 8.27765 51.9538 8.27765H48.1522V12.5368ZM60.8537 17.4472H68.2809V19.0312H59.0937V6.71125H68.1929V8.29525H60.8537V11.7624H67.7177V13.3112H60.8537V17.4472ZM71.2109 19.0312V6.71125H76.6317C80.8909 6.71125 83.0909 9.26325 83.0909 12.836C83.0909 16.532 80.6093 19.0312 76.1565 19.0312H71.2109ZM76.1565 17.4472C79.4477 17.4472 81.2605 15.7224 81.2605 12.8184C81.2605 10.108 79.7821 8.29525 76.4557 8.29525H72.9709V17.4472H76.1565ZM84.1189 19.0312L89.0997 6.71125H91.4405L96.3333 19.0312H94.4501L93.1301 15.652H87.3045L85.9669 19.0312H84.1189ZM87.8677 14.2088H92.5669L90.2261 8.20725L87.8677 14.2088ZM98.6422 19.0312V6.71125H100.402V17.4472H107.354V19.0312H98.6422Z" fill="#FAF5F3"/>
</svg>
