<svg width="108" height="26" viewBox="0 0 108 26" fill="none" xmlns="http://www.w3.org/2000/svg">
<path d="M13.314 1.87352H11.0196C10.8788 1.87352 10.7646 1.77227 10.7646 1.64738V1.19508C10.7646 1.07018 10.8788 0.968931 11.0196 0.968931H13.314C13.4548 0.968931 13.5689 1.07018 13.5689 1.19508V1.64738C13.5689 1.77227 13.4548 1.87352 13.314 1.87352Z" fill="#25262B"/>
<path d="M11.607 5.72956L11.3995 4.04102C11.382 3.89812 11.5057 3.77316 11.6647 3.77316H12.669C12.8279 3.77316 12.9516 3.89812 12.934 4.04102L12.7266 5.72956C12.7116 5.85175 12.5974 5.94418 12.4615 5.94418H11.8721C11.7361 5.94418 11.622 5.85175 11.607 5.72956Z" fill="#25262B"/>
<path d="M12.0311 8.80011V7.70168C12.0311 7.58035 12.1256 7.48199 12.2422 7.48199H12.4533C12.5698 7.48199 12.6643 7.58035 12.6643 7.70168V8.80011C12.6643 8.92144 12.5698 9.0198 12.4533 9.0198H12.2422C12.1256 9.0198 12.0311 8.92144 12.0311 8.80011Z" fill="#25262B"/>
<path d="M8.79919 2.39755L6.69493 3.12385C6.5658 3.16841 6.41776 3.11732 6.36427 3.00972L6.17058 2.62007C6.11709 2.51247 6.17841 2.38911 6.30753 2.34454L8.41184 1.61825C8.54098 1.57368 8.689 1.62478 8.7425 1.73238L8.93614 2.12203C8.98965 2.22963 8.92833 2.35299 8.79919 2.39755Z" fill="#25262B"/>
<path d="M8.77882 6.08401L8.07654 4.51615C8.01713 4.38348 8.06467 4.21675 8.17854 4.15879L8.89765 3.7926C9.01145 3.73464 9.14097 3.81118 9.17528 3.95666L9.58043 5.67574C9.60978 5.80011 9.55834 5.93168 9.46101 5.98127L9.03897 6.19619C8.94164 6.2457 8.82961 6.19742 8.77882 6.08401Z" fill="#25262B"/>
<path d="M10.1096 9.15552L9.60869 8.14112C9.55334 8.02906 9.61677 7.90056 9.75035 7.85419L9.99223 7.77011C10.1257 7.72374 10.2789 7.77695 10.3343 7.88895L10.8351 8.90341C10.8904 9.01547 10.827 9.14397 10.6934 9.19034L10.4516 9.27442C10.318 9.32079 10.1649 9.26758 10.1096 9.15552Z" fill="#25262B"/>
<path d="M5.1735 4.19095L3.58391 5.78055C3.48636 5.8781 3.32821 5.8781 3.23066 5.78055L2.87742 5.42729C2.77987 5.32973 2.77987 5.17159 2.87742 5.07403L4.46702 3.48448C4.56456 3.38693 4.72271 3.38693 4.82026 3.48448L5.1735 3.83771C5.27105 3.93526 5.27105 4.09341 5.1735 4.19095Z" fill="#25262B"/>
<path d="M6.38272 7.70089L5.06519 6.64687C4.9537 6.55769 4.94449 6.39136 5.04545 6.2904L5.68331 5.65255C5.78427 5.55159 5.95058 5.56076 6.03977 5.67226L7.09381 6.98979C7.17006 7.08514 7.16246 7.22251 7.07615 7.30882L6.70177 7.68323C6.61545 7.76954 6.47804 7.77714 6.38272 7.70089Z" fill="#25262B"/>
<path d="M8.99391 10.1236L8.123 9.25263C8.02679 9.15649 8.02679 9.00045 8.123 8.90431L8.2972 8.73012C8.39334 8.63391 8.5493 8.63391 8.64552 8.73012L9.51649 9.60102C9.6127 9.69723 9.6127 9.8532 9.51649 9.94941L9.3423 10.1236C9.24608 10.2198 9.09012 10.2198 8.99391 10.1236Z" fill="#25262B"/>
<path d="M2.15494 7.66379L1.42865 9.76814C1.38408 9.8972 1.26072 9.95852 1.15312 9.90508L0.763473 9.71137C0.655874 9.65787 0.604778 9.50985 0.649347 9.38071L1.37564 7.27644C1.42021 7.1473 1.54357 7.08598 1.65117 7.13949L2.04081 7.33313C2.14842 7.38664 2.19951 7.53465 2.15494 7.66379Z" fill="#25262B"/>
<path d="M4.70686 10.5494L2.98776 10.1442C2.84228 10.1099 2.76575 9.98039 2.82371 9.86658L3.18989 9.14748C3.24786 9.03368 3.41458 8.98608 3.54726 9.04549L5.11508 9.74775C5.22851 9.79855 5.27683 9.91064 5.22728 10.0079L5.01236 10.4299C4.96281 10.5273 4.83123 10.5787 4.70686 10.5494Z" fill="#25262B"/>
<path d="M7.93457 11.8041L6.92011 11.3032C6.80806 11.2478 6.75485 11.0947 6.80126 10.9612L6.8853 10.7193C6.93171 10.5857 7.06017 10.5223 7.17223 10.5776L8.18667 11.0785C8.29873 11.1339 8.35194 11.287 8.30551 11.4205L8.2215 11.6624C8.17506 11.7959 8.04657 11.8593 7.93457 11.8041Z" fill="#25262B"/>
<path d="M0.904593 11.7172V14.0115C0.904593 14.1523 0.803343 14.2665 0.678445 14.2665H0.226148C0.10125 14.2665 0 14.1523 0 14.0115V11.7172C0 11.5764 0.10125 11.4622 0.226148 11.4622H0.678445C0.803343 11.4622 0.904593 11.5764 0.904593 11.7172Z" fill="#25262B"/>
<path d="M4.7607 13.4241L3.07212 13.6316C2.92923 13.6492 2.80426 13.5255 2.80426 13.3665V12.3621C2.80426 12.2032 2.92923 12.0796 3.07212 12.0971L4.7607 12.3045C4.88286 12.3195 4.97528 12.4337 4.97528 12.5696V13.159C4.97528 13.295 4.88286 13.4091 4.7607 13.4241Z" fill="#25262B"/>
<path d="M7.83118 13.3618H6.73275C6.61142 13.3618 6.51306 13.2673 6.51306 13.1508V12.9397C6.51306 12.8231 6.61142 12.7286 6.73275 12.7286H7.83118C7.95251 12.7286 8.05087 12.8231 8.05087 12.9397V13.1508C8.05087 13.2673 7.95251 13.3618 7.83118 13.3618Z" fill="#25262B"/>
<path d="M1.42865 16.2319L2.15494 18.3362C2.19951 18.4654 2.14841 18.6134 2.04082 18.6669L1.65116 18.8605C1.54357 18.914 1.42021 18.8527 1.37564 18.7236L0.649347 16.6193C0.604778 16.4902 0.655874 16.3421 0.763473 16.2886L1.15312 16.0949C1.26072 16.0415 1.38408 16.1028 1.42865 16.2319Z" fill="#25262B"/>
<path d="M5.11508 16.2523L3.54726 16.9545C3.41458 17.0139 3.24786 16.9663 3.18989 16.8525L2.82371 16.1334C2.76575 16.0196 2.84228 15.8901 2.98776 15.8558L4.70686 15.4506C4.83123 15.4213 4.96281 15.4728 5.01237 15.5701L5.22728 15.9921C5.27683 16.0894 5.22851 16.2015 5.11508 16.2523Z" fill="#25262B"/>
<path d="M8.18667 14.9215L7.17223 15.4224C7.06017 15.4778 6.93171 15.4143 6.8853 15.2808L6.80126 15.0389C6.75485 14.9053 6.80805 14.7522 6.92011 14.6968L7.93457 14.196C8.04657 14.1407 8.17506 14.2041 8.2215 14.3376L8.30551 14.5795C8.35194 14.7131 8.29873 14.8662 8.18667 14.9215Z" fill="#25262B"/>
<path d="M3.58391 20.2195L5.1735 21.8091C5.27105 21.9066 5.27105 22.0648 5.1735 22.1623L4.82026 22.5156C4.72271 22.6131 4.56456 22.6131 4.46702 22.5156L2.87742 20.926C2.77987 20.8284 2.77987 20.6703 2.87742 20.5727L3.23066 20.2195C3.32821 20.1219 3.48636 20.1219 3.58391 20.2195Z" fill="#25262B"/>
<path d="M7.09381 19.0102L6.03977 20.3277C5.95057 20.4392 5.78427 20.4485 5.6833 20.3475L5.04545 19.7096C4.94449 19.6086 4.9537 19.4424 5.06519 19.3532L6.38272 18.2991C6.47803 18.2229 6.61545 18.2305 6.70177 18.3169L7.07615 18.6912C7.16246 18.7775 7.17005 18.9149 7.09381 19.0102Z" fill="#25262B"/>
<path d="M9.51654 16.399L8.64554 17.2699C8.54932 17.3661 8.39335 17.3661 8.29713 17.2699L8.123 17.0958C8.02679 16.9996 8.02679 16.8436 8.123 16.7474L8.99394 15.8764C9.09015 15.7802 9.24613 15.7802 9.34234 15.8764L9.51654 16.0506C9.61269 16.1468 9.61269 16.3028 9.51654 16.399Z" fill="#25262B"/>
<path d="M6.69492 22.8762L8.79919 23.6025C8.92833 23.6471 8.98965 23.7704 8.93614 23.878L8.74243 24.2676C8.68893 24.3753 8.54092 24.4263 8.41178 24.3818L6.30754 23.6555C6.17841 23.6109 6.11709 23.4876 6.17058 23.38L6.36427 22.9903C6.41776 22.8827 6.5658 22.8316 6.69492 22.8762Z" fill="#25262B"/>
<path d="M9.58046 20.3243L9.17525 22.0434C9.141 22.1888 9.01142 22.2654 8.89761 22.2074L8.17851 21.8412C8.0647 21.7833 8.0171 21.6165 8.07657 21.4839L8.77879 19.9161C8.82964 19.8026 8.94167 19.7543 9.039 19.8038L9.46104 20.0187C9.55831 20.0683 9.60975 20.1999 9.58046 20.3243Z" fill="#25262B"/>
<path d="M10.8351 17.3679L10.3342 18.3824C10.2789 18.4945 10.1258 18.5477 9.99219 18.5012L9.75038 18.4172C9.6168 18.3708 9.55338 18.2424 9.60865 18.1303L10.1095 17.1158C10.1649 17.0038 10.318 16.9506 10.4516 16.997L10.6934 17.081C10.827 17.1274 10.8905 17.2559 10.8351 17.3679Z" fill="#25262B"/>
<path d="M11.0196 24.1265H13.314C13.4548 24.1265 13.5689 24.2278 13.5689 24.3527V24.805C13.5689 24.9299 13.4548 25.0311 13.314 25.0311H11.0196C10.8788 25.0311 10.7646 24.9299 10.7646 24.805V24.3527C10.7646 24.2278 10.8788 24.1265 11.0196 24.1265Z" fill="#25262B"/>
<path d="M12.4552 20.6323L12.6627 22.3209C12.6802 22.4637 12.5565 22.5887 12.3976 22.5887H11.3932C11.2343 22.5887 11.1106 22.4637 11.1282 22.3209L11.3356 20.6323C11.3506 20.5101 11.4648 20.4177 11.6007 20.4177H12.1901C12.3261 20.4177 12.4402 20.5101 12.4552 20.6323Z" fill="#25262B"/>
<path d="M12.6643 17.1999V18.2983C12.6643 18.4197 12.5698 18.518 12.4533 18.518H12.2422C12.1256 18.518 12.0311 18.4197 12.0311 18.2983V17.1999C12.0311 17.0786 12.1256 16.9802 12.2422 16.9802H12.4533C12.5698 16.9802 12.6643 17.0786 12.6643 17.1999Z" fill="#25262B"/>
<path d="M15.263 23.6025L17.3673 22.8762C17.4964 22.8317 17.6444 22.8827 17.6979 22.9904L17.8916 23.38C17.9451 23.4876 17.8837 23.6109 17.7546 23.6555L15.6503 24.3818C15.5212 24.4264 15.3732 24.3753 15.3197 24.2677L15.126 23.878C15.0725 23.7704 15.1338 23.6471 15.263 23.6025Z" fill="#25262B"/>
<path d="M15.6452 19.916L16.3474 21.4839C16.4068 21.6165 16.3593 21.7833 16.2454 21.8413L15.5263 22.2074C15.4125 22.2654 15.283 22.1888 15.2487 22.0434L14.8435 20.3243C14.8142 20.1999 14.8656 20.0683 14.963 20.0187L15.385 19.8038C15.4823 19.7543 15.5944 19.8026 15.6452 19.916Z" fill="#25262B"/>
<path d="M13.9526 17.1159L14.4535 18.1303C14.5088 18.2423 14.4454 18.3708 14.3118 18.4172L14.0699 18.5013C13.9364 18.5476 13.7832 18.4944 13.7279 18.3824L13.227 17.368C13.1717 17.2559 13.2351 17.1274 13.3687 17.081L13.6105 16.997C13.7441 16.9506 13.8972 17.0038 13.9526 17.1159Z" fill="#25262B"/>
<path d="M19.2505 21.8091L20.8401 20.2195C20.9377 20.1219 21.0959 20.1219 21.1934 20.2195L21.5466 20.5727C21.6442 20.6703 21.6442 20.8284 21.5466 20.926L19.9571 22.5155C19.8595 22.6131 19.7014 22.6131 19.6038 22.5155L19.2505 22.1623C19.153 22.0648 19.153 21.9066 19.2505 21.8091Z" fill="#25262B"/>
<path d="M18.0413 18.2991L19.3588 19.3532C19.4703 19.4423 19.4795 19.6087 19.3785 19.7096L18.7407 20.3475C18.6397 20.4484 18.4735 20.4393 18.3842 20.3278L17.3302 19.0102C17.254 18.9149 17.2616 18.7775 17.3479 18.6912L17.7223 18.3168C17.8086 18.2305 17.946 18.2229 18.0413 18.2991Z" fill="#25262B"/>
<path d="M15.4301 15.8764L16.301 16.7474C16.3972 16.8435 16.3972 16.9996 16.301 17.0957L16.1268 17.2699C16.0306 17.3661 15.8747 17.3661 15.7785 17.2699L14.9075 16.399C14.8113 16.3028 14.8113 16.1468 14.9075 16.0506L15.0817 15.8764C15.1779 15.7802 15.3339 15.7802 15.4301 15.8764Z" fill="#25262B"/>
<path d="M21.9073 18.3362L22.6336 16.2319C22.6781 16.1028 22.8015 16.0415 22.9091 16.095L23.2988 16.2886C23.4064 16.3421 23.4575 16.4901 23.4129 16.6193L22.6866 18.7235C22.642 18.8527 22.5186 18.914 22.4111 18.8606L22.0214 18.6669C21.9139 18.6133 21.8627 18.4653 21.9073 18.3362Z" fill="#25262B"/>
<path d="M19.3553 15.4506L21.0744 15.8558C21.2199 15.8901 21.2965 16.0196 21.2385 16.1334L20.8723 16.8525C20.8143 16.9664 20.6476 17.0139 20.5149 16.9545L18.9471 16.2522C18.8337 16.2015 18.7854 16.0894 18.835 15.9921L19.0499 15.5701C19.0994 15.4727 19.231 15.4213 19.3553 15.4506Z" fill="#25262B"/>
<path d="M16.399 14.196L17.4135 14.6968C17.5255 14.7522 17.5787 14.9054 17.5323 15.0389L17.4483 15.2808C17.4019 15.4143 17.2734 15.4778 17.1614 15.4224L16.1469 14.9215C16.0349 14.8662 15.9816 14.7131 16.0281 14.5795L16.1121 14.3377C16.1585 14.2041 16.287 14.1407 16.399 14.196Z" fill="#25262B"/>
<path d="M23.1576 14.2829V11.9885C23.1576 11.8477 23.2588 11.7336 23.3837 11.7336H23.836C23.9609 11.7336 24.0622 11.8477 24.0622 11.9885V14.2829C24.0622 14.4237 23.9609 14.5378 23.836 14.5378H23.3837C23.2588 14.5378 23.1576 14.4237 23.1576 14.2829Z" fill="#25262B"/>
<path d="M19.6634 12.5759L21.352 12.3685C21.4949 12.3509 21.6198 12.4745 21.6198 12.6335V13.6379C21.6198 13.7969 21.4949 13.9205 21.352 13.9029L19.6634 13.6955C19.5412 13.6805 19.4488 13.5663 19.4488 13.4304V12.841C19.4488 12.7051 19.5412 12.5909 19.6634 12.5759Z" fill="#25262B"/>
<path d="M16.231 12.7286H17.3294C17.4507 12.7286 17.5491 12.8231 17.5491 12.9397V13.1508C17.5491 13.2673 17.4507 13.3618 17.3294 13.3618H16.231C16.1096 13.3618 16.0113 13.2673 16.0113 13.1508V12.9397C16.0113 12.8231 16.1096 12.7286 16.231 12.7286Z" fill="#25262B"/>
<path d="M22.6336 9.76806L21.9073 7.66379C21.8627 7.53465 21.9139 7.38664 22.0214 7.33313L22.4111 7.13949C22.5186 7.08598 22.642 7.1473 22.6866 7.27644L23.4129 9.38072C23.4575 9.50986 23.4064 9.65787 23.2988 9.71137L22.9091 9.90509C22.8015 9.95852 22.6781 9.8972 22.6336 9.76806Z" fill="#25262B"/>
<path d="M18.9471 9.74775L20.5149 9.04549C20.6476 8.98608 20.8143 9.03368 20.8723 9.14748L21.2385 9.86658C21.2965 9.98039 21.2199 10.1099 21.0744 10.1442L19.3553 10.5494C19.231 10.5787 19.0994 10.5273 19.0499 10.4299L18.835 10.0079C18.7854 9.91064 18.8337 9.79855 18.9471 9.74775Z" fill="#25262B"/>
<path d="M16.1469 11.0785L17.1614 10.5776C17.2734 10.5223 17.4019 10.5857 17.4483 10.7193L17.5323 10.9612C17.5787 11.0947 17.5255 11.2478 17.4135 11.3032L16.399 11.8041C16.287 11.8593 16.1585 11.7959 16.1121 11.6624L16.0281 11.4205C15.9816 11.287 16.0349 11.1339 16.1469 11.0785Z" fill="#25262B"/>
<path d="M20.8401 5.78055L19.2505 4.19095C19.153 4.09341 19.153 3.93525 19.2505 3.83771L19.6038 3.48448C19.7014 3.38693 19.8595 3.38693 19.9571 3.48448L21.5467 5.07403C21.6441 5.17159 21.6441 5.32973 21.5467 5.42729L21.1934 5.78055C21.0958 5.8781 20.9377 5.8781 20.8401 5.78055Z" fill="#25262B"/>
<path d="M17.3302 6.98981L18.3842 5.67229C18.4735 5.5608 18.6397 5.55156 18.7407 5.65251L19.3785 6.29043C19.4795 6.39139 19.4703 6.55764 19.3588 6.64683L18.0413 7.70089C17.946 7.77714 17.8086 7.76955 17.7223 7.68317L17.3479 7.30884C17.2616 7.22253 17.254 7.08516 17.3302 6.98981Z" fill="#25262B"/>
<path d="M14.9074 9.60106L15.7784 8.73012C15.8747 8.6339 16.0306 8.6339 16.1268 8.73012L16.301 8.90425C16.3972 9.00047 16.3972 9.15644 16.301 9.25265L15.43 10.1237C15.3338 10.2198 15.1779 10.2198 15.0816 10.1237L14.9074 9.94946C14.8113 9.85324 14.8113 9.69727 14.9074 9.60106Z" fill="#25262B"/>
<path d="M17.3673 3.12385L15.263 2.39755C15.1339 2.35298 15.0726 2.22963 15.126 2.12203L15.3197 1.73238C15.3732 1.62478 15.5212 1.57368 15.6504 1.61825L17.7546 2.34454C17.8837 2.38911 17.9451 2.51247 17.8916 2.62007L17.6979 3.00972C17.6444 3.11732 17.4964 3.16841 17.3673 3.12385Z" fill="#25262B"/>
<path d="M14.8435 5.67574L15.2487 3.95666C15.283 3.81118 15.4125 3.73464 15.5263 3.7926L16.2454 4.15879C16.3593 4.21675 16.4068 4.38347 16.3474 4.51615L15.6452 6.08394C15.5944 6.19742 15.4823 6.24571 15.385 6.19619L14.963 5.98127C14.8656 5.93168 14.8142 5.80012 14.8435 5.67574Z" fill="#25262B"/>
<path d="M13.227 8.90344L13.7279 7.88898C13.7832 7.77692 13.9363 7.72371 14.0699 7.77014L14.3118 7.85416C14.4454 7.90059 14.5088 8.02903 14.4535 8.14109L13.9526 9.15555C13.8972 9.26761 13.7441 9.32082 13.6105 9.27438L13.3687 9.19037C13.2351 9.14394 13.1717 9.0155 13.227 8.90344Z" fill="#25262B"/>
<path d="M38.9376 20.264C34.5552 20.264 31.9152 17.5008 31.9152 13.8928C31.9152 10.056 34.8544 7.41601 39.0432 7.41601C40.9616 7.41601 42.5104 7.94401 43.5664 8.78881V10.6544C42.4224 9.72161 41.0144 9.07041 39.1136 9.07041C35.8224 9.07041 33.7456 11.024 33.7456 13.8048C33.7456 16.5856 35.8048 18.592 39.1312 18.592C40.9088 18.592 42.4576 17.976 43.6544 16.9024V18.68C42.3168 19.8064 40.768 20.264 38.9376 20.264ZM46.3922 20V7.68001H52.2882C54.5234 7.68001 56.1074 9.19361 56.1074 11.2528C56.1074 13.488 54.5058 14.8608 51.9186 14.8608H50.8802L56.5826 20H54.0658L48.1522 14.4032V20H46.3922ZM48.1522 13.5056H51.7074C53.3442 13.5056 54.2946 12.696 54.2946 11.3232C54.2946 10.056 53.397 9.24641 51.9538 9.24641H48.1522V13.5056ZM60.8537 18.416H68.2809V20H59.0937V7.68001H68.1929V9.26401H60.8537V12.7312H67.7177V14.28H60.8537V18.416ZM71.2109 20V7.68001H76.6317C80.8909 7.68001 83.0909 10.232 83.0909 13.8048C83.0909 17.5008 80.6093 20 76.1565 20H71.2109ZM76.1565 18.416C79.4477 18.416 81.2605 16.6912 81.2605 13.7872C81.2605 11.0768 79.7821 9.26401 76.4557 9.26401H72.9709V18.416H76.1565ZM84.1189 20L89.0997 7.68001H91.4405L96.3333 20H94.4501L93.1301 16.6208H87.3045L85.9669 20H84.1189ZM87.8677 15.1776H92.5669L90.2261 9.17601L87.8677 15.1776ZM98.6422 20V7.68001H100.402V18.416H107.354V20H98.6422Z" fill="black"/>
</svg>
