<svg version="1.1" id="Layer_1" xmlns="http://www.w3.org/2000/svg" xmlns:xlink="http://www.w3.org/1999/xlink" x="0px" y="0px" viewBox="0 0 245.5 44" style="enable-background:new 0 0 245.5 44;" xml:space="preserve">
 <style type="text/css">
  .st0{fill-rule:evenodd;clip-rule:evenodd;fill:#16B8A2;}
	.st1{fill-rule:evenodd;clip-rule:evenodd;fill:#FFB41F;}
	.st2{fill-rule:evenodd;clip-rule:evenodd;fill:#F56358;}
	.st3{fill-rule:evenodd;clip-rule:evenodd;fill:#0E0E29;}
 </style>
 <g>
  <g>
   <g>
    <path class="st0" d="M19,32.5L8.1,21.6c-1.8-1.9-4.8-1.9-6.7,0c-1.8,1.9-1.8,4.9,0,6.7l14.2,14.3c1.8,1.9,4.8,1.9,6.7,0
				l13.4-13.5L29,22.4L19,32.5z">
    </path>
    <path class="st1" d="M60,11.5l-20.9,21l-20.9-21c-1.8-1.9-4.8-1.9-6.7,0c-1.8,1.9-1.8,4.9,0,6.7l24.3,24.4c1.8,1.9,4.8,1.9,6.7,0
				l24.3-24.4c1.8-1.9,1.8-4.9,0-6.7C64.8,9.6,61.8,9.6,60,11.5z">
    </path>
    <path class="st2" d="M76.7,28.3L62.5,42.6c-1.8,1.9-4.8,1.9-6.7,0L21.5,8.1c-1.8-1.9-1.8-4.9,0-6.7c1.8-1.9,4.8-1.9,6.7,0
				l31,31.1L70,21.6c1.8-1.9,4.8-1.9,6.7,0C78.6,23.4,78.6,26.5,76.7,28.3z">
    </path>
    <path class="st0" d="M56.6,1.4c-1.8-1.9-4.8-1.9-6.7,0L29,22.4l6.7,6.7l20.9-21C58.5,6.3,58.5,3.3,56.6,1.4z">
    </path>
    <path class="st3" d="M102.6,4.7h-5.8v34.4h21.3v-5.2h-15.5V4.7z M130.7,15c3.5,0,5.9,1.4,7.2,3.2l0.3-2.8h5v23.6h-5l-0.3-2.8
				c-1.3,1.8-3.7,3.2-7.2,3.2c-6.4,0-10.7-5.2-10.7-12.2C120,20.2,124.4,15,130.7,15z M132,20c-3.6,0-6.2,2.9-6.2,7.3
				c0,4.4,2.6,7.3,6.2,7.3c2.8,0,4.5-1.5,5.7-3.5v-7.6C136.4,21.5,134.8,20,132,20z M157.4,7.6h-5.6v7.9h-4.4v4.8h4.4v10.5
				c0,5.7,3.4,8.8,8.8,8.8c2.3,0,4.1-0.7,5.2-1.4l-1.5-4.4c-0.7,0.4-1.7,0.7-3.2,0.7c-2.2,0-3.7-1.4-3.7-3.8V20.3h7.1v-4.8h-7.1V7.6
				z M176.6,7.6h-5.6v7.9h-4.4v4.8h4.4v10.5c0,5.7,3.4,8.8,8.8,8.8c2.3,0,4.1-0.7,5.2-1.4l-1.5-4.4c-0.7,0.4-1.7,0.7-3.2,0.7
				c-2.2,0-3.7-1.4-3.7-3.8V20.3h7.1v-4.8h-7.1V7.6z M194.4,15.5h-5.6v23.6h5.6V15.5z M191.6,4.5c-2,0-3.4,1.4-3.4,3.5
				s1.5,3.5,3.4,3.5c2,0,3.5-1.4,3.5-3.5S193.6,4.5,191.6,4.5z M211.3,15c-7.2,0-12,5.1-12,12.2c0,7.1,4.8,12.2,12.1,12.2
				c4.2,0,7.5-1.9,9.6-5.2l-4-3.1c-1.1,1.9-2.9,3.4-5.5,3.4c-4.1,0-6.4-3.2-6.4-7.3c0-4.2,2.2-7.3,6.4-7.3c2.6,0,4.3,1.5,5.4,3.4
				l4.1-3.1C218.7,16.9,215.5,15,211.3,15z M234.5,15c7.2,0,10.8,5.4,10.8,12v2h-16.6c0.1,3.7,2.4,5.8,6.3,5.8
				c2.7,0,4.8-1.2,5.8-2.7l3.9,3.2c-2.3,2.8-5.4,4.3-9.7,4.3c-7.3,0-11.9-5.1-11.9-12.2C223,20.2,227.8,15,234.5,15z M234.4,19.5
				c-3.3,0-5.5,2.2-5.7,5.5h11.1C239.7,21.8,237.8,19.5,234.4,19.5z">
    </path>
   </g>
  </g>
 </g>
</svg>