<?xml version="1.0" encoding="UTF-8"?>
<svg width="2018px" height="323px" viewBox="0 0 2018 323" version="1.1" xmlns="http://www.w3.org/2000/svg" xmlns:xlink="http://www.w3.org/1999/xlink">
    <!-- Generator: Sketch 51.3 (57544) - http://www.bohemiancoding.com/sketch -->
    <title>moneyhub_teal</title>
    <desc>Created with Sketch.</desc>
    <defs></defs>
    <g id="Logo" stroke="none" stroke-width="1" fill="none" fill-rule="evenodd">
        <g id="moneyhub_teal" fill="#00B8CB">
            <g id="Group-23">
                <path d="M1983.38288,79.814998 L1865.98008,146.205411 L1983.74384,211.996186 L2012.99274,162.372268 C2019.03569,152.12002 2018.9993,139.510105 2012.90127,129.288033 L1983.38288,79.814998 Z" id="Fill-7" fill-opacity="0.6"></path>
                <path d="M1841.21707,132.37354 L1840.85512,0.192351333 L1782.08782,0.343234211 C1769.94783,0.373410786 1758.74909,6.70659789 1752.70712,16.9588461 L1723.45724,66.5827644 L1841.21707,132.37354 Z" id="Fill-9"></path>
                <path d="M1916.20964,0 L1916.11326,0 L1857.34006,0.150882878 L1857.70102,132.332071 L1975.1048,65.9416581 L1945.58542,16.4637555 C1939.50313,6.27186052 1928.30931,0 1916.20964,0" id="Fill-11" fill-opacity="0.8"></path>
                <path d="M1715.2545,80.5026346 L1686.00069,130.13142 C1679.96364,140.378801 1679.99413,152.988716 1686.09216,163.210787 L1753.41145,276.036136 C1759.50456,286.253341 1770.7387,292.530068 1782.8787,292.499892 L1916.90256,292.158215 C1929.04255,292.127065 1940.24621,285.794851 1946.28817,275.542603 L1975.53806,225.913818 L1715.2545,80.5026346 Z" id="Fill-13"></path>
                <path d="M173.574496,75.039993 C155.290245,75.039993 138.431161,81.9874194 125.847583,94.2653919 C125.135491,94.9604266 124.661418,95.8871395 123.949326,96.5821742 C111.599833,82.9141323 93.3204995,75.039993 70.759759,75.039993 C52.4755073,75.039993 34.430259,81.9874194 21.8476645,94.2653919 C8.07300366,107.927593 0,126.921314 0,148.926851 L0,237.403597 L34.1961734,237.403597 L34.1961734,146.840774 C34.1961734,133.178573 42.2642593,107.464237 69.8086632,107.464237 C86.9067499,107.464237 100.20242,115.111565 103.292744,135.722166 L103.292744,149.15853 L103.292744,237.635276 L140.095333,237.635276 L140.095333,148.463495 C140.095333,144.060635 140.329419,139.893348 140.095333,135.490488 C141.281498,121.363957 152.204839,107.464237 173.101407,107.464237 C193.757989,107.464237 209.430907,124.376747 209.430907,146.145739 L209.430907,237.635276 L244.095252,237.635276 L244.095252,148.463495 C243.856249,103.761279 216.790835,75.039993 173.574496,75.039993" id="Fill-15"></path>
                <path d="M449.648403,158.012824 C449.648403,205.193413 416.037444,240.519475 364.304519,240.519475 C313.049601,240.519475 279.672727,204.961735 279.672727,158.012824 C279.672727,111.295591 313.283687,75.0379488 364.304519,75.0379488 C414.84046,75.0379488 449.648403,111.295591 449.648403,158.012824 M313.762677,158.012824 C313.762677,186.36615 332.835738,209.611847 364.064532,209.611847 C395.772316,209.611847 414.84046,186.36615 414.84046,158.012824 C414.84046,129.891176 394.103227,105.718765 364.064532,105.718765 C332.835738,105.718765 313.762677,129.891176 313.762677,158.012824" id="Fill-17"></path>
                <path d="M556.059896,75.039993 C516.630236,75.039993 480.285,101.866969 480.285,149.974271 L480.285,237.635276 L514.013985,237.635276 L514.013985,147.435545 C514.013985,129.163141 526.128409,98.168878 567.70123,105.10657 C586.703475,108.346171 600.71714,124.30666 600.71714,143.037552 L600.71714,237.171919 L634.451043,237.171919 L634.451043,149.052425 C633.972053,103.026333 601.903305,75.039993 556.059896,75.039993" id="Fill-19"></path>
                <path d="M704.159187,170.064569 C707.24361,193.93424 727.651353,209.698094 757.31728,209.698094 C773.692456,209.698094 794.573287,203.672513 804.540614,192.775849 L826.611545,213.637597 C809.763281,231.482661 781.761525,240.520059 756.844191,240.520059 C703.446111,240.520059 669.035523,207.61299 669.035523,157.086695 C669.035523,109.109833 703.686098,75.0385328 754.471861,75.0385328 C806.917862,75.0385328 842.513632,106.098017 836.344787,170.296247 L704.159187,170.064569 Z M803.354449,142.249554 C801.455208,117.221492 782.473618,104.243617 755.179036,104.243617 C730.501689,104.243617 710.093947,117.45317 704.632276,142.249554 L803.354449,142.249554 Z" id="Fill-21"></path>
            </g>
            <polygon id="Fill-24" points="980.215378 82.5 946.253019 160.463898 928.059581 206.490766 911.078905 159.76119 881.727053 82.5 840 82.5 908.167271 244.064326 872.99215 322.5 912.292673 322.5 1020 82.5"></polygon>
            <g id="Group-31" transform="translate(1057.500000, 7.500000)">
                <path d="M34.1440608,0 L34.1440608,94.8860173 C48.4076421,74.7575506 67.5852812,68.0510844 86.9988183,68.0510844 C132.83391,68.0510844 154.111333,99.1984685 154.111333,146.641477 L154.111333,236.016021 L119.972126,236.016021 L119.972126,146.882289 C119.972126,115.734905 104.065024,100.158694 79.0452675,100.158694 C52.6178887,100.158694 34.1440608,122.440364 34.1440608,149.515101 L34.1440608,235.776216 L0,235.776216 L0,0 L34.1440608,0 Z" id="Fill-25"></path>
                <path d="M269.658865,239.004207 C308.27431,239.004207 344.313322,210.625658 344.313322,160.852112 L344.313322,69.7092622 L311.319628,69.7092622 L311.319628,161.81133 C311.319628,178.883801 301.486659,206.777702 269.894763,206.777702 C245.788505,206.777702 226.129362,186.58072 226.129362,161.81133 L226.129362,69.7092622 L193.129501,69.7092622 L193.130814,161.571526 C192.893945,209.426635 224.72271,239.004207 269.658865,239.004207" id="Fill-27"></path>
                <path d="M416.418138,0 L382.353681,0 L382.353681,152.466309 C382.353681,204.170382 422.251519,240 470.076696,240 C516.273886,240 555,207.533691 555,154.390791 C555,104.611199 521.403456,68.7765435 469.845652,68.7765435 C432.982454,68.7765435 416.649182,94.2653467 416.418138,94.5111968 M470.076696,208.0133 C441.147633,208.0133 415.951196,186.132648 415.951196,154.390791 C415.951196,124.808182 437.649935,100.763243 470.076696,100.763243 C502.507341,100.763243 520.941367,124.808182 520.941367,154.390791 C520.705469,187.091866 498.774715,208.0133 470.076696,208.0133" id="Fill-29"></path>
            </g>
        </g>
    </g>
</svg>