<svg width="122" height="42" viewBox="0 0 122 42" fill="none" xmlns="http://www.w3.org/2000/svg">
<path d="M42.1493 39.9C42.1493 41.0598 41.2091 42 40.0493 42H21.1493V37.8H40.0493C41.2091 37.8 42.1493 38.7402 42.1493 39.9V39.9Z" fill="#25262B"/>
<path d="M16.9493 40.0145C16.9493 41.1111 16.0604 42 14.9638 42V42C13.7408 42 12.7493 41.0085 12.7493 39.7855V37.8H16.9493V40.0145Z" fill="#F63A80"/>
<path d="M8.54932 42H2.24932C1.08952 42 0.149317 41.0598 0.149317 39.9V39.9C0.149317 38.7402 1.08952 37.8 2.24932 37.8H8.54932V42Z" fill="#25262B"/>
<path d="M0.149292 2.1C0.149292 0.940202 1.08949 0 2.24929 0H21.1493V4.2H2.24929C1.08949 4.2 0.149292 3.2598 0.149292 2.1V2.1Z" fill="#25262B"/>
<path d="M25.3493 1.98546C25.3493 0.888919 26.2382 0 27.3348 0V0C28.5578 0 29.5493 0.991485 29.5493 2.21454V4.2H25.3493V1.98546Z" fill="#F63A80"/>
<path d="M33.7493 0H40.0493C41.2091 0 42.1493 0.940202 42.1493 2.1V2.1C42.1493 3.2598 41.2091 4.2 40.0493 4.2H33.7493V0Z" fill="#25262B"/>
<path d="M2.24929 42C1.08949 42 0.149292 41.0598 0.149292 39.9L0.149292 21H4.34929L4.34929 39.9C4.34929 41.0598 3.40909 42 2.24929 42V42Z" fill="#25262B"/>
<path d="M2.13475 16.7998C1.03821 16.7998 0.149292 15.9109 0.149292 14.8144V14.8144C0.149292 13.5913 1.14078 12.5998 2.36384 12.5998H4.34929V16.7998H2.13475Z" fill="#F63A80"/>
<path d="M0.149292 8.3999L0.149292 2.0999C0.149292 0.940106 1.08949 -9.72748e-05 2.24929 -9.72748e-05V-9.72748e-05C3.40909 -9.72748e-05 4.34929 0.940104 4.34929 2.0999V8.3999H0.149292Z" fill="#25262B"/>
<path d="M40.0493 0C41.2091 0 42.1493 0.940202 42.1493 2.1V21H37.9493V2.1C37.9493 0.9402 38.8895 0 40.0493 0V0Z" fill="#25262B"/>
<path d="M40.1638 25.2002C41.2604 25.2002 42.1493 26.0891 42.1493 27.1856V27.1856C42.1493 28.4087 41.1578 29.4002 39.9347 29.4002H37.9493V25.2002H40.1638Z" fill="#F63A80"/>
<path d="M42.1493 33.6001V39.9001C42.1493 41.0599 41.2091 42.0001 40.0493 42.0001V42.0001C38.8895 42.0001 37.9493 41.0599 37.9493 39.9001V33.6001H42.1493Z" fill="#25262B"/>
<path d="M27.6256 28.7658L27.6256 28.7659C28.1255 29.2657 28.937 29.2657 29.4369 28.7659C29.9368 28.266 29.9368 27.4545 29.4369 26.9546L25.5686 23.0833C26.3194 21.9809 26.7609 20.6481 26.7609 19.2121C26.7609 15.4146 23.6838 12.3376 19.8863 12.3376C16.0888 12.3376 13.0118 15.4146 13.0118 19.2121C13.0118 23.0096 16.0888 26.0867 19.8863 26.0867C21.3219 26.0867 22.6547 25.6483 23.7576 24.8948L27.6256 28.7658ZM21.5376 23.1987C21.0141 23.4156 20.453 23.5272 19.8863 23.5272C19.3197 23.5272 18.7586 23.4156 18.235 23.1987C17.7115 22.9819 17.2358 22.664 16.8351 22.2634C16.4344 21.8627 16.1166 21.387 15.8997 20.8634C15.6829 20.3399 15.5713 19.7788 15.5713 19.2121C15.5713 18.6455 15.6829 18.0844 15.8997 17.5608C16.1166 17.0373 16.4344 16.5616 16.8351 16.1609C17.2358 15.7602 17.7115 15.4424 18.235 15.2255C18.7586 15.0087 19.3197 14.8971 19.8863 14.8971C20.453 14.8971 21.0141 15.0087 21.5376 15.2255C22.0612 15.4424 22.5369 15.7602 22.9375 16.1609C23.3382 16.5616 23.6561 17.0373 23.8729 17.5608C24.0898 18.0844 24.2014 18.6455 24.2014 19.2121C24.2014 19.7788 24.0898 20.3399 23.8729 20.8634C23.6561 21.387 23.3382 21.8627 22.9375 22.2634C22.5369 22.664 22.0612 22.9819 21.5376 23.1987Z" fill="#F63A80" stroke="#F63A80" stroke-width="0.525"/>
<path d="M60.8813 26.306C58.9733 26.306 57.3173 25.784 55.9133 24.74V22.868C57.4613 24.044 59.1053 24.632 60.8453 24.632C62.9333 24.632 63.9773 23.936 63.9773 22.544C63.9773 22.076 63.8153 21.692 63.4913 21.392C63.1793 21.092 62.6093 20.822 61.7813 20.582L59.0093 19.898C56.9573 19.334 55.9313 18.266 55.9313 16.694C55.9313 15.626 56.3753 14.762 57.2633 14.102C58.1513 13.43 59.3513 13.094 60.8633 13.094C62.6153 13.094 64.0913 13.544 65.2913 14.444V16.298C64.0673 15.278 62.5853 14.768 60.8453 14.768C59.8613 14.768 59.0993 14.93 58.5593 15.254C58.0193 15.578 57.7493 16.028 57.7493 16.604C57.7493 17.012 57.8993 17.354 58.1993 17.63C58.5113 17.894 59.0153 18.122 59.7113 18.314L62.5193 19.034C63.6833 19.358 64.5233 19.802 65.0393 20.366C65.5673 20.918 65.8313 21.614 65.8313 22.454C65.8313 23.618 65.3873 24.554 64.4993 25.262C63.6113 25.958 62.4053 26.306 60.8813 26.306ZM77.7141 20.042V21.05H69.3261C69.3981 22.178 69.8061 23.066 70.5501 23.714C71.2941 24.35 72.2781 24.668 73.5021 24.668C74.2461 24.668 74.9601 24.536 75.6441 24.272C76.3281 24.008 76.9041 23.666 77.3721 23.246V24.884C76.8561 25.316 76.2321 25.658 75.5001 25.91C74.7681 26.15 74.0181 26.27 73.2501 26.27C71.5701 26.27 70.1961 25.76 69.1281 24.74C68.0721 23.708 67.5441 22.376 67.5441 20.744C67.5441 19.22 68.0301 17.942 69.0021 16.91C69.9861 15.866 71.2941 15.344 72.9261 15.344C74.4261 15.344 75.5961 15.758 76.4361 16.586C77.2881 17.402 77.7141 18.554 77.7141 20.042ZM72.8541 16.946C71.8821 16.946 71.0961 17.204 70.4961 17.72C69.8961 18.224 69.5241 18.896 69.3801 19.736H76.0761C76.0281 18.836 75.7221 18.146 75.1581 17.666C74.6061 17.186 73.8381 16.946 72.8541 16.946ZM83.7469 15.344C85.1989 15.344 86.3509 15.752 87.2029 16.568C88.0549 17.372 88.4809 18.512 88.4809 19.988V26H86.7709V24.506C86.0749 25.73 84.8929 26.342 83.2249 26.342C82.1329 26.342 81.2329 26.018 80.5249 25.37C79.8169 24.71 79.4629 23.894 79.4629 22.922C79.4629 21.962 79.8169 21.17 80.5249 20.546C81.2449 19.91 82.1689 19.592 83.2969 19.592C84.9049 19.592 86.0629 20.114 86.7709 21.158V20.204C86.7709 19.148 86.4589 18.344 85.8349 17.792C85.2229 17.228 84.4189 16.946 83.4229 16.946C82.0549 16.946 80.9269 17.438 80.0389 18.422V16.64C81.1069 15.776 82.3429 15.344 83.7469 15.344ZM83.8729 24.92C84.7129 24.92 85.4029 24.722 85.9429 24.326C86.4949 23.93 86.7709 23.438 86.7709 22.85C86.7709 22.286 86.5069 21.818 85.9789 21.446C85.4629 21.074 84.7849 20.888 83.9449 20.888C83.0809 20.888 82.4089 21.074 81.9289 21.446C81.4489 21.818 81.2089 22.298 81.2089 22.886C81.2089 23.498 81.4429 23.99 81.9109 24.362C82.3909 24.734 83.0449 24.92 83.8729 24.92ZM96.1112 15.56C96.6632 15.56 97.1252 15.704 97.4972 15.992V17.738C97.0532 17.39 96.4952 17.216 95.8232 17.216C95.0792 17.216 94.4672 17.516 93.9872 18.116C93.5072 18.716 93.2612 19.55 93.2492 20.618V26H91.5212V15.74H93.2492V18.116C93.5012 17.276 93.8792 16.64 94.3832 16.208C94.8872 15.776 95.4632 15.56 96.1112 15.56ZM104.189 26.27C102.473 26.27 101.081 25.754 100.013 24.722C98.9568 23.678 98.4288 22.37 98.4288 20.798C98.4288 19.226 98.9688 17.924 100.049 16.892C101.129 15.86 102.539 15.344 104.279 15.344C105.815 15.344 107.075 15.758 108.059 16.586V18.35C107.015 17.414 105.791 16.946 104.387 16.946C103.115 16.946 102.101 17.306 101.345 18.026C100.589 18.746 100.211 19.664 100.211 20.78C100.211 21.908 100.589 22.838 101.345 23.57C102.101 24.302 103.145 24.668 104.477 24.668C105.809 24.668 107.021 24.212 108.113 23.3V24.938C106.985 25.826 105.677 26.27 104.189 26.27ZM116.067 15.344C117.363 15.344 118.377 15.776 119.109 16.64C119.853 17.492 120.225 18.692 120.225 20.24V26H118.515V20.654C118.515 19.382 118.275 18.446 117.795 17.846C117.315 17.246 116.565 16.946 115.545 16.946C114.501 16.946 113.685 17.276 113.097 17.936C112.509 18.596 112.215 19.43 112.215 20.438V26H110.523V13.04H112.215V17.846C112.947 16.178 114.231 15.344 116.067 15.344Z" fill="black"/>
</svg>
