<svg width="146" height="42" viewBox="0 0 146 42" fill="none" xmlns="http://www.w3.org/2000/svg">
<path d="M22.0286 17.7451C22.0279 17.7444 22.0277 17.7434 22.028 17.7425C22.0991 17.5471 22.0383 17.3296 21.8835 17.1905L21.3332 16.6898C21.0676 16.4481 20.9475 16.0915 20.9475 15.7325V15.7325V15.7325C20.9475 15.3735 21.0676 15.0169 21.3332 14.7753L21.8835 14.2746C22.0387 14.1351 22.0994 13.9169 22.0274 13.7211C21.9284 13.4534 21.8092 13.1969 21.672 12.9494L21.5662 12.7671C21.4177 12.5197 21.2512 12.2857 21.069 12.0652C20.9362 11.9032 20.7157 11.8492 20.5178 11.9122L19.8102 12.137C19.4684 12.2456 19.1009 12.1725 18.7904 11.993V11.993C18.4793 11.813 18.2287 11.5294 18.1519 11.1783L17.9934 10.4542C17.9484 10.2495 17.7909 10.0875 17.5839 10.0537C17.2734 10.002 16.9539 9.975 16.6277 9.975C16.3014 9.975 15.9819 10.002 15.6714 10.0537C15.4644 10.0875 15.307 10.2495 15.262 10.4542L15.1033 11.179C15.0265 11.5297 14.7763 11.8129 14.4655 11.9926V11.9926C14.1547 12.1723 13.7867 12.2451 13.4448 12.1356L12.7398 11.9099C12.5418 11.8469 12.3213 11.9032 12.1886 12.0629C12.0063 12.2834 11.8398 12.5174 11.6913 12.7649L11.5856 12.9471C11.4484 13.1946 11.3291 13.4511 11.2301 13.7189C11.1581 13.9146 11.2189 14.1328 11.3741 14.2723L11.9227 14.7715C12.1894 15.0142 12.3101 15.372 12.3101 15.7325V15.7325V15.7325C12.3101 16.0915 12.1899 16.4481 11.9244 16.6898L11.3741 17.1905C11.2189 17.33 11.1581 17.5482 11.2301 17.744C11.3291 18.0117 11.4484 18.2682 11.5856 18.5157L11.6913 18.6979C11.8398 18.9454 12.0063 19.1794 12.1886 19.3999C12.3213 19.5619 12.5418 19.6159 12.7398 19.5529L13.4474 19.328C13.7892 19.2194 14.1567 19.2925 14.4671 19.4721V19.4721C14.7783 19.6521 15.0288 19.9356 15.1057 20.2867L15.2642 21.0108C15.3092 21.2156 15.4667 21.3776 15.6737 21.4113C15.9842 21.4653 16.3037 21.4923 16.6299 21.4923C16.9561 21.4923 17.2756 21.4653 17.5861 21.4136C17.7931 21.3798 17.9506 21.2178 17.9956 21.0131L18.1541 20.289C18.231 19.9379 18.4815 19.6543 18.7927 19.4744V19.4744C19.1031 19.2948 19.4706 19.2217 19.8124 19.3303L20.52 19.5551C20.718 19.6181 20.9385 19.5619 21.0712 19.4021C21.2535 19.1816 21.42 18.9477 21.5685 18.7002L21.6742 18.5179C21.8112 18.2709 21.9303 18.0149 22.0291 17.7477C22.0295 17.7468 22.0293 17.7458 22.0286 17.7451V17.7451ZM16.6299 13.9326C17.1073 13.9326 17.5651 14.1222 17.9026 14.4598C18.2402 14.7973 18.4298 15.2552 18.4298 15.7325C18.4298 16.2099 18.2402 16.6677 17.9026 17.0053C17.5651 17.3428 17.1073 17.5325 16.6299 17.5325C16.1525 17.5325 15.6947 17.3428 15.3572 17.0053C15.0196 16.6677 14.83 16.2099 14.83 15.7325C14.83 15.2552 15.0196 14.7973 15.3572 14.4598C15.6947 14.1222 16.1525 13.9326 16.6299 13.9326Z" fill="#F63A80"/>
<path d="M31.6393 27.2369C31.6385 27.2361 31.6382 27.2348 31.6386 27.2337C31.7263 26.993 31.6513 26.725 31.4605 26.5535L30.7824 25.9365C30.4552 25.6388 30.3072 25.1994 30.3072 24.757V24.757V24.757C30.3072 24.3146 30.4552 23.8752 30.7824 23.5775L31.4605 22.9605C31.6518 22.7886 31.7267 22.5196 31.6379 22.2784C31.516 21.9485 31.369 21.6325 31.1999 21.3275L31.0696 21.1029C30.8866 20.798 30.6815 20.5096 30.4569 20.238C30.2933 20.0383 30.0216 19.9718 29.7777 20.0494L28.9058 20.3265C28.4846 20.4603 28.0317 20.3703 27.6492 20.149V20.149C27.2658 19.9272 26.957 19.5778 26.8623 19.1451L26.667 18.2529C26.6116 18.0006 26.4175 17.801 26.1624 17.7594C25.7798 17.6956 25.3861 17.6624 24.9841 17.6624C24.5821 17.6624 24.1885 17.6956 23.8059 17.7594C23.5508 17.801 23.3567 18.0006 23.3013 18.2529L23.1058 19.146C23.0112 19.5781 22.7028 19.9271 22.3199 20.1485V20.1485C21.9369 20.37 21.4835 20.4597 21.0621 20.3248L20.1934 20.0467C19.9494 19.969 19.6777 20.0383 19.5142 20.2352C19.2896 20.5069 19.0844 20.7952 18.9015 21.1002L18.7712 21.3247C18.602 21.6297 18.4551 21.9458 18.3331 22.2757C18.2444 22.5169 18.3193 22.7858 18.5106 22.9577L19.1866 23.5728C19.5151 23.8718 19.6639 24.3128 19.6639 24.757V24.757V24.757C19.6639 25.1994 19.5158 25.6388 19.1886 25.9365L18.5106 26.5535C18.3193 26.7254 18.2444 26.9943 18.3331 27.2355C18.4551 27.5654 18.602 27.8815 18.7712 28.1865L18.9015 28.411C19.0844 28.716 19.2896 29.0043 19.5142 29.276C19.6777 29.4756 19.9494 29.5422 20.1934 29.4645L21.0653 29.1875C21.4865 29.0536 21.9393 29.1437 22.3219 29.365V29.365C22.7053 29.5868 23.014 29.9362 23.1087 30.3688L23.3041 31.2611C23.3595 31.5134 23.5536 31.713 23.8086 31.7546C24.1912 31.8211 24.5849 31.8544 24.9869 31.8544C25.3889 31.8544 25.7826 31.8211 26.1652 31.7573C26.4203 31.7157 26.6143 31.5161 26.6698 31.2638L26.8651 30.3716C26.9598 29.9389 27.2686 29.5896 27.6519 29.3678V29.3678C28.0345 29.1465 28.4873 29.0564 28.9085 29.1903L29.7804 29.4673C30.0244 29.5449 30.2961 29.4756 30.4597 29.2788C30.6842 29.0071 30.8894 28.7188 31.0724 28.4138L31.2027 28.1892C31.3715 27.8848 31.5182 27.5694 31.64 27.2401C31.6405 27.239 31.6402 27.2378 31.6393 27.2369V27.2369ZM24.9869 22.5391C25.5752 22.5391 26.1393 22.7727 26.5552 23.1887C26.9712 23.6046 27.2049 24.1688 27.2049 24.757C27.2049 25.3452 26.9712 25.9094 26.5552 26.3253C26.1393 26.7412 25.5752 26.9749 24.9869 26.9749C24.3987 26.9749 23.8345 26.7412 23.4186 26.3253C23.0027 25.9094 22.769 25.3452 22.769 24.757C22.769 24.1688 23.0027 23.6046 23.4186 23.1887C23.8345 22.7727 24.3987 22.5391 24.9869 22.5391Z" fill="#6D46DE"/>
<path d="M0.700012 0H19.6V0C19.6 2.3196 17.7196 4.2 15.4 4.2H0.700012V0Z" fill="#6D46DE"/>
<path d="M23.8 4.2C23.8 1.88041 25.6804 0 28 0H42.7V4.2H23.8V4.2Z" fill="#F63A80"/>
<path d="M42.7 42H23.8V42C23.8 39.6804 25.6804 37.8 28 37.8H42.7V42Z" fill="#6D46DE"/>
<path d="M19.6 37.8C19.6 40.1196 17.7196 42 15.4 42H0.700005V37.8H19.6V37.8Z" fill="#F63A80"/>
<path d="M38.5 42V23.1V23.1C40.8196 23.1 42.7 24.9804 42.7 27.3V42H38.5Z" fill="#6D46DE"/>
<path d="M42.7 18.9C40.3804 18.9 38.5 17.0196 38.5 14.7V2.28882e-05H42.7V18.9V18.9Z" fill="#F63A80"/>
<path d="M4.90002 0L4.90002 18.9V18.9C2.58043 18.9 0.700024 17.0196 0.700024 14.7L0.700024 0L4.90002 0Z" fill="#6D46DE"/>
<path d="M0.700024 23.1C3.01962 23.1 4.90002 24.9804 4.90002 27.3L4.90002 42H0.700024L0.700024 23.1V23.1Z" fill="#F63A80"/>
<path d="M57.5068 26V13.382H59.3068V26H57.5068ZM68.2644 15.344C69.5604 15.344 70.5744 15.776 71.3064 16.64C72.0504 17.492 72.4224 18.692 72.4224 20.24V26H70.7124V20.654C70.7124 19.382 70.4724 18.446 69.9924 17.846C69.5124 17.246 68.7624 16.946 67.7424 16.946C66.6984 16.946 65.8824 17.276 65.2944 17.936C64.7064 18.596 64.4124 19.43 64.4124 20.438V26H62.7204V15.74H64.4124V17.846C65.1444 16.178 66.4284 15.344 68.2644 15.344ZM81.536 15.74V17.162H78.476V26H76.748V17.162H73.868V15.74H76.748V13.706L78.476 13.13V15.74H81.536ZM92.4543 20.042V21.05H84.0663C84.1383 22.178 84.5463 23.066 85.2903 23.714C86.0343 24.35 87.0183 24.668 88.2423 24.668C88.9863 24.668 89.7003 24.536 90.3843 24.272C91.0683 24.008 91.6443 23.666 92.1123 23.246V24.884C91.5963 25.316 90.9723 25.658 90.2403 25.91C89.5083 26.15 88.7583 26.27 87.9903 26.27C86.3103 26.27 84.9363 25.76 83.8683 24.74C82.8123 23.708 82.2843 22.376 82.2843 20.744C82.2843 19.22 82.7703 17.942 83.7423 16.91C84.7263 15.866 86.0343 15.344 87.6663 15.344C89.1663 15.344 90.3363 15.758 91.1763 16.586C92.0283 17.402 92.4543 18.554 92.4543 20.042ZM87.5943 16.946C86.6223 16.946 85.8363 17.204 85.2363 17.72C84.6363 18.224 84.2643 18.896 84.1203 19.736H90.8163C90.7683 18.836 90.4623 18.146 89.8983 17.666C89.3463 17.186 88.5783 16.946 87.5943 16.946ZM103.239 15.74H104.931V24.452C104.931 26.072 104.415 27.35 103.383 28.286C102.363 29.222 101.001 29.69 99.2971 29.69C97.6411 29.69 96.2671 29.228 95.1751 28.304V26.576C96.2791 27.596 97.6351 28.106 99.2431 28.106C101.907 28.106 103.239 26.81 103.239 24.218V23.174C102.399 24.95 101.049 25.838 99.1891 25.838C97.7251 25.838 96.5251 25.352 95.5891 24.38C94.6531 23.408 94.1851 22.172 94.1851 20.672C94.1851 19.112 94.6651 17.834 95.6251 16.838C96.5971 15.842 97.8211 15.344 99.2971 15.344C101.061 15.344 102.375 16.166 103.239 17.81V15.74ZM99.5131 24.272C100.629 24.272 101.535 23.924 102.231 23.228C102.927 22.532 103.275 21.65 103.275 20.582C103.275 19.514 102.933 18.638 102.249 17.954C101.577 17.258 100.689 16.91 99.5851 16.91C98.4811 16.91 97.5991 17.264 96.9391 17.972C96.2791 18.668 95.9491 19.562 95.9491 20.654C95.9491 21.71 96.2731 22.58 96.9211 23.264C97.5811 23.936 98.4451 24.272 99.5131 24.272ZM112.715 15.56C113.267 15.56 113.729 15.704 114.101 15.992V17.738C113.657 17.39 113.099 17.216 112.427 17.216C111.683 17.216 111.071 17.516 110.591 18.116C110.111 18.716 109.865 19.55 109.853 20.618V26H108.125V15.74H109.853V18.116C110.105 17.276 110.483 16.64 110.987 16.208C111.491 15.776 112.067 15.56 112.715 15.56ZM119.387 15.344C120.839 15.344 121.991 15.752 122.843 16.568C123.695 17.372 124.121 18.512 124.121 19.988V26H122.411V24.506C121.715 25.73 120.533 26.342 118.865 26.342C117.773 26.342 116.873 26.018 116.165 25.37C115.457 24.71 115.103 23.894 115.103 22.922C115.103 21.962 115.457 21.17 116.165 20.546C116.885 19.91 117.809 19.592 118.937 19.592C120.545 19.592 121.703 20.114 122.411 21.158V20.204C122.411 19.148 122.099 18.344 121.475 17.792C120.863 17.228 120.059 16.946 119.063 16.946C117.695 16.946 116.567 17.438 115.679 18.422V16.64C116.747 15.776 117.983 15.344 119.387 15.344ZM119.513 24.92C120.353 24.92 121.043 24.722 121.583 24.326C122.135 23.93 122.411 23.438 122.411 22.85C122.411 22.286 122.147 21.818 121.619 21.446C121.103 21.074 120.425 20.888 119.585 20.888C118.721 20.888 118.049 21.074 117.569 21.446C117.089 21.818 116.849 22.298 116.849 22.886C116.849 23.498 117.083 23.99 117.551 24.362C118.031 24.734 118.685 24.92 119.513 24.92ZM133.198 15.74V17.162H130.138V26H128.41V17.162H125.53V15.74H128.41V13.706L130.138 13.13V15.74H133.198ZM144.116 20.042V21.05H135.728C135.8 22.178 136.208 23.066 136.952 23.714C137.696 24.35 138.68 24.668 139.904 24.668C140.648 24.668 141.362 24.536 142.046 24.272C142.73 24.008 143.306 23.666 143.774 23.246V24.884C143.258 25.316 142.634 25.658 141.902 25.91C141.17 26.15 140.42 26.27 139.652 26.27C137.972 26.27 136.598 25.76 135.53 24.74C134.474 23.708 133.946 22.376 133.946 20.744C133.946 19.22 134.432 17.942 135.404 16.91C136.388 15.866 137.696 15.344 139.328 15.344C140.828 15.344 141.998 15.758 142.838 16.586C143.69 17.402 144.116 18.554 144.116 20.042ZM139.256 16.946C138.284 16.946 137.498 17.204 136.898 17.72C136.298 18.224 135.926 18.896 135.782 19.736H142.478C142.43 18.836 142.124 18.146 141.56 17.666C141.008 17.186 140.24 16.946 139.256 16.946Z" fill="black"/>
</svg>
