<svg width="107" height="42" viewBox="0 0 107 42" fill="none" xmlns="http://www.w3.org/2000/svg">
<path d="M0.200012 2.1C0.200012 0.940202 1.14021 0 2.30001 0H12.275C14.5946 0 16.475 1.8804 16.475 4.2V4.2H2.30001C1.14021 4.2 0.200012 3.2598 0.200012 2.1V2.1Z" fill="#FAF5F3"/>
<path d="M19.625 1.98546C19.625 0.888919 20.5139 0 21.6105 0V0C22.8335 0 23.825 0.991485 23.825 2.21454V4.2H21.725C20.5652 4.2 19.625 3.2598 19.625 2.1V1.98546Z" fill="#00C14E"/>
<path d="M26.975 2.1C26.975 0.940202 27.9152 0 29.075 0H32.75C33.9098 0 34.85 0.940202 34.85 2.1V2.1C34.85 3.2598 33.9098 4.2 32.75 4.2H29.075C27.9152 4.2 26.975 3.2598 26.975 2.1V2.1Z" fill="#F63A80"/>
<path d="M42.2 1.98546C42.2 0.888919 41.3111 0 40.2146 0V0C38.9915 0 38 0.991485 38 2.21454V4.2H40.1C41.2598 4.2 42.2 3.2598 42.2 2.1V1.98546Z" fill="#00C14E"/>
<path d="M42.2 39.9C42.2 41.0598 41.2598 42 40.1 42H30.125C27.8054 42 25.925 40.1196 25.925 37.8V37.8H40.1C41.2598 37.8 42.2 38.7402 42.2 39.9V39.9Z" fill="#FAF5F3"/>
<path d="M22.775 40.0145C22.775 41.1111 21.8861 42 20.7896 42V42C19.5665 42 18.575 41.0085 18.575 39.7855V37.8H20.675C21.8348 37.8 22.775 38.7402 22.775 39.9V40.0145Z" fill="#00C14E"/>
<path d="M15.425 39.9C15.425 41.0598 14.4848 42 13.325 42H9.65002C8.49022 42 7.55002 41.0598 7.55002 39.9V39.9C7.55002 38.7402 8.49022 37.8 9.65002 37.8H13.325C14.4848 37.8 15.425 38.7402 15.425 39.9V39.9Z" fill="#F63A80"/>
<path d="M0.200012 40.0145C0.200012 41.1111 1.08893 42 2.18547 42V42C3.40853 42 4.40001 41.0085 4.40001 39.7855L4.40001 37.8H2.30001C1.14022 37.8 0.200012 38.7402 0.200012 39.9V40.0145Z" fill="#00C14E"/>
<path d="M40.1 42C38.9402 42 38 41.0598 38 39.9V29.925C38 27.6054 39.8804 25.725 42.2 25.725V25.725V39.9C42.2 41.0598 41.2598 42 40.1 42V42Z" fill="#FAF5F3"/>
<path d="M39.9855 22.5752C38.8889 22.5752 38 21.6863 38 20.5897V20.5897C38 19.3667 38.9915 18.3752 40.2146 18.3752H42.2V20.4752C42.2 21.635 41.2598 22.5752 40.1 22.5752H39.9855Z" fill="#00C14E"/>
<path d="M40.1 15.2251C38.9402 15.2251 38 14.2849 38 13.1251V9.4501C38 8.2903 38.9402 7.3501 40.1 7.3501V7.3501C41.2598 7.3501 42.2 8.2903 42.2 9.4501V13.1251C42.2 14.2849 41.2598 15.2251 40.1 15.2251V15.2251Z" fill="#F63A80"/>
<path d="M39.9855 0C38.8889 0 38 0.888919 38 1.98545V1.98545C38 3.20851 38.9915 4.2 40.2146 4.2H42.2V2.1C42.2 0.940203 41.2598 0 40.1 0L39.9855 0Z" fill="#00C14E"/>
<path d="M2.30001 0C3.45981 0 4.40001 0.940202 4.40001 2.1L4.40001 12.075C4.40001 14.3946 2.5196 16.275 0.200009 16.275V16.275L0.200009 2.1C0.200009 0.940202 1.14021 0 2.30001 0V0Z" fill="#FAF5F3"/>
<path d="M2.41455 19.4248C3.51109 19.4248 4.40001 20.3137 4.40001 21.4103V21.4103C4.40001 22.6333 3.40852 23.6248 2.18546 23.6248H0.200009V21.5248C0.200009 20.365 1.14021 19.4248 2.30001 19.4248H2.41455Z" fill="#00C14E"/>
<path d="M2.30001 26.7749C3.45981 26.7749 4.40001 27.7151 4.40001 28.8749V32.5499C4.40001 33.7097 3.45981 34.6499 2.30001 34.6499V34.6499C1.14021 34.6499 0.200009 33.7097 0.200009 32.5499V28.8749C0.200009 27.7151 1.14021 26.7749 2.30001 26.7749V26.7749Z" fill="#F63A80"/>
<path d="M2.41455 42C3.51109 42 4.40001 41.1111 4.40001 40.0145V40.0145C4.40001 38.7915 3.40852 37.8 2.18546 37.8H0.200009V39.9C0.200009 41.0598 1.14021 42 2.30001 42H2.41455Z" fill="#00C14E"/>
<rect x="11.225" y="15.2251" width="20.475" height="4.725" rx="2.3625" fill="#00C14E"/>
<rect x="11.225" y="22.0498" width="10.5" height="4.725" rx="2.3625" fill="#00C14E"/>
<rect width="4.725" height="4.725" rx="2.3625" transform="matrix(-1 0 0 1 28.025 22.0498)" fill="#00C14E"/>
<path d="M63.1397 26.36C60.9557 26.36 59.2097 25.736 57.9017 24.488C56.6057 23.228 55.9577 21.65 55.9577 19.754C55.9577 17.786 56.6357 16.178 57.9917 14.93C59.3597 13.67 61.1117 13.04 63.2477 13.04C65.1557 13.04 66.6977 13.508 67.8737 14.444V16.352C66.5537 15.272 65.0357 14.732 63.3197 14.732C61.6637 14.732 60.3317 15.194 59.3237 16.118C58.3277 17.042 57.8297 18.224 57.8297 19.664C57.8297 21.116 58.3277 22.31 59.3237 23.246C60.3317 24.182 61.6697 24.65 63.3377 24.65C65.1377 24.65 66.6797 24.074 67.9637 22.922V24.74C66.6797 25.82 65.0717 26.36 63.1397 26.36ZM75.1377 26.27C73.5297 26.27 72.2157 25.748 71.1957 24.704C70.1877 23.66 69.6837 22.358 69.6837 20.798C69.6837 19.238 70.1877 17.942 71.1957 16.91C72.2157 15.866 73.5297 15.344 75.1377 15.344C76.7577 15.344 78.0717 15.866 79.0797 16.91C80.0877 17.942 80.5917 19.238 80.5917 20.798C80.5917 22.358 80.0877 23.66 79.0797 24.704C78.0717 25.748 76.7577 26.27 75.1377 26.27ZM72.4377 23.588C73.1097 24.308 74.0097 24.668 75.1377 24.668C76.2657 24.668 77.1597 24.308 77.8197 23.588C78.4917 22.856 78.8277 21.926 78.8277 20.798C78.8277 19.658 78.4917 18.734 77.8197 18.026C77.1597 17.306 76.2657 16.946 75.1377 16.946C74.0097 16.946 73.1097 17.306 72.4377 18.026C71.7777 18.734 71.4477 19.658 71.4477 20.798C71.4477 21.926 71.7777 22.856 72.4377 23.588ZM91.378 13.04H93.088V26H91.378V23.642C90.994 24.434 90.442 25.07 89.722 25.55C89.014 26.03 88.156 26.27 87.148 26.27C85.732 26.27 84.562 25.754 83.638 24.722C82.726 23.69 82.27 22.394 82.27 20.834C82.27 19.214 82.756 17.894 83.728 16.874C84.712 15.854 85.93 15.344 87.382 15.344C89.194 15.344 90.526 16.172 91.378 17.828V13.04ZM87.634 24.686C88.762 24.686 89.674 24.314 90.37 23.57C91.078 22.814 91.432 21.866 91.432 20.726C91.432 19.622 91.09 18.716 90.406 18.008C89.722 17.288 88.816 16.928 87.688 16.928C86.584 16.928 85.696 17.288 85.024 18.008C84.364 18.728 84.034 19.658 84.034 20.798C84.034 21.926 84.364 22.856 85.024 23.588C85.684 24.32 86.554 24.686 87.634 24.686ZM105.694 20.042V21.05H97.3055C97.3775 22.178 97.7855 23.066 98.5295 23.714C99.2735 24.35 100.258 24.668 101.482 24.668C102.226 24.668 102.94 24.536 103.624 24.272C104.308 24.008 104.884 23.666 105.352 23.246V24.884C104.836 25.316 104.212 25.658 103.48 25.91C102.748 26.15 101.998 26.27 101.23 26.27C99.5495 26.27 98.1755 25.76 97.1075 24.74C96.0515 23.708 95.5235 22.376 95.5235 20.744C95.5235 19.22 96.0095 17.942 96.9815 16.91C97.9655 15.866 99.2735 15.344 100.906 15.344C102.406 15.344 103.576 15.758 104.416 16.586C105.268 17.402 105.694 18.554 105.694 20.042ZM100.834 16.946C99.8615 16.946 99.0755 17.204 98.4755 17.72C97.8755 18.224 97.5035 18.896 97.3595 19.736H104.056C104.008 18.836 103.702 18.146 103.138 17.666C102.586 17.186 101.818 16.946 100.834 16.946Z" fill="#FAF5F3"/>
</svg>
