<svg width="43" height="42" viewBox="0 0 43 42" fill="none" xmlns="http://www.w3.org/2000/svg">
<path d="M0.499969 2.1C0.499969 0.940202 1.44017 0 2.59997 0H12.575C14.8946 0 16.775 1.8804 16.775 4.2H2.59997C1.44017 4.2 0.499969 3.2598 0.499969 2.1Z" fill="#FAF5F3"/>
<path d="M19.925 1.98546C19.925 0.888919 20.8139 0 21.9104 0C23.1335 0 24.125 0.991485 24.125 2.21454V4.2H22.025C20.8652 4.2 19.925 3.2598 19.925 2.1V1.98546Z" fill="#F63A80"/>
<path d="M27.275 2.1C27.275 0.940202 28.2152 0 29.375 0H33.05C34.2098 0 35.15 0.940202 35.15 2.1C35.15 3.2598 34.2098 4.2 33.05 4.2H29.375C28.2152 4.2 27.275 3.2598 27.275 2.1Z" fill="#1CECFB"/>
<path d="M42.5 1.98546C42.5 0.888919 41.6111 0 40.5145 0C39.2915 0 38.3 0.991485 38.3 2.21454V4.2H40.4C41.5598 4.2 42.5 3.2598 42.5 2.1V1.98546Z" fill="#F63A80"/>
<path d="M42.5 39.9C42.5 41.0598 41.5598 42 40.4 42H30.425C28.1054 42 26.225 40.1196 26.225 37.8H40.4C41.5598 37.8 42.5 38.7402 42.5 39.9Z" fill="#FAF5F3"/>
<path d="M23.075 40.0145C23.075 41.1111 22.186 42 21.0895 42C19.8665 42 18.875 41.0085 18.875 39.7855V37.8H20.975C22.1348 37.8 23.075 38.7402 23.075 39.9V40.0145Z" fill="#F63A80"/>
<path d="M15.725 39.9C15.725 41.0598 14.7848 42 13.625 42H9.94998C8.79018 42 7.84998 41.0598 7.84998 39.9C7.84998 38.7402 8.79018 37.8 9.94998 37.8H13.625C14.7848 37.8 15.725 38.7402 15.725 39.9Z" fill="#1CECFB"/>
<path d="M0.499969 40.0145C0.499969 41.1111 1.38889 42 2.48542 42C3.70848 42 4.69997 41.0085 4.69997 39.7855L4.69997 37.8H2.59997C1.44017 37.8 0.499969 38.7402 0.499969 39.9L0.499969 40.0145Z" fill="#F63A80"/>
<path d="M40.4 42C39.2402 42 38.3 41.0598 38.3 39.9V29.925C38.3 27.6054 40.1804 25.725 42.5 25.725V39.9C42.5 41.0598 41.5598 42 40.4 42Z" fill="#FAF5F3"/>
<path d="M40.2854 22.5752C39.1889 22.5752 38.3 21.6863 38.3 20.5897C38.3 19.3667 39.2915 18.3752 40.5145 18.3752H42.5V20.4752C42.5 21.635 41.5598 22.5752 40.4 22.5752H40.2854Z" fill="#F63A80"/>
<path d="M40.4 15.2251C39.2402 15.2251 38.3 14.2849 38.3 13.1251V9.4501C38.3 8.2903 39.2402 7.3501 40.4 7.3501C41.5598 7.3501 42.5 8.2903 42.5 9.4501V13.1251C42.5 14.2849 41.5598 15.2251 40.4 15.2251Z" fill="#1CECFB"/>
<path d="M40.2854 0C39.1889 0 38.3 0.888919 38.3 1.98545C38.3 3.20851 39.2915 4.2 40.5145 4.2H42.5V2.1C42.5 0.940203 41.5598 0 40.4 0L40.2854 0Z" fill="#F63A80"/>
<path d="M2.59997 0C3.75976 0 4.69997 0.940202 4.69997 2.1L4.69997 12.075C4.69997 14.3946 2.81956 16.275 0.499967 16.275L0.499967 2.1C0.499967 0.940202 1.44017 0 2.59997 0Z" fill="#FAF5F3"/>
<path d="M2.71451 19.4248C3.81105 19.4248 4.69997 20.3137 4.69997 21.4103C4.69997 22.6333 3.70848 23.6248 2.48542 23.6248H0.499967V21.5248C0.499967 20.365 1.44017 19.4248 2.59997 19.4248H2.71451Z" fill="#F63A80"/>
<path d="M2.59997 26.7749C3.75976 26.7749 4.69997 27.7151 4.69997 28.8749V32.5499C4.69997 33.7097 3.75976 34.6499 2.59997 34.6499C1.44017 34.6499 0.499967 33.7097 0.499967 32.5499V28.8749C0.499967 27.7151 1.44017 26.7749 2.59997 26.7749Z" fill="#1CECFB"/>
<path d="M2.71451 42C3.81105 42 4.69997 41.1111 4.69997 40.0145C4.69997 38.7915 3.70848 37.8 2.48542 37.8H0.499967V39.9C0.499967 41.0598 1.44017 42 2.59997 42H2.71451Z" fill="#F63A80"/>
<path d="M14 15.4L22.075 19.65M14 15.4L22.075 12L30.15 15.4M14 15.4V24.75L22.075 29M22.075 19.65L30.15 15.4M22.075 19.65V29M30.15 15.4V24.75L22.075 29" stroke="#1CECFB" stroke-width="3.4" stroke-linejoin="round"/>
</svg>
