<svg width="43" height="42" viewBox="0 0 43 42" fill="none" xmlns="http://www.w3.org/2000/svg">
<path d="M0.166626 2.1C0.166626 0.940202 1.10683 0 2.26663 0H12.2416C14.5612 0 16.4416 1.8804 16.4416 4.2H2.26663C1.10683 4.2 0.166626 3.2598 0.166626 2.1Z" fill="#FAF5F3"/>
<path d="M19.5916 1.98546C19.5916 0.888919 20.4805 0 21.5771 0C22.8001 0 23.7916 0.991485 23.7916 2.21454V4.2H21.6916C20.5318 4.2 19.5916 3.2598 19.5916 2.1V1.98546Z" fill="#0074D2"/>
<path d="M26.9417 2.1C26.9417 0.940202 27.8819 0 29.0416 0H32.7167C33.8764 0 34.8166 0.940202 34.8166 2.1C34.8166 3.2598 33.8764 4.2 32.7167 4.2H29.0416C27.8819 4.2 26.9417 3.2598 26.9417 2.1Z" fill="#6D46DE"/>
<path d="M42.1666 1.98546C42.1666 0.888919 41.2777 0 40.1812 0C38.9581 0 37.9666 0.991485 37.9666 2.21454V4.2H40.0666C41.2264 4.2 42.1666 3.2598 42.1666 2.1V1.98546Z" fill="#0074D2"/>
<path d="M42.1666 39.9C42.1666 41.0598 41.2264 42 40.0666 42H30.0916C27.772 42 25.8916 40.1196 25.8916 37.8H40.0666C41.2264 37.8 42.1666 38.7402 42.1666 39.9Z" fill="#FAF5F3"/>
<path d="M22.7416 40.0145C22.7416 41.1111 21.8527 42 20.7562 42C19.5331 42 18.5416 41.0085 18.5416 39.7855V37.8H20.6416C21.8014 37.8 22.7416 38.7402 22.7416 39.9V40.0145Z" fill="#0074D2"/>
<path d="M15.3916 39.9C15.3916 41.0598 14.4514 42 13.2916 42H9.6166C8.4568 42 7.5166 41.0598 7.5166 39.9C7.5166 38.7402 8.4568 37.8 9.6166 37.8H13.2916C14.4514 37.8 15.3916 38.7402 15.3916 39.9Z" fill="#6D46DE"/>
<path d="M0.166626 40.0145C0.166626 41.1111 1.05554 42 2.15208 42C3.37514 42 4.36663 41.0085 4.36663 39.7855L4.36663 37.8H2.26663C1.10683 37.8 0.166626 38.7402 0.166626 39.9V40.0145Z" fill="#0074D2"/>
<path d="M40.0666 42C38.9068 42 37.9666 41.0598 37.9666 39.9V29.925C37.9666 27.6054 39.847 25.725 42.1666 25.725V39.9C42.1666 41.0598 41.2264 42 40.0666 42Z" fill="#FAF5F3"/>
<path d="M39.9521 22.5752C38.8555 22.5752 37.9666 21.6863 37.9666 20.5897C37.9666 19.3667 38.9581 18.3752 40.1812 18.3752H42.1666V20.4752C42.1666 21.635 41.2264 22.5752 40.0666 22.5752H39.9521Z" fill="#0074D2"/>
<path d="M40.0666 15.2251C38.9068 15.2251 37.9666 14.2849 37.9666 13.1251V9.4501C37.9666 8.2903 38.9068 7.3501 40.0666 7.3501C41.2264 7.3501 42.1666 8.2903 42.1666 9.4501V13.1251C42.1666 14.2849 41.2264 15.2251 40.0666 15.2251Z" fill="#6D46DE"/>
<path d="M39.9521 0C38.8555 0 37.9666 0.888919 37.9666 1.98545C37.9666 3.20851 38.9581 4.2 40.1812 4.2H42.1666V2.1C42.1666 0.940203 41.2264 0 40.0666 0L39.9521 0Z" fill="#0074D2"/>
<path d="M2.26664 0C3.42644 0 4.36664 0.940202 4.36664 2.1L4.36664 12.075C4.36664 14.3946 2.48623 16.275 0.166638 16.275L0.166638 2.1C0.166638 0.940202 1.10684 0 2.26664 0Z" fill="#FAF5F3"/>
<path d="M2.38118 19.4248C3.47772 19.4248 4.36664 20.3137 4.36664 21.4103C4.36664 22.6333 3.37515 23.6248 2.15209 23.6248H0.166638V21.5248C0.166638 20.365 1.10684 19.4248 2.26664 19.4248H2.38118Z" fill="#0074D2"/>
<path d="M2.26664 26.7749C3.42644 26.7749 4.36664 27.7151 4.36664 28.8749V32.5499C4.36664 33.7097 3.42644 34.6499 2.26664 34.6499C1.10684 34.6499 0.166638 33.7097 0.166638 32.5499V28.8749C0.166638 27.7151 1.10684 26.7749 2.26664 26.7749Z" fill="#6D46DE"/>
<path d="M2.38118 42C3.47772 42 4.36664 41.1111 4.36664 40.0145C4.36664 38.7915 3.37515 37.8 2.15209 37.8H0.166638V39.9C0.166638 41.0598 1.10684 42 2.26664 42H2.38118Z" fill="#0074D2"/>
<rect x="11" y="19" width="20.475" height="4.725" rx="2.3625" fill="#0074D2"/>
<rect x="18.875" y="31.6001" width="20.475" height="4.725" rx="2.3625" transform="rotate(-90 18.875 31.6001)" fill="#0074D2"/>
</svg>
