<svg width="43" height="42" viewBox="0 0 43 42" fill="none" xmlns="http://www.w3.org/2000/svg">
<path d="M0.833282 2.1C0.833282 0.940202 1.77348 0 2.93328 0H12.9083C15.2279 0 17.1083 1.8804 17.1083 4.2H2.93328C1.77348 4.2 0.833282 3.2598 0.833282 2.1Z" fill="#FAF5F3"/>
<path d="M20.2583 1.98546C20.2583 0.888919 21.1472 0 22.2437 0C23.4668 0 24.4583 0.991485 24.4583 2.21454V4.2H22.3583C21.1985 4.2 20.2583 3.2598 20.2583 2.1V1.98546Z" fill="#00C14E"/>
<path d="M27.6083 2.1C27.6083 0.940202 28.5485 0 29.7083 0H33.3833C34.5431 0 35.4833 0.940202 35.4833 2.1C35.4833 3.2598 34.5431 4.2 33.3833 4.2H29.7083C28.5485 4.2 27.6083 3.2598 27.6083 2.1Z" fill="#008B37"/>
<path d="M42.8333 1.98546C42.8333 0.888919 41.9444 0 40.8478 0C39.6248 0 38.6333 0.991485 38.6333 2.21454V4.2H40.7333C41.8931 4.2 42.8333 3.2598 42.8333 2.1V1.98546Z" fill="#00C14E"/>
<path d="M42.8333 39.9C42.8333 41.0598 41.8931 42 40.7333 42H30.7583C28.4387 42 26.5583 40.1196 26.5583 37.8H40.7333C41.8931 37.8 42.8333 38.7402 42.8333 39.9Z" fill="#FAF5F3"/>
<path d="M23.4083 40.0145C23.4083 41.1111 22.5194 42 21.4228 42C20.1998 42 19.2083 41.0085 19.2083 39.7855V37.8H21.3083C22.4681 37.8 23.4083 38.7402 23.4083 39.9V40.0145Z" fill="#00C14E"/>
<path d="M16.0583 39.9C16.0583 41.0598 15.1181 42 13.9583 42H10.2833C9.12349 42 8.18329 41.0598 8.18329 39.9C8.18329 38.7402 9.12349 37.8 10.2833 37.8H13.9583C15.1181 37.8 16.0583 38.7402 16.0583 39.9Z" fill="#008B37"/>
<path d="M0.833282 40.0145C0.833282 41.1111 1.7222 42 2.81874 42C4.0418 42 5.03328 41.0085 5.03328 39.7855L5.03328 37.8H2.93328C1.77349 37.8 0.833282 38.7402 0.833282 39.9V40.0145Z" fill="#00C14E"/>
<path d="M40.7333 42C39.5735 42 38.6333 41.0598 38.6333 39.9V29.925C38.6333 27.6054 40.5137 25.725 42.8333 25.725V39.9C42.8333 41.0598 41.8931 42 40.7333 42Z" fill="#FAF5F3"/>
<path d="M40.6187 22.5752C39.5222 22.5752 38.6333 21.6863 38.6333 20.5897C38.6333 19.3667 39.6248 18.3752 40.8478 18.3752H42.8333V20.4752C42.8333 21.635 41.8931 22.5752 40.7333 22.5752H40.6187Z" fill="#00C14E"/>
<path d="M40.7333 15.2251C39.5735 15.2251 38.6333 14.2849 38.6333 13.1251V9.4501C38.6333 8.2903 39.5735 7.3501 40.7333 7.3501C41.8931 7.3501 42.8333 8.2903 42.8333 9.4501V13.1251C42.8333 14.2849 41.8931 15.2251 40.7333 15.2251Z" fill="#008B37"/>
<path d="M40.6187 0C39.5222 0 38.6333 0.888919 38.6333 1.98545C38.6333 3.20851 39.6248 4.2 40.8478 4.2H42.8333V2.1C42.8333 0.940203 41.8931 0 40.7333 0L40.6187 0Z" fill="#00C14E"/>
<path d="M2.93328 0C4.09308 0 5.03328 0.940202 5.03328 2.1L5.03328 12.075C5.03328 14.3946 3.15287 16.275 0.83328 16.275L0.83328 2.1C0.83328 0.940202 1.77348 0 2.93328 0Z" fill="#FAF5F3"/>
<path d="M3.04782 19.4248C4.14436 19.4248 5.03328 20.3137 5.03328 21.4103C5.03328 22.6333 4.04179 23.6248 2.81873 23.6248H0.83328V21.5248C0.83328 20.365 1.77348 19.4248 2.93328 19.4248H3.04782Z" fill="#00C14E"/>
<path d="M2.93328 26.7749C4.09308 26.7749 5.03328 27.7151 5.03328 28.8749V32.5499C5.03328 33.7097 4.09308 34.6499 2.93328 34.6499C1.77348 34.6499 0.83328 33.7097 0.83328 32.5499V28.8749C0.83328 27.7151 1.77348 26.7749 2.93328 26.7749Z" fill="#008B37"/>
<path d="M3.04782 42C4.14436 42 5.03328 41.1111 5.03328 40.0145C5.03328 38.7915 4.04179 37.8 2.81873 37.8H0.83328V39.9C0.83328 41.0598 1.77348 42 2.93328 42H3.04782Z" fill="#00C14E"/>
<path d="M18 19V15C18 13.4 19.3333 13 20 13H24C25.6 13 26 14.3333 26 15V19" stroke="#008B37" stroke-width="3" stroke-linejoin="round"/>
<path fill-rule="evenodd" clip-rule="evenodd" d="M18 18C15.7909 18 14 19.7909 14 22V26C14 28.2091 15.7909 30 18 30H26C28.2091 30 30 28.2091 30 26V22C30 19.7909 28.2091 18 26 18H18ZM24 23C24 23.7403 23.5978 24.3866 23 24.7324V26C23 26.5523 22.5523 27 22 27C21.4477 27 21 26.5523 21 26V24.7324C20.4022 24.3866 20 23.7403 20 23C20 21.8954 20.8954 21 22 21C23.1046 21 24 21.8954 24 23Z" fill="#00C14E"/>
</svg>
