<svg width="80" height="8" viewBox="0 0 80 8" fill="none" xmlns="http://www.w3.org/2000/svg">
<path d="M0 4C0 1.79086 1.79086 0 4 0H23C27.4183 0 31 3.58172 31 8V8H4C1.79086 8 0 6.20914 0 4V4Z" fill="#25262B"/>
<path d="M37 3.78182C37 1.69318 38.6932 0 40.7818 0V0C43.1115 0 45 1.88854 45 4.21818V8H41C38.7909 8 37 6.20914 37 4V3.78182Z" fill="#00C14E"/>
<path d="M51 4C51 1.79086 52.7909 0 55 0H62C64.2091 0 66 1.79086 66 4V4C66 6.20914 64.2091 8 62 8H55C52.7909 8 51 6.20914 51 4V4Z" fill="#F63A80"/>
<path d="M80 3.78182C80 1.69318 78.3068 0 76.2182 0V0C73.8885 0 72 1.88854 72 4.21818V8H76C78.2091 8 80 6.20914 80 4V3.78182Z" fill="#00C14E"/>
</svg>
