<svg width="80" height="8" viewBox="0 0 80 8" fill="none" xmlns="http://www.w3.org/2000/svg">
<path d="M0 3.78182C0 1.69318 1.69318 0 3.78182 0V0C6.11146 0 8 1.88854 8 4.21818V8H0V3.78182Z" fill="#6D46DE"/>
<path d="M16 0H28C30.2091 0 32 1.79086 32 4V4C32 6.20914 30.2091 8 28 8H16V0Z" fill="#00C14E"/>
<path d="M40 3.78182C40 1.69318 41.6932 0 43.7818 0V0C46.1115 0 48 1.88854 48 4.21818V8H40V3.78182Z" fill="#6D46DE"/>
<path d="M56 3.78182C56 1.69318 57.6932 0 59.7818 0V0C62.1115 0 64 1.88854 64 4.21818V8H56V3.78182Z" fill="#6D46DE"/>
<path d="M72 3.78182C72 1.69318 73.6932 0 75.7818 0V0C78.1115 0 80 1.88854 80 4.21818V8H72V3.78182Z" fill="#6D46DE"/>
</svg>
